<?xml version="1.0" encoding="utf-8"?>
<!-- Generator: Adobe Illustrator 24.3.0, SVG Export Plug-In . SVG Version: 6.00 Build 0)  -->
<svg version="1.1" id="Layer_1" xmlns="http://www.w3.org/2000/svg" xmlns:xlink="http://www.w3.org/1999/xlink" x="0px" y="0px"
	 viewBox="0 0 600 600" style="enable-background:new 0 0 600 600;" xml:space="preserve">
<style type="text/css">
	.st0{fill:none;}
	.st1{fill:#00F0FF;}
	.st2{fill:#FFFFFF;}
</style>
<g id="Layer_2_1_">
	<g id="Layer_1-2">
		<rect class="st0" width="600" height="600"/>
		<path class="st1" d="M250.7,306.2c-41.2-56.4-81.5-112-138.5-154.4c55.6-8.3,99.5,13,139.8,47.7c67.7-87.7,159.6-138.8,261-176
			C401.4,95,307.9,183,250.7,306.2z"/>
		<path class="st2" d="M262.9,576.8c-5.1-22.7-6.6-45.5-7.2-68.4c-1-35.1,2.1-70.3,9.4-104.6c9.4-44.8,27.4-87.4,53-125.3
			c16-23.7,34.7-45.4,55.8-64.7l46.8,37.3c-13,14.7-26.6,28.7-38.5,43.8c-34.3,43.5-54.6,92.8-59.7,148.2c-1.9,20.5-2.1,41,0.5,61.5
			c0.2,1.4-0.1,2.9-0.8,4.2c-19.3,22.7-38.7,45.3-58.2,67.8C263.9,576.7,263.6,576.7,262.9,576.8z"/>
	</g>
</g>
</svg>
