<?xml version="1.0" encoding="utf-8"?>
<!-- Generator: Adobe Illustrator 24.3.0, SVG Export Plug-In . SVG Version: 6.00 Build 0)  -->
<svg version="1.1" id="Layer_1" xmlns="http://www.w3.org/2000/svg" xmlns:xlink="http://www.w3.org/1999/xlink" x="0px" y="0px"
	 viewBox="0 0 833.1 534" style="enable-background:new 0 0 833.1 534;" xml:space="preserve">
<style type="text/css">
	.st0{fill:#FFFFFF;}
	.st1{fill:#00F0FF;}
	.st2{fill:#FF40A9;stroke:#00F0FF;stroke-width:1.17;stroke-linecap:round;stroke-linejoin:round;}
	.st3{fill:#DBEDFF;}
	.st4{fill:none;stroke:#00F0FF;stroke-width:1.17;stroke-linecap:round;stroke-linejoin:round;}
	.st5{fill:#E8F4FF;}
	.st6{fill:#DBEDFF;stroke:#00F0FF;stroke-width:0.78;stroke-linecap:round;stroke-linejoin:round;}
	.st7{fill:#DBEDFF;stroke:#00F0FF;stroke-width:1.17;stroke-linecap:round;stroke-linejoin:round;}
	.st8{fill:#FFFFFF;stroke:#00F0FF;stroke-width:1.17;stroke-linecap:round;stroke-linejoin:round;}
	.st9{fill:none;stroke:#00F0FF;stroke-width:0.78;stroke-linecap:round;stroke-linejoin:round;}
	.st10{clip-path:url(#SVGID_2_);}
	.st11{fill:none;stroke:#FFFFFF;stroke-width:1.17;stroke-linecap:round;stroke-linejoin:round;}
	.st12{clip-path:url(#SVGID_4_);}
	.st13{clip-path:url(#SVGID_6_);}
</style>
<g id="Layer_2_1_">
	<g id="Layer_1-2">
		<path class="st0" d="M4.6,282.3C-18,178.7,46.2,67.4,128.5,26C240.6-30.4,538,2.4,536.6,150c-0.8,79.7,310.2,189,284.1,282.7
			C801.6,501.3,669,541.3,567.2,533c-122.5-10.1-139.9-85-285.5-96.1c-82.7-6.3-115.1,15-171.3-13.9
			C56.4,395.1,17.1,339.8,4.6,282.3z"/>
		<path class="st1" d="M50,286.6l227.1-132c13.7-8,32-12.4,51.5-12.4s37.8,4.4,51.6,12.3l452.9,260.8V414L380.8,153.6
			c-14-8.1-32.5-12.5-52.2-12.5s-38.2,4.4-52.1,12.5L50,285.2V286.6z"/>
		<path class="st2" d="M430.8,396.2c0-0.2,0.1-0.5,0.1-0.7c0-0.1,0-0.2,0-0.3c0-0.1,0-0.2,0-0.3c0-0.8-0.1-1.6-0.4-2.4
			c-0.1-0.3-0.2-0.6-0.3-0.8c-0.2-0.4-0.4-0.8-0.6-1.1c-0.4-0.6-0.8-1.2-1.3-1.7c-0.4-0.5-0.9-0.9-1.5-1.2c-1-0.7-2.2-1.1-3.4-1.2
			c-0.6,0-1.2,0-1.8,0.1c-0.7,0.1-1.3,0.4-1.9,0.7l-9.4,5.5c-1,0.6-1.6,1.9-1.6,3.7c0.2,3.9,2.3,7.4,5.6,9.5
			c1.1,0.8,2.6,0.9,3.9,0.3l9.4-5.5c0.3-0.2,0.5-0.3,0.7-0.5c0.2-0.2,0.4-0.4,0.6-0.6c0.3-0.4,0.7-0.8,0.9-1.2
			c0-0.1,0.1-0.2,0.1-0.3l0.1-0.3v-0.1c0-0.1,0-0.1,0.1-0.2c0-0.1,0.1-0.2,0.1-0.3c0,0,0-0.1,0-0.1c0-0.1,0.1-0.2,0.1-0.3v-0.1v-0.1
			C430.7,396.6,430.7,396.4,430.8,396.2z"/>
		<path class="st1" d="M280.4,472.2c2.6,1.4,4.2,4.3,3.8,7.2c-3.6,0.7-6.9,1.4-7.8,1.5c-2.3,0.3-3-1.4-1.5-3
			C275.7,477,277.9,474.8,280.4,472.2L280.4,472.2z"/>
		<path class="st3" d="M296.6,465.2l2.9,7.6l-3,4.2c0,0-6.6,1.4-12.2,2.5c0.3-3-1.2-5.8-3.8-7.2l0,0c4.6-4.7,10.2-10.4,10.2-10.4
			L296.6,465.2z"/>
		<polygon class="st0" points="414,397.2 414,397.3 296.6,465.2 290.6,461.8 408.1,393.8 		"/>
		<polygon class="st0" points="414,397.3 416.9,404.8 416.9,404.9 299.5,472.8 296.6,465.2 		"/>
		<polygon class="st3" points="416.9,404.9 423.4,401 420.5,405.2 413.9,409 413.9,409 		"/>
		<polygon class="st3" points="420.5,393.5 414,397.3 414,397.2 408.1,393.8 414.6,390 		"/>
		<polygon class="st3" points="423.4,401 416.9,404.9 416.9,404.8 414,397.3 420.5,393.5 		"/>
		<polygon class="st3" points="413.9,409 296.5,477 299.5,472.8 416.9,404.9 413.9,409 		"/>
		<polyline class="st4" points="423.4,401 420.5,405.2 413.9,409 296.5,477 		"/>
		<polyline class="st4" points="420.5,393.5 423.4,401 416.9,404.9 299.5,472.8 		"/>
		<polyline class="st4" points="290.6,461.8 408.1,393.8 414.6,390 420.5,393.5 414,397.3 296.6,465.2 		"/>
		<path class="st4" d="M290.6,461.8c0,0-5.6,5.7-10.2,10.4c-2.5,2.6-4.7,4.9-5.5,5.8c-1.4,1.6-0.8,3.2,1.5,3
			c0.9-0.1,4.2-0.7,7.8-1.5c5.7-1.1,12.2-2.5,12.2-2.5l3-4.2l-2.9-7.6L290.6,461.8z"/>
		<path class="st4" d="M280.4,472.2c2.6,1.4,4.2,4.3,3.8,7.2l0,0"/>
		<polyline class="st4" points="408.1,393.8 414,397.2 414,397.3 416.9,404.8 416.9,404.9 413.9,409 		"/>
		<path class="st5" d="M681.1,133.6l-213-123c-1.2-0.7-2.6-1-3.9-0.9l-8.2,0.8c1.4-0.1,2.7,0.2,3.9,0.9l213,123
			c4.2,2.4,6.3,8.7,4.6,14.1l-56.1,184.7c-1.1,3.7-3.7,6-6.6,6.3l8.2-0.8c2.9-0.3,5.5-2.5,6.6-6.3l56.1-184.7
			C687.4,142.4,685.3,136,681.1,133.6z"/>
		<path class="st0" d="M672.9,134.4l-213-123c-4.2-2.4-8.9,0-10.5,5.4l-56.1,184.8c-1.6,5.4,0.5,11.7,4.6,14.1l213,123
			c4.2,2.4,8.9,0,10.5-5.4l56.1-184.7C679.2,143.1,677.1,136.8,672.9,134.4z"/>
		<path class="st4" d="M672.9,134.4l-213-123c-4.2-2.4-8.9,0-10.5,5.4l-56.1,184.8c-1.6,5.4,0.5,11.7,4.6,14.1l213,123
			c4.2,2.4,8.9,0,10.5-5.4l56.1-184.7C679.2,143.1,677.1,136.8,672.9,134.4z"/>
		<path class="st6" d="M644.8,229.6l-3.8-2.2c-2.1-1.2-4.4,0-5.2,2.7l-1.5,4.8c-0.8,2.7,0.2,5.8,2.3,7l3.8,2.2
			c2.1,1.2,4.4,0,5.2-2.7l1.5-4.8C647.9,233.9,646.8,230.8,644.8,229.6z"/>
		<polygon class="st1" points="460.2,18.2 401.7,211.1 603.5,327.6 662,134.7 		"/>
		<path class="st4" d="M614.9,339.5l8.2-0.8c2.9-0.3,5.5-2.5,6.6-6.3l56.1-184.7c1.6-5.4-0.4-11.7-4.6-14.1l-213-123
			c-1.2-0.7-2.6-1-3.9-0.9l-8.2,0.8"/>
		<path class="st0" d="M526.4,91.2l-55.8-32.2c-1.5-0.9-3.2,0-3.7,1.9l-32.5,106.6c-0.6,1.8,0.1,3.9,1.6,5l55.8,32.2
			c1.5,0.9,3.1,0,3.7-1.9l32.5-106.7C528.7,94.3,528,92.3,526.4,91.2z"/>
		<path class="st7" d="M511.3,98.8l-34-19.7c-1.5-0.9-3.2,0-3.7,1.9l-6.1,20c-0.6,1.8,0.1,3.9,1.6,5l34,19.7c1.5,0.8,3.1,0,3.7-1.9
			l6.1-19.9C513.5,102,512.9,99.9,511.3,98.8z"/>
		<path class="st0" d="M600.8,255l-43.2-25c-1.5-0.9-3.2,0-3.7,1.9l-3.9,12.6c-0.6,1.8,0.1,3.9,1.6,5l43.2,25c1.5,0.9,3.2,0,3.7-1.9
			l3.9-12.6C603.1,258.2,602.4,256.1,600.8,255z"/>
		<polygon class="st0" points="591.4,167.6 527.6,130.7 527,132.6 590.8,169.4 		"/>
		<polygon class="st0" points="516.3,167.9 613.4,224 614,222.1 516.8,166 		"/>
		<polygon class="st0" points="536.6,164.9 617.2,211.5 617.8,209.6 537.2,163.1 		"/>
		<polygon class="st0" points="528.8,126.8 625.9,182.9 626.5,181.1 529.3,125 		"/>
		<polygon class="st0" points="512.5,180.4 609.6,236.4 610.2,234.6 513,178.5 		"/>
		<polygon class="st0" points="514.4,174.1 611.5,230.2 612.1,228.3 514.9,172.2 		"/>
		<polygon class="st0" points="518.2,161.6 615.3,217.7 615.9,215.8 518.7,159.8 		"/>
		<polygon class="st0" points="531.1,119.2 530.5,121.1 627.7,177.2 628.2,175.3 		"/>
		<path class="st8" d="M615.5,352.2l-234.4-135c-5.6-3.2-14.6-3.2-20.1,0l-78,45.3c-5.5,3.2-5.5,8.4,0.1,11.6l234.4,135
			c5.6,3.2,14.6,3.2,20.1,0l78-45.3C621.1,360.6,621.1,355.4,615.5,352.2z"/>
		<path class="st3" d="M505.5,378.1l-7.2-4.2c-1.8-0.9-3.9-0.9-5.6,0l-6.6,3.8c-1.5,0.9-1.5,2.4,0,3.3l7.2,4.2
			c1.8,0.9,3.9,0.9,5.6,0l6.6-3.8C507.1,380.4,507.1,379,505.5,378.1z"/>
		<path class="st3" d="M516.2,381.3l7.1,4.1c1.8,0.9,3.9,0.9,5.6,0l6.6-3.8c1.5-0.9,1.5-2.4,0-3.3l-7.1-4.1c-1.8-0.9-3.9-0.9-5.6,0
			l-6.6,3.8C514.6,379,514.6,380.4,516.2,381.3z"/>
		<path class="st3" d="M520.8,386.8l-7.1-4.1c-1.8-0.9-3.9-0.9-5.6,0l-6.6,3.8c-1.5,0.9-1.5,2.4,0,3.3l7.1,4.1
			c1.8,0.9,3.9,0.9,5.6,0l6.6-3.8C522.3,389.2,522.3,387.7,520.8,386.8z"/>
		<path class="st3" d="M486.9,364.5l21.1,12.2c1.8,0.9,3.9,0.9,5.6,0l6.6-3.8c1.5-0.9,1.5-2.4,0-3.3l-21.1-12.2
			c-1.8-0.9-3.9-0.9-5.6,0l-6.6,3.8C485.4,362.1,485.4,363.5,486.9,364.5z"/>
		<path class="st3" d="M472.4,356.1l6.4,3.7c1.8,0.9,3.9,0.9,5.6,0l6.6-3.8c1.5-0.9,1.5-2.4,0-3.3l-6.4-3.7c-1.8-0.9-3.9-0.9-5.6,0
			l-6.6,3.8C470.9,353.7,470.9,355.2,472.4,356.1z"/>
		<path class="st3" d="M490.2,332.6l6.4,3.7c1.8,0.9,3.9,0.9,5.6,0l7.2-4.2c1.5-0.9,1.5-2.4,0-3.2l-6.4-3.7c-1.8-0.9-3.9-0.9-5.6,0
			l-7.1,4.1C488.6,330.3,488.6,331.7,490.2,332.6z"/>
		<path class="st3" d="M524.1,340.7c1.5-0.9,1.5-2.4,0-3.3l-6.6-3.8c-1.8-0.9-3.9-0.9-5.6,0l-7.2,4.2c-1.5,0.9-1.5,2.4,0,3.3
			l6.6,3.8c1.8,0.9,3.9,0.9,5.6,0L524.1,340.7z"/>
		<path class="st3" d="M487.1,296.3l5.6,3.2c1.8,0.9,3.9,0.9,5.6,0l1-0.6c1.5-0.9,1.5-2.4,0-3.3l-5.6-3.2c-1.8-0.9-3.9-0.9-5.6,0
			l-1,0.6C485.5,293.9,485.5,295.4,487.1,296.3z"/>
		<path class="st3" d="M500.8,304.2l7.2,4.2c1.8,0.9,3.9,0.9,5.6,0l1-0.6c1.5-0.9,1.5-2.4,0-3.3l-7.2-4.2c-1.8-0.9-3.9-0.9-5.6,0
			l-1,0.6C499.2,301.8,499.2,303.3,500.8,304.2z"/>
		<path class="st3" d="M505.4,309.9l-7.2-4.2c-1.8-0.9-3.9-0.9-5.6,0l-6.4,3.7c-1.5,0.9-1.5,2.4,0,3.3l7.2,4.2
			c1.8,0.9,3.9,0.9,5.6,0l6.4-3.7C506.9,312.2,506.9,310.8,505.4,309.9z"/>
		<path class="st3" d="M461.6,284.6l-6.4-3.7c-1.8-0.9-3.9-0.9-5.6,0l-6.4,3.7c-1.5,0.9-1.5,2.4,0,3.3l6.4,3.7
			c1.8,0.9,3.9,0.9,5.6,0l6.4-3.7C463.1,287,463.1,285.5,461.6,284.6z"/>
		<path class="st3" d="M476.4,293.1l-6.6-3.8c-1.8-0.9-3.9-0.9-5.6,0l-6.4,3.7c-1.5,0.9-1.5,2.4,0,3.3l6.6,3.8
			c1.8,0.9,3.9,0.9,5.6,0l6.4-3.7C477.9,295.5,477.9,294,476.4,293.1z"/>
		<path class="st3" d="M391.7,261l-6.4-3.7c-1.8-0.9-3.9-0.9-5.6,0l-7.2,4.2c-1.5,0.9-1.5,2.4,0,3.3l6.4,3.7c1.8,0.9,3.9,0.9,5.6,0
			l7.1-4.2C393.3,263.4,393.2,261.9,391.7,261z"/>
		<path class="st3" d="M402.3,250.4l-6.4-3.7c-1.8-0.9-3.9-0.9-5.6,0l-6.4,3.7c-1.5,0.9-1.5,2.4,0,3.3l6.4,3.7
			c1.8,0.9,3.9,0.9,5.6,0l6.4-3.7C403.9,252.7,403.8,251.2,402.3,250.4z"/>
		<path class="st3" d="M398.5,245.2l6.4,3.7c1.8,0.9,3.9,0.9,5.6,0l1-0.6c1.5-0.9,1.5-2.4,0-3.3l-6.4-3.7c-1.8-0.9-3.9-0.9-5.6,0
			l-1,0.6C397,242.8,397,244.3,398.5,245.2z"/>
		<path class="st3" d="M413,253.5l6.6,3.8c1.8,0.9,3.9,0.9,5.6,0l1-0.6c1.5-0.9,1.5-2.4,0-3.3l-6.6-3.8c-1.8-0.9-3.9-0.9-5.6,0
			l-1,0.6C411.5,251.2,411.5,252.6,413,253.5z"/>
		<path class="st3" d="M457.8,279.4l6.4,3.7c1.8,0.9,3.9,0.9,5.6,0l1-0.6c1.5-0.9,1.5-2.4,0-3.3l-6.4-3.7c-1.8-0.9-3.9-0.9-5.6,0
			l-1,0.6C456.2,277,456.2,278.5,457.8,279.4z"/>
		<path class="st3" d="M427.8,262.1l6.5,3.8c1.8,0.9,3.9,0.9,5.6,0l1-0.6c1.5-0.9,1.5-2.4,0-3.3l-6.5-3.8c-1.8-0.9-3.9-0.9-5.6,0
			l-1,0.6C426.2,259.7,426.2,261.2,427.8,262.1z"/>
		<path class="st3" d="M417.1,258.9l-6.6-3.8c-1.8-0.9-3.9-0.9-5.6,0l-6.4,3.7c-1.5,0.9-1.5,2.4,0,3.2l6.6,3.8
			c1.8,0.9,3.9,0.9,5.6,0l6.4-3.7C418.6,261.2,418.6,259.8,417.1,258.9z"/>
		<path class="st3" d="M431.7,267.4l-6.5-3.8c-1.8-0.9-3.9-0.9-5.6,0l-6.4,3.7c-1.5,0.9-1.5,2.4,0,3.3l6.5,3.8
			c1.8,0.9,3.9,0.9,5.6,0l6.4-3.7C433.3,269.7,433.3,268.3,431.7,267.4z"/>
		<path class="st3" d="M442.5,270.5l7.2,4.1c1.8,0.9,3.9,0.9,5.6,0l1-0.6c1.5-0.9,1.5-2.4,0-3.3l-7.2-4.1c-1.8-0.9-3.9-0.9-5.6,0
			l-1,0.6C440.9,268.2,440.9,269.6,442.5,270.5z"/>
		<path class="st3" d="M447.1,276.2l-7.2-4.1c-1.8-0.9-3.9-0.9-5.6,0l-6.4,3.7c-1.5,0.9-1.5,2.4,0,3.3l7.2,4.2
			c1.8,0.9,3.9,0.9,5.6,0l6.4-3.7C448.6,278.6,448.6,277.1,447.1,276.2z"/>
		<path class="st3" d="M348,264c-1.5,0.9-1.5,2.4,0,3.3l7.2,4.1c1.8,0.9,3.9,0.9,5.6,0l6.3-3.7c1.5-0.9,1.5-2.4,0-3.3l-7.2-4.2
			c-1.8-0.9-3.9-0.9-5.6,0L348,264z"/>
		<path class="st3" d="M381.6,276.1c1.5-0.9,1.5-2.4,0-3.3l-6.4-3.7c-1.8-0.9-3.9-0.9-5.6,0l-6.3,3.7c-1.5,0.9-1.5,2.4,0,3.3
			l6.4,3.7c1.8,0.9,3.9,0.9,5.6,0L381.6,276.1z"/>
		<path class="st3" d="M406.5,269.5l-6.6-3.8c-1.8-0.9-3.9-0.9-5.6,0l-7.2,4.2c-1.5,0.9-1.5,2.4,0,3.3l6.6,3.8
			c1.8,0.9,3.9,0.9,5.6,0l7.1-4.2C408,271.9,408,270.4,406.5,269.5z"/>
		<path class="st3" d="M421.2,278l-6.5-3.8c-1.8-0.9-3.9-0.9-5.6,0l-7.1,4.1c-1.5,0.9-1.5,2.4,0,3.3l6.5,3.8c1.8,0.9,3.9,0.9,5.6,0
			l7.2-4.2C422.7,280.4,422.7,278.9,421.2,278z"/>
		<path class="st3" d="M436.5,286.9l-7.2-4.2c-1.8-0.9-3.9-0.9-5.6,0l-7.2,4.2c-1.5,0.9-1.5,2.4,0,3.3l7.2,4.2
			c1.8,0.9,3.9,0.9,5.6,0l7.1-4.2C438,289.2,438,287.7,436.5,286.9z"/>
		<path class="st3" d="M392.6,293l6.5,3.8c1.8,0.9,3.9,0.9,5.6,0l6.3-3.7c1.5-0.9,1.5-2.4,0-3.3l-6.6-3.8c-1.8-0.9-3.9-0.9-5.6,0
			l-6.3,3.7C391,290.6,391,292.1,392.6,293z"/>
		<path class="st3" d="M451,295.2l-6.4-3.7c-1.8-0.9-3.9-0.9-5.6,0l-7.1,4.2c-1.5,0.9-1.5,2.4,0,3.3l6.4,3.7c1.8,0.9,3.9,0.9,5.6,0
			l7.2-4.2C452.5,297.6,452.5,296.1,451,295.2z"/>
		<path class="st3" d="M407.3,301.5l7.2,4.1c1.8,0.9,3.9,0.9,5.6,0l6.3-3.7c1.5-0.9,1.5-2.4,0-3.3l-7.2-4.2c-1.8-0.9-3.9-0.9-5.6,0
			l-6.3,3.7C405.7,299.1,405.7,300.5,407.3,301.5z"/>
		<path class="st3" d="M384.1,305.1l6.5,3.8c1.8,0.9,3.9,0.9,5.6,0l6.6-3.8c1.5-0.9,1.5-2.4,0-3.3l-6.6-3.8c-1.8-0.9-3.9-0.9-5.6,0
			l-6.6,3.8C382.5,302.7,382.6,304.2,384.1,305.1z"/>
		<path class="st3" d="M356.9,306.4l6.5,3.8c1.8,0.9,3.9,0.9,5.6,0l6.6-3.8c1.5-0.9,1.5-2.4,0-3.2l-6.5-3.8c-1.8-0.9-3.9-0.9-5.6,0
			l-6.6,3.8C355.3,304,355.3,305.5,356.9,306.4z"/>
		<path class="st3" d="M465.8,303.8l-6.6-3.8c-1.8-0.9-3.9-0.9-5.6,0l-7.1,4.2c-1.5,0.9-1.5,2.4,0,3.3l6.6,3.8
			c1.8,0.9,3.9,0.9,5.6,0l7.1-4.2C467.3,306.1,467.3,304.6,465.8,303.8z"/>
		<path class="st3" d="M422.6,310.3l6.4,3.7c1.8,0.9,3.9,0.9,5.6,0l6.3-3.7c1.5-0.9,1.5-2.4,0-3.3l-6.4-3.7c-1.8-0.9-3.9-0.9-5.6,0
			l-6.4,3.6C421,307.9,421,309.4,422.6,310.3z"/>
		<path class="st3" d="M398.8,313.6l7.2,4.2c1.8,0.9,3.9,0.9,5.6,0l6.6-3.8c1.5-0.9,1.5-2.4,0-3.3l-7.2-4.1c-1.8-0.9-3.9-0.9-5.6,0
			l-6.6,3.8C397.2,311.2,397.2,312.7,398.8,313.6z"/>
		<path class="st3" d="M479.5,311.7l-5.6-3.2c-1.8-0.9-3.9-0.9-5.6,0l-7.1,4.1c-1.5,0.9-1.5,2.4,0,3.3l5.6,3.2
			c1.8,0.9,3.9,0.9,5.6,0l7.2-4.2C481,314,481,312.6,479.5,311.7z"/>
		<path class="st3" d="M437.1,318.7l6.6,3.8c1.8,0.9,3.9,0.9,5.6,0l6.3-3.7c1.5-0.9,1.5-2.4,0-3.3l-6.7-3.8c-1.8-0.9-3.9-0.9-5.6,0
			l-6.3,3.7C435.5,316.3,435.5,317.8,437.1,318.7z"/>
		<path class="st3" d="M414.1,322.4l6.4,3.7c1.8,0.9,3.9,0.9,5.6,0l6.6-3.8c1.5-0.9,1.5-2.4,0-3.3l-6.4-3.7c-1.8-0.9-3.9-0.9-5.6,0
			l-6.6,3.8C412.5,320,412.6,321.5,414.1,322.4z"/>
		<path class="st3" d="M494.8,320.5l-7.2-4.1c-1.8-0.9-3.9-0.9-5.6,0l-7.1,4.1c-1.5,0.9-1.5,2.4,0,3.3l7.2,4.1
			c1.8,0.9,3.9,0.9,5.6,0l7.1-4.2C496.4,322.9,496.4,321.4,494.8,320.5z"/>
		<path class="st3" d="M451.9,327.2l5.6,3.2c1.8,0.9,3.9,0.9,5.6,0l6.3-3.7c1.5-0.9,1.5-2.4,0-3.3l-5.6-3.2c-1.8-0.9-3.9-0.9-5.6,0
			l-6.3,3.7C450.3,324.8,450.3,326.3,451.9,327.2z"/>
		<path class="st3" d="M428.6,330.8l6.6,3.8c1.8,0.9,3.9,0.9,5.6,0l6.6-3.8c1.5-0.9,1.5-2.4,0-3.2l-6.6-3.8c-1.8-0.9-3.9-0.9-5.6,0
			l-6.6,3.8C427.1,328.4,427.1,329.9,428.6,330.8z"/>
		<path class="st3" d="M465.6,335.1l7.2,4.1c1.8,0.9,3.9,0.9,5.6,0l6.3-3.7c1.5-0.9,1.5-2.4,0-3.3l-7.2-4.1c-1.8-0.9-3.9-0.9-5.6,0
			l-6.3,3.7C464,332.8,464,334.2,465.6,335.1z"/>
		<path class="st3" d="M443.4,339.3l5.6,3.2c1.8,0.9,3.9,0.9,5.6,0l6.6-3.8c1.5-0.9,1.5-2.4,0-3.2l-5.6-3.2c-1.8-0.9-3.9-0.9-5.6,0
			l-6.6,3.8C441.8,337,441.8,338.4,443.4,339.3z"/>
		<path class="st3" d="M480.9,344l6.4,3.7c1.8,0.9,3.9,0.9,5.6,0l6.3-3.7c1.5-0.9,1.5-2.4,0-3.3l-6.4-3.7c-1.8-0.9-3.9-0.9-5.6,0
			l-6.3,3.7C479.4,341.6,479.4,343.1,480.9,344z"/>
		<path class="st3" d="M457.1,347.2l7.2,4.2c1.8,0.9,3.9,0.9,5.6,0l6.6-3.8c1.5-0.9,1.5-2.4,0-3.3l-7.2-4.2c-1.8-0.9-3.9-0.9-5.6,0
			l-6.6,3.8C455.5,344.9,455.5,346.3,457.1,347.2z"/>
		<path class="st3" d="M461.8,352.8l-78.1-45.1c-1.8-0.9-3.9-0.9-5.6,0l-6.6,3.8c-1.5,0.9-1.5,2.4,0,3.3l78.1,45.1
			c1.8,0.9,3.9,0.9,5.6,0l6.6-3.8C463.4,355.2,463.4,353.7,461.8,352.8z"/>
		<path class="st3" d="M476.3,361.2l-6.3-3.7c-1.8-0.9-3.9-0.9-5.6,0l-6.6,3.8c-1.5,0.9-1.5,2.4,0,3.3l6.4,3.7
			c1.8,0.9,3.9,0.9,5.6,0l6.6-3.8C477.9,363.5,477.9,362.1,476.3,361.2z"/>
		<path class="st3" d="M490.2,369.2l-5.7-3.3c-1.8-0.9-3.9-0.9-5.6,0l-6.6,3.8c-1.5,0.9-1.5,2.4,0,3.3l5.7,3.3
			c1.8,0.9,3.9,0.9,5.6,0l6.6-3.8C491.7,371.5,491.7,370.1,490.2,369.2z"/>
		<path class="st3" d="M342.1,297.8l6.6,3.8c1.8,0.9,3.9,0.9,5.6,0l6.6-3.8c1.5-0.9,1.5-2.4,0-3.3l-6.6-3.8c-1.8-0.9-3.9-0.9-5.6,0
			l-6.6,3.8C340.6,295.5,340.6,296.9,342.1,297.8z"/>
		<path class="st3" d="M327.6,289.4l6.4,3.7c1.8,0.9,3.9,0.9,5.6,0l6.6-3.8c1.5-0.9,1.5-2.4,0-3.3l-6.4-3.7c-1.8-0.9-3.9-0.9-5.6,0
			l-6.6,3.8C326,287.1,326,288.5,327.6,289.4z"/>
		<path class="st3" d="M331.7,277.7l-7.2-4.2c-1.8-0.9-3.9-0.9-5.6,0l-6.6,3.8c-1.5,0.9-1.5,2.4,0,3.3l7.2,4.2
			c1.8,0.9,3.9,0.9,5.6,0l6.6-3.8C333.2,280,333.2,278.6,331.7,277.7z"/>
		<path class="st3" d="M565.9,379.2l-7.9-4.6c-1.8-0.9-3.9-0.9-5.6,0l-6.3,3.7c-1.5,0.9-1.5,2.4,0,3.3l7.9,4.6
			c1.8,0.9,3.9,0.9,5.6,0l6.3-3.7C567.4,381.6,567.4,380.1,565.9,379.2z"/>
		<path class="st3" d="M551.5,387.6l-7.9-4.6c-1.8-0.9-3.9-0.9-5.6,0l-6.6,3.8c-1.5,0.9-1.5,2.4,0,3.3l7.9,4.6
			c1.8,0.9,3.9,0.9,5.6,0l6.6-3.8C553,389.9,553,388.5,551.5,387.6z"/>
		<path class="st3" d="M381.6,300.4l6.6-3.8c1.5-0.9,1.5-2.4,0-3.3l-6.6-3.8c-1.8-0.9-3.9-0.9-5.6,0l-6.6,3.8
			c-1.5,0.9-1.5,2.4,0,3.3l6.6,3.8C377.7,301.3,379.8,301.3,381.6,300.4z"/>
		<path class="st3" d="M383.2,236.3l7.2,4.1c1.8,0.9,3.9,0.9,5.6,0l1-0.6c1.5-0.9,1.5-2.4,0-3.3l-7.2-4.1c-1.8-0.9-3.9-0.9-5.6,0
			l-1,0.6C381.6,234,381.6,235.4,383.2,236.3z"/>
		<path class="st3" d="M367.3,227.1l7.8,4.5c1.8,0.9,3.9,0.9,5.6,0l1-0.6c1.5-0.9,1.5-2.4,0-3.3l-7.8-4.5c-1.8-0.9-3.9-0.9-5.6,0
			l-1,0.6C365.7,224.8,365.7,226.2,367.3,227.1z"/>
		<path class="st3" d="M352.7,235.6l7.8,4.5c1.8,0.9,3.9,0.9,5.6,0l6.4-3.7c1.5-0.9,1.5-2.4,0-3.3l-7.8-4.5c-1.8-0.9-3.9-0.9-5.6,0
			l-6.4,3.7C351.1,233.2,351.1,234.7,352.7,235.6z"/>
		<path class="st3" d="M387.8,242l-7.2-4.1c-1.8-0.9-3.9-0.9-5.6,0l-6.4,3.7c-1.5,0.9-1.5,2.4,0,3.3l7.2,4.2c1.8,0.9,3.9,0.9,5.6,0
			l6.4-3.7C389.4,244.4,389.3,242.9,387.8,242z"/>
		<path class="st3" d="M337.4,244.4l11.7,6.7c1.8,0.9,3.9,0.9,5.6,0l7.2-4.2c1.5-0.9,1.5-2.4,0-3.3l-11.7-6.7
			c-1.8-0.9-3.9-0.9-5.6,0l-7.1,4.2C335.9,242.1,335.9,243.6,337.4,244.4z"/>
		<path class="st3" d="M364.4,248.5l-7.2,4.2c-1.5,0.9-1.5,2.4,0,3.3l7.2,4.2c1.8,0.9,3.9,0.9,5.6,0l7.2-4.2c1.5-0.9,1.5-2.4,0-3.3
			l-7.2-4.1C368.2,247.6,366.2,247.6,364.4,248.5z"/>
		<path class="st3" d="M323,252.8l16.8,9.7c1.8,0.9,3.9,0.9,5.6,0l6.3-3.7c1.5-0.9,1.5-2.4,0-3.3l-16.8-9.7c-1.8-0.9-3.9-0.9-5.6,0
			l-6.4,3.7C321.5,250.5,321.5,251.9,323,252.8z"/>
		<path class="st3" d="M309.8,275.9l6.6-3.8c1.5-0.9,1.5-2.4,0-3.2l-10.4-6c-1.8-0.9-3.9-0.9-5.6,0l-6.6,3.8c-1.5,0.9-1.5,2.4,0,3.3
			l10.5,6C305.9,276.8,308,276.8,309.8,275.9z"/>
		<path class="st3" d="M308.4,261.4l23,13.3c1.8,0.9,3.9,0.9,5.6,0l6.6-3.8c1.5-0.9,1.5-2.4,0-3.3l-23-13.3c-1.8-0.9-3.9-0.9-5.6,0
			l-6.6,3.8C306.8,259,306.8,260.5,308.4,261.4z"/>
		<path class="st3" d="M339.5,276.1c-1.5,0.9-1.5,2.4,0,3.2l7.2,4.2c1.8,0.9,3.9,0.9,5.6,0l6.6-3.8c1.5-0.9,1.5-2.4,0-3.3l-7.2-4.2
			c-1.8-0.9-3.9-0.9-5.6,0L339.5,276.1z"/>
		<path class="st3" d="M367,281.1c-1.8-0.9-3.9-0.9-5.6,0l-6.6,3.8c-1.5,0.9-1.5,2.4,0,3.3l6.4,3.7c1.8,0.9,3.9,0.9,5.6,0l6.6-3.8
			c1.5-0.9,1.5-2.4,0-3.2L367,281.1z"/>
		<path class="st3" d="M557.9,368.5l7.2-4.2c1.5-0.9,1.5-2.4,0-3.3l-17.9-10.3c-1.8-0.9-3.9-0.9-5.6,0l-7.2,4.2
			c-1.5,0.9-1.5,2.4,0,3.3l17.8,10.2C554.1,369.4,556.2,369.4,557.9,368.5z"/>
		<path class="st3" d="M519.4,349.5l6.9,4c1.8,0.9,3.9,0.9,5.6,0l7.2-4.2c1.5-0.9,1.5-2.4,0-3.3l-6.9-4c-1.8-0.9-3.9-0.9-5.6,0
			l-7.2,4.2C517.9,347.2,517.9,348.6,519.4,349.5z"/>
		<path class="st3" d="M543.5,376.9l6.3-3.7c1.5-0.9,1.5-2.4,0-3.3l-27.7-16c-1.8-0.9-3.9-0.9-5.6,0l-6.3,3.7
			c-1.5,0.9-1.5,2.4,0,3.3l27.7,16C539.7,377.8,541.8,377.8,543.5,376.9z"/>
		<path class="st3" d="M495.4,352.3l6.6,3.8c1.8,0.9,3.9,0.9,5.6,0l6.3-3.7c1.5-0.9,1.5-2.4,0-3.3l-6.6-3.8c-1.8-0.9-3.9-0.9-5.6,0
			l-6.3,3.7C493.8,350,493.9,351.4,495.4,352.3z"/>
		<path class="st3" d="M377.8,284.4l6.6,3.8c1.8,0.9,3.9,0.9,5.6,0l6.3-3.7c1.5-0.9,1.5-2.4,0-3.3l-6.6-3.8c-1.8-0.9-3.9-0.9-5.6,0
			l-6.3,3.7C376.2,282.1,376.2,283.5,377.8,284.4z"/>
		<path class="st3" d="M595.5,361.9l-7.9-4.6c-1.8-0.9-3.9-0.9-5.6,0l-6.4,3.7c-1.5,0.9-1.5,2.4,0,3.2l7.9,4.6
			c1.8,0.9,3.9,0.9,5.6,0l6.4-3.7C597.1,364.3,597.1,362.8,595.5,361.9z"/>
		<path class="st3" d="M581.1,370.3l-7.9-4.6c-1.8-0.9-3.9-0.9-5.6,0l-7.2,4.2c-1.5,0.9-1.5,2.4,0,3.3l7.9,4.6
			c1.8,0.9,3.9,0.9,5.6,0l7.2-4.2C582.7,372.7,582.7,371.2,581.1,370.3z"/>
		<path class="st3" d="M490,301l-5.6-3.2c-1.8-0.9-3.9-0.9-5.6,0l-6.4,3.7c-1.5,0.9-1.5,2.4,0,3.2l5.6,3.2c1.8,0.9,3.9,0.9,5.6,0
			l6.4-3.7C491.6,303.4,491.6,301.9,490,301z"/>
		<path class="st3" d="M604.8,356.6l-7.9-4.6c-1.8-0.9-3.9-0.9-5.6,0l-1,0.6c-1.5,0.9-1.5,2.4,0,3.3l7.9,4.6c1.8,0.9,3.9,0.9,5.6,0
			l1-0.6C606.4,358.9,606.4,357.5,604.8,356.6z"/>
		<path class="st3" d="M560.4,338.6l7.2,4.2c1.8,0.9,3.9,0.9,5.6,0l1-0.6c1.5-0.9,1.5-2.4,0-3.3l-7.2-4.2c-1.8-0.9-3.9-0.9-5.6,0
			l-1,0.6C558.9,336.3,558.9,337.7,560.4,338.6z"/>
		<path class="st3" d="M575.8,347.5l6.4,3.7c1.8,0.9,3.9,0.9,5.6,0l1-0.6c1.5-0.9,1.5-2.4,0-3.3l-6.4-3.7c-1.8-0.9-3.9-0.9-5.6,0
			l-1,0.6C574.2,345.1,574.2,346.6,575.8,347.5z"/>
		<path class="st3" d="M573.2,359.6l6.4-3.7c1.5-0.9,1.5-2.4,0-3.2l-21.7-12.5c-1.8-0.9-3.9-0.9-5.6,0l-6.4,3.7
			c-1.5,0.9-1.5,2.4,0,3.3l21.7,12.5C569.3,360.6,571.4,360.5,573.2,359.6z"/>
		<path class="st3" d="M545.4,330l6.9,4c1.8,0.9,3.9,0.9,5.6,0l1-0.6c1.5-0.9,1.5-2.4,0-3.3l-6.9-4c-1.8-0.9-3.9-0.9-5.6,0l-1,0.6
			C543.8,327.6,543.8,329.1,545.4,330z"/>
		<path class="st3" d="M530.6,321.4l6.6,3.8c1.8,0.9,3.9,0.9,5.6,0l1-0.6c1.5-0.9,1.5-2.4,0-3.3l-6.6-3.8c-1.8-0.9-3.9-0.9-5.6,0
			l-1,0.6C529,319.1,529.1,320.5,530.6,321.4z"/>
		<path class="st3" d="M516.1,313.1l6.4,3.7c1.8,0.9,3.9,0.9,5.6,0l1-0.6c1.5-0.9,1.5-2.4,0-3.3l-6.4-3.7c-1.8-0.9-3.9-0.9-5.6,0
			l-1,0.6C514.6,310.7,514.6,312.2,516.1,313.1z"/>
		<path class="st3" d="M519.9,318.2l-6.4-3.7c-1.8-0.9-3.9-0.9-5.6,0l-6.4,3.7c-1.5,0.9-1.5,2.4,0,3.3l6.4,3.7
			c1.8,0.9,3.9,0.9,5.6,0l6.4-3.7C521.5,320.6,521.4,319.1,519.9,318.2z"/>
		<path class="st3" d="M534.7,326.8l-6.7-3.8c-1.8-0.9-3.9-0.9-5.6,0l-6.4,3.7c-1.5,0.9-1.5,2.4,0,3.3l6.6,3.8
			c1.8,0.9,3.9,0.9,5.6,0l6.4-3.7C536.2,329.1,536.2,327.7,534.7,326.8z"/>
		<path class="st3" d="M543.3,342.4l6.4-3.7c1.5-0.9,1.5-2.4,0-3.2l-6.9-4c-1.8-0.9-3.9-0.9-5.6,0l-6.4,3.7c-1.5,0.9-1.5,2.4,0,3.3
			l6.9,4C539.5,343.3,541.6,343.3,543.3,342.4z"/>
		<path class="st3" d="M472.3,287.8l6.7,3.8c1.8,0.9,3.9,0.9,5.6,0l1-0.6c1.5-0.9,1.5-2.4,0-3.3l-6.7-3.8c-1.8-0.9-3.9-0.9-5.6,0
			l-1,0.6C470.7,285.4,470.8,286.9,472.3,287.8z"/>
		<path class="st3" d="M536.8,396.1l-7.9-4.5c-1.8-0.9-3.9-0.9-5.6,0l-6.6,3.8c-1.5,0.9-1.5,2.4,0,3.3l7.9,4.5
			c1.8,0.9,3.9,0.9,5.6,0l6.6-3.8C538.3,398.5,538.3,397,536.8,396.1z"/>
		<path class="st9" d="M505.5,378.1l-7.2-4.2c-1.8-0.9-3.9-0.9-5.6,0l-6.6,3.8c-1.5,0.9-1.5,2.4,0,3.3l7.2,4.2
			c1.8,0.9,3.9,0.9,5.6,0l6.6-3.8C507.1,380.4,507.1,379,505.5,378.1z"/>
		<path class="st9" d="M516.2,381.3l7.1,4.1c1.8,0.9,3.9,0.9,5.6,0l6.6-3.8c1.5-0.9,1.5-2.4,0-3.3l-7.1-4.1c-1.8-0.9-3.9-0.9-5.6,0
			l-6.6,3.8C514.6,379,514.6,380.4,516.2,381.3z"/>
		<path class="st9" d="M520.8,386.8l-7.1-4.1c-1.8-0.9-3.9-0.9-5.6,0l-6.6,3.8c-1.5,0.9-1.5,2.4,0,3.3l7.1,4.1
			c1.8,0.9,3.9,0.9,5.6,0l6.6-3.8C522.3,389.2,522.3,387.7,520.8,386.8z"/>
		<path class="st9" d="M486.9,364.5l21.1,12.2c1.8,0.9,3.9,0.9,5.6,0l6.6-3.8c1.5-0.9,1.5-2.4,0-3.3l-21.1-12.2
			c-1.8-0.9-3.9-0.9-5.6,0l-6.6,3.8C485.4,362.1,485.4,363.5,486.9,364.5z"/>
		<path class="st9" d="M472.4,356.1l6.4,3.7c1.8,0.9,3.9,0.9,5.6,0l6.6-3.8c1.5-0.9,1.5-2.4,0-3.3l-6.4-3.7c-1.8-0.9-3.9-0.9-5.6,0
			l-6.6,3.8C470.9,353.7,470.9,355.2,472.4,356.1z"/>
		<path class="st9" d="M490.2,332.6l6.4,3.7c1.8,0.9,3.9,0.9,5.6,0l7.2-4.2c1.5-0.9,1.5-2.4,0-3.2l-6.4-3.7c-1.8-0.9-3.9-0.9-5.6,0
			l-7.1,4.1C488.6,330.3,488.6,331.7,490.2,332.6z"/>
		<path class="st9" d="M524.1,340.7c1.5-0.9,1.5-2.4,0-3.3l-6.6-3.8c-1.8-0.9-3.9-0.9-5.6,0l-7.2,4.2c-1.5,0.9-1.5,2.4,0,3.3
			l6.6,3.8c1.8,0.9,3.9,0.9,5.6,0L524.1,340.7z"/>
		<path class="st9" d="M487.1,296.3l5.6,3.2c1.8,0.9,3.9,0.9,5.6,0l1-0.6c1.5-0.9,1.5-2.4,0-3.3l-5.6-3.2c-1.8-0.9-3.9-0.9-5.6,0
			l-1,0.6C485.5,293.9,485.5,295.4,487.1,296.3z"/>
		<path class="st9" d="M500.8,304.2l7.2,4.2c1.8,0.9,3.9,0.9,5.6,0l1-0.6c1.5-0.9,1.5-2.4,0-3.3l-7.2-4.2c-1.8-0.9-3.9-0.9-5.6,0
			l-1,0.6C499.2,301.8,499.2,303.3,500.8,304.2z"/>
		<path class="st9" d="M505.4,309.9l-7.2-4.2c-1.8-0.9-3.9-0.9-5.6,0l-6.4,3.7c-1.5,0.9-1.5,2.4,0,3.3l7.2,4.2
			c1.8,0.9,3.9,0.9,5.6,0l6.4-3.7C506.9,312.2,506.9,310.8,505.4,309.9z"/>
		<path class="st9" d="M461.6,284.6l-6.4-3.7c-1.8-0.9-3.9-0.9-5.6,0l-6.4,3.7c-1.5,0.9-1.5,2.4,0,3.3l6.4,3.7
			c1.8,0.9,3.9,0.9,5.6,0l6.4-3.7C463.1,287,463.1,285.5,461.6,284.6z"/>
		<path class="st9" d="M476.4,293.1l-6.6-3.8c-1.8-0.9-3.9-0.9-5.6,0l-6.4,3.7c-1.5,0.9-1.5,2.4,0,3.3l6.6,3.8
			c1.8,0.9,3.9,0.9,5.6,0l6.4-3.7C477.9,295.5,477.9,294,476.4,293.1z"/>
		<path class="st9" d="M391.7,261l-6.4-3.7c-1.8-0.9-3.9-0.9-5.6,0l-7.2,4.2c-1.5,0.9-1.5,2.4,0,3.3l6.4,3.7c1.8,0.9,3.9,0.9,5.6,0
			l7.1-4.2C393.3,263.4,393.2,261.9,391.7,261z"/>
		<path class="st9" d="M402.3,250.4l-6.4-3.7c-1.8-0.9-3.9-0.9-5.6,0l-6.4,3.7c-1.5,0.9-1.5,2.4,0,3.3l6.4,3.7
			c1.8,0.9,3.9,0.9,5.6,0l6.4-3.7C403.9,252.7,403.8,251.2,402.3,250.4z"/>
		<path class="st9" d="M398.5,245.2l6.4,3.7c1.8,0.9,3.9,0.9,5.6,0l1-0.6c1.5-0.9,1.5-2.4,0-3.3l-6.4-3.7c-1.8-0.9-3.9-0.9-5.6,0
			l-1,0.6C397,242.8,397,244.3,398.5,245.2z"/>
		<path class="st9" d="M413,253.5l6.6,3.8c1.8,0.9,3.9,0.9,5.6,0l1-0.6c1.5-0.9,1.5-2.4,0-3.3l-6.6-3.8c-1.8-0.9-3.9-0.9-5.6,0
			l-1,0.6C411.5,251.2,411.5,252.6,413,253.5z"/>
		<path class="st9" d="M457.8,279.4l6.4,3.7c1.8,0.9,3.9,0.9,5.6,0l1-0.6c1.5-0.9,1.5-2.4,0-3.3l-6.4-3.7c-1.8-0.9-3.9-0.9-5.6,0
			l-1,0.6C456.2,277,456.2,278.5,457.8,279.4z"/>
		<path class="st9" d="M427.8,262.1l6.5,3.8c1.8,0.9,3.9,0.9,5.6,0l1-0.6c1.5-0.9,1.5-2.4,0-3.3l-6.5-3.8c-1.8-0.9-3.9-0.9-5.6,0
			l-1,0.6C426.2,259.7,426.2,261.2,427.8,262.1z"/>
		<path class="st9" d="M417.1,258.9l-6.6-3.8c-1.8-0.9-3.9-0.9-5.6,0l-6.4,3.7c-1.5,0.9-1.5,2.4,0,3.2l6.6,3.8
			c1.8,0.9,3.9,0.9,5.6,0l6.4-3.7C418.6,261.2,418.6,259.8,417.1,258.9z"/>
		<path class="st9" d="M431.7,267.4l-6.5-3.8c-1.8-0.9-3.9-0.9-5.6,0l-6.4,3.7c-1.5,0.9-1.5,2.4,0,3.3l6.5,3.8
			c1.8,0.9,3.9,0.9,5.6,0l6.4-3.7C433.3,269.7,433.3,268.3,431.7,267.4z"/>
		<path class="st9" d="M442.5,270.5l7.2,4.1c1.8,0.9,3.9,0.9,5.6,0l1-0.6c1.5-0.9,1.5-2.4,0-3.3l-7.2-4.1c-1.8-0.9-3.9-0.9-5.6,0
			l-1,0.6C440.9,268.2,440.9,269.6,442.5,270.5z"/>
		<path class="st9" d="M447.1,276.2l-7.2-4.1c-1.8-0.9-3.9-0.9-5.6,0l-6.4,3.7c-1.5,0.9-1.5,2.4,0,3.3l7.2,4.2
			c1.8,0.9,3.9,0.9,5.6,0l6.4-3.7C448.6,278.6,448.6,277.1,447.1,276.2z"/>
		<path class="st9" d="M348,264c-1.5,0.9-1.5,2.4,0,3.3l7.2,4.1c1.8,0.9,3.9,0.9,5.6,0l6.3-3.7c1.5-0.9,1.5-2.4,0-3.3l-7.2-4.2
			c-1.8-0.9-3.9-0.9-5.6,0L348,264z"/>
		<path class="st9" d="M381.6,276.1c1.5-0.9,1.5-2.4,0-3.3l-6.4-3.7c-1.8-0.9-3.9-0.9-5.6,0l-6.3,3.7c-1.5,0.9-1.5,2.4,0,3.3
			l6.4,3.7c1.8,0.9,3.9,0.9,5.6,0L381.6,276.1z"/>
		<path class="st9" d="M406.5,269.5l-6.6-3.8c-1.8-0.9-3.9-0.9-5.6,0l-7.2,4.2c-1.5,0.9-1.5,2.4,0,3.3l6.6,3.8
			c1.8,0.9,3.9,0.9,5.6,0l7.1-4.2C408,271.9,408,270.4,406.5,269.5z"/>
		<path class="st9" d="M421.2,278l-6.5-3.8c-1.8-0.9-3.9-0.9-5.6,0l-7.1,4.1c-1.5,0.9-1.5,2.4,0,3.3l6.5,3.8c1.8,0.9,3.9,0.9,5.6,0
			l7.2-4.2C422.7,280.4,422.7,278.9,421.2,278z"/>
		<path class="st9" d="M436.5,286.9l-7.2-4.2c-1.8-0.9-3.9-0.9-5.6,0l-7.2,4.2c-1.5,0.9-1.5,2.4,0,3.3l7.2,4.2
			c1.8,0.9,3.9,0.9,5.6,0l7.1-4.2C438,289.2,438,287.7,436.5,286.9z"/>
		<path class="st9" d="M392.6,293l6.5,3.8c1.8,0.9,3.9,0.9,5.6,0l6.3-3.7c1.5-0.9,1.5-2.4,0-3.3l-6.6-3.8c-1.8-0.9-3.9-0.9-5.6,0
			l-6.3,3.7C391,290.6,391,292.1,392.6,293z"/>
		<path class="st9" d="M451,295.2l-6.4-3.7c-1.8-0.9-3.9-0.9-5.6,0l-7.1,4.2c-1.5,0.9-1.5,2.4,0,3.3l6.4,3.7c1.8,0.9,3.9,0.9,5.6,0
			l7.2-4.2C452.5,297.6,452.5,296.1,451,295.2z"/>
		<path class="st9" d="M407.3,301.5l7.2,4.1c1.8,0.9,3.9,0.9,5.6,0l6.3-3.7c1.5-0.9,1.5-2.4,0-3.3l-7.2-4.2c-1.8-0.9-3.9-0.9-5.6,0
			l-6.3,3.7C405.7,299.1,405.7,300.5,407.3,301.5z"/>
		<path class="st9" d="M384.1,305.1l6.5,3.8c1.8,0.9,3.9,0.9,5.6,0l6.6-3.8c1.5-0.9,1.5-2.4,0-3.3l-6.6-3.8c-1.8-0.9-3.9-0.9-5.6,0
			l-6.6,3.8C382.5,302.7,382.6,304.2,384.1,305.1z"/>
		<path class="st9" d="M356.9,306.4l6.5,3.8c1.8,0.9,3.9,0.9,5.6,0l6.6-3.8c1.5-0.9,1.5-2.4,0-3.2l-6.5-3.8c-1.8-0.9-3.9-0.9-5.6,0
			l-6.6,3.8C355.3,304,355.3,305.5,356.9,306.4z"/>
		<path class="st9" d="M465.8,303.8l-6.6-3.8c-1.8-0.9-3.9-0.9-5.6,0l-7.1,4.2c-1.5,0.9-1.5,2.4,0,3.3l6.6,3.8
			c1.8,0.9,3.9,0.9,5.6,0l7.1-4.2C467.3,306.1,467.3,304.6,465.8,303.8z"/>
		<path class="st9" d="M422.6,310.3l6.4,3.7c1.8,0.9,3.9,0.9,5.6,0l6.3-3.7c1.5-0.9,1.5-2.4,0-3.3l-6.4-3.7c-1.8-0.9-3.9-0.9-5.6,0
			l-6.4,3.6C421,307.9,421,309.4,422.6,310.3z"/>
		<path class="st9" d="M398.8,313.6l7.2,4.2c1.8,0.9,3.9,0.9,5.6,0l6.6-3.8c1.5-0.9,1.5-2.4,0-3.3l-7.2-4.1c-1.8-0.9-3.9-0.9-5.6,0
			l-6.6,3.8C397.2,311.2,397.2,312.7,398.8,313.6z"/>
		<path class="st9" d="M479.5,311.7l-5.6-3.2c-1.8-0.9-3.9-0.9-5.6,0l-7.1,4.1c-1.5,0.9-1.5,2.4,0,3.3l5.6,3.2
			c1.8,0.9,3.9,0.9,5.6,0l7.2-4.2C481,314,481,312.6,479.5,311.7z"/>
		<path class="st9" d="M437.1,318.7l6.6,3.8c1.8,0.9,3.9,0.9,5.6,0l6.3-3.7c1.5-0.9,1.5-2.4,0-3.3l-6.7-3.8c-1.8-0.9-3.9-0.9-5.6,0
			l-6.3,3.7C435.5,316.3,435.5,317.8,437.1,318.7z"/>
		<path class="st9" d="M414.1,322.4l6.4,3.7c1.8,0.9,3.9,0.9,5.6,0l6.6-3.8c1.5-0.9,1.5-2.4,0-3.3l-6.4-3.7c-1.8-0.9-3.9-0.9-5.6,0
			l-6.6,3.8C412.5,320,412.6,321.5,414.1,322.4z"/>
		<path class="st9" d="M494.8,320.5l-7.2-4.1c-1.8-0.9-3.9-0.9-5.6,0l-7.1,4.1c-1.5,0.9-1.5,2.4,0,3.3l7.2,4.1
			c1.8,0.9,3.9,0.9,5.6,0l7.1-4.2C496.4,322.9,496.4,321.4,494.8,320.5z"/>
		<path class="st9" d="M451.9,327.2l5.6,3.2c1.8,0.9,3.9,0.9,5.6,0l6.3-3.7c1.5-0.9,1.5-2.4,0-3.3l-5.6-3.2c-1.8-0.9-3.9-0.9-5.6,0
			l-6.3,3.7C450.3,324.8,450.3,326.3,451.9,327.2z"/>
		<path class="st9" d="M428.6,330.8l6.6,3.8c1.8,0.9,3.9,0.9,5.6,0l6.6-3.8c1.5-0.9,1.5-2.4,0-3.2l-6.6-3.8c-1.8-0.9-3.9-0.9-5.6,0
			l-6.6,3.8C427.1,328.4,427.1,329.9,428.6,330.8z"/>
		<path class="st9" d="M465.6,335.1l7.2,4.1c1.8,0.9,3.9,0.9,5.6,0l6.3-3.7c1.5-0.9,1.5-2.4,0-3.3l-7.2-4.1c-1.8-0.9-3.9-0.9-5.6,0
			l-6.3,3.7C464,332.8,464,334.2,465.6,335.1z"/>
		<path class="st9" d="M443.4,339.3l5.6,3.2c1.8,0.9,3.9,0.9,5.6,0l6.6-3.8c1.5-0.9,1.5-2.4,0-3.2l-5.6-3.2c-1.8-0.9-3.9-0.9-5.6,0
			l-6.6,3.8C441.8,337,441.8,338.4,443.4,339.3z"/>
		<path class="st9" d="M480.9,344l6.4,3.7c1.8,0.9,3.9,0.9,5.6,0l6.3-3.7c1.5-0.9,1.5-2.4,0-3.3l-6.4-3.7c-1.8-0.9-3.9-0.9-5.6,0
			l-6.3,3.7C479.4,341.6,479.4,343.1,480.9,344z"/>
		<path class="st9" d="M457.1,347.2l7.2,4.2c1.8,0.9,3.9,0.9,5.6,0l6.6-3.8c1.5-0.9,1.5-2.4,0-3.3l-7.2-4.2c-1.8-0.9-3.9-0.9-5.6,0
			l-6.6,3.8C455.5,344.9,455.5,346.3,457.1,347.2z"/>
		<path class="st9" d="M461.8,352.8l-78.1-45.1c-1.8-0.9-3.9-0.9-5.6,0l-6.6,3.8c-1.5,0.9-1.5,2.4,0,3.3l78.1,45.1
			c1.8,0.9,3.9,0.9,5.6,0l6.6-3.8C463.4,355.2,463.4,353.7,461.8,352.8z"/>
		<path class="st9" d="M476.3,361.2l-6.3-3.7c-1.8-0.9-3.9-0.9-5.6,0l-6.6,3.8c-1.5,0.9-1.5,2.4,0,3.3l6.4,3.7
			c1.8,0.9,3.9,0.9,5.6,0l6.6-3.8C477.9,363.5,477.9,362.1,476.3,361.2z"/>
		<path class="st9" d="M490.2,369.2l-5.7-3.3c-1.8-0.9-3.9-0.9-5.6,0l-6.6,3.8c-1.5,0.9-1.5,2.4,0,3.3l5.7,3.3
			c1.8,0.9,3.9,0.9,5.6,0l6.6-3.8C491.7,371.5,491.7,370.1,490.2,369.2z"/>
		<path class="st9" d="M342.1,297.8l6.6,3.8c1.8,0.9,3.9,0.9,5.6,0l6.6-3.8c1.5-0.9,1.5-2.4,0-3.3l-6.6-3.8c-1.8-0.9-3.9-0.9-5.6,0
			l-6.6,3.8C340.6,295.5,340.6,296.9,342.1,297.8z"/>
		<path class="st9" d="M327.6,289.4l6.4,3.7c1.8,0.9,3.9,0.9,5.6,0l6.6-3.8c1.5-0.9,1.5-2.4,0-3.3l-6.4-3.7c-1.8-0.9-3.9-0.9-5.6,0
			l-6.6,3.8C326,287.1,326,288.5,327.6,289.4z"/>
		<path class="st9" d="M331.7,277.7l-7.2-4.2c-1.8-0.9-3.9-0.9-5.6,0l-6.6,3.8c-1.5,0.9-1.5,2.4,0,3.3l7.2,4.2
			c1.8,0.9,3.9,0.9,5.6,0l6.6-3.8C333.2,280,333.2,278.6,331.7,277.7z"/>
		<path class="st9" d="M565.9,379.2l-7.9-4.6c-1.8-0.9-3.9-0.9-5.6,0l-6.3,3.7c-1.5,0.9-1.5,2.4,0,3.3l7.9,4.6
			c1.8,0.9,3.9,0.9,5.6,0l6.3-3.7C567.4,381.6,567.4,380.1,565.9,379.2z"/>
		<path class="st9" d="M551.5,387.6l-7.9-4.6c-1.8-0.9-3.9-0.9-5.6,0l-6.6,3.8c-1.5,0.9-1.5,2.4,0,3.3l7.9,4.6
			c1.8,0.9,3.9,0.9,5.6,0l6.6-3.8C553,389.9,553,388.5,551.5,387.6z"/>
		<path class="st9" d="M381.6,300.4l6.6-3.8c1.5-0.9,1.5-2.4,0-3.3l-6.6-3.8c-1.8-0.9-3.9-0.9-5.6,0l-6.6,3.8
			c-1.5,0.9-1.5,2.4,0,3.3l6.6,3.8C377.7,301.3,379.8,301.3,381.6,300.4z"/>
		<path class="st9" d="M383.2,236.3l7.2,4.1c1.8,0.9,3.9,0.9,5.6,0l1-0.6c1.5-0.9,1.5-2.4,0-3.3l-7.2-4.1c-1.8-0.9-3.9-0.9-5.6,0
			l-1,0.6C381.6,234,381.6,235.4,383.2,236.3z"/>
		<path class="st9" d="M367.3,227.1l7.8,4.5c1.8,0.9,3.9,0.9,5.6,0l1-0.6c1.5-0.9,1.5-2.4,0-3.3l-7.8-4.5c-1.8-0.9-3.9-0.9-5.6,0
			l-1,0.6C365.7,224.8,365.7,226.2,367.3,227.1z"/>
		<path class="st9" d="M352.7,235.6l7.8,4.5c1.8,0.9,3.9,0.9,5.6,0l6.4-3.7c1.5-0.9,1.5-2.4,0-3.3l-7.8-4.5c-1.8-0.9-3.9-0.9-5.6,0
			l-6.4,3.7C351.1,233.2,351.1,234.7,352.7,235.6z"/>
		<path class="st9" d="M387.8,242l-7.2-4.1c-1.8-0.9-3.9-0.9-5.6,0l-6.4,3.7c-1.5,0.9-1.5,2.4,0,3.3l7.2,4.2c1.8,0.9,3.9,0.9,5.6,0
			l6.4-3.7C389.4,244.4,389.3,242.9,387.8,242z"/>
		<path class="st9" d="M337.4,244.4l11.7,6.7c1.8,0.9,3.9,0.9,5.6,0l7.2-4.2c1.5-0.9,1.5-2.4,0-3.3l-11.7-6.7
			c-1.8-0.9-3.9-0.9-5.6,0l-7.1,4.2C335.9,242.1,335.9,243.6,337.4,244.4z"/>
		<path class="st9" d="M364.4,248.5l-7.2,4.2c-1.5,0.9-1.5,2.4,0,3.3l7.2,4.2c1.8,0.9,3.9,0.9,5.6,0l7.2-4.2c1.5-0.9,1.5-2.4,0-3.3
			l-7.2-4.1C368.2,247.6,366.2,247.6,364.4,248.5z"/>
		<path class="st9" d="M323,252.8l16.8,9.7c1.8,0.9,3.9,0.9,5.6,0l6.3-3.7c1.5-0.9,1.5-2.4,0-3.3l-16.8-9.7c-1.8-0.9-3.9-0.9-5.6,0
			l-6.4,3.7C321.5,250.5,321.5,251.9,323,252.8z"/>
		<path class="st9" d="M309.8,275.9l6.6-3.8c1.5-0.9,1.5-2.4,0-3.2l-10.4-6c-1.8-0.9-3.9-0.9-5.6,0l-6.6,3.8c-1.5,0.9-1.5,2.4,0,3.3
			l10.5,6C305.9,276.8,308,276.8,309.8,275.9z"/>
		<path class="st9" d="M308.4,261.4l23,13.3c1.8,0.9,3.9,0.9,5.6,0l6.6-3.8c1.5-0.9,1.5-2.4,0-3.3l-23-13.3c-1.8-0.9-3.9-0.9-5.6,0
			l-6.6,3.8C306.8,259,306.8,260.5,308.4,261.4z"/>
		<path class="st9" d="M339.5,276.1c-1.5,0.9-1.5,2.4,0,3.2l7.2,4.2c1.8,0.9,3.9,0.9,5.6,0l6.6-3.8c1.5-0.9,1.5-2.4,0-3.3l-7.2-4.2
			c-1.8-0.9-3.9-0.9-5.6,0L339.5,276.1z"/>
		<path class="st9" d="M367,281.1c-1.8-0.9-3.9-0.9-5.6,0l-6.6,3.8c-1.5,0.9-1.5,2.4,0,3.3l6.4,3.7c1.8,0.9,3.9,0.9,5.6,0l6.6-3.8
			c1.5-0.9,1.5-2.4,0-3.2L367,281.1z"/>
		<path class="st9" d="M557.9,368.5l7.2-4.2c1.5-0.9,1.5-2.4,0-3.3l-17.9-10.3c-1.8-0.9-3.9-0.9-5.6,0l-7.2,4.2
			c-1.5,0.9-1.5,2.4,0,3.3l17.8,10.2C554.1,369.4,556.2,369.4,557.9,368.5z"/>
		<path class="st9" d="M519.4,349.5l6.9,4c1.8,0.9,3.9,0.9,5.6,0l7.2-4.2c1.5-0.9,1.5-2.4,0-3.3l-6.9-4c-1.8-0.9-3.9-0.9-5.6,0
			l-7.2,4.2C517.9,347.2,517.9,348.6,519.4,349.5z"/>
		<path class="st9" d="M543.5,376.9l6.3-3.7c1.5-0.9,1.5-2.4,0-3.3l-27.7-16c-1.8-0.9-3.9-0.9-5.6,0l-6.3,3.7
			c-1.5,0.9-1.5,2.4,0,3.3l27.7,16C539.7,377.8,541.8,377.8,543.5,376.9z"/>
		<path class="st9" d="M495.4,352.3l6.6,3.8c1.8,0.9,3.9,0.9,5.6,0l6.3-3.7c1.5-0.9,1.5-2.4,0-3.3l-6.6-3.8c-1.8-0.9-3.9-0.9-5.6,0
			l-6.3,3.7C493.8,350,493.9,351.4,495.4,352.3z"/>
		<path class="st9" d="M377.8,284.4l6.6,3.8c1.8,0.9,3.9,0.9,5.6,0l6.3-3.7c1.5-0.9,1.5-2.4,0-3.3l-6.6-3.8c-1.8-0.9-3.9-0.9-5.6,0
			l-6.3,3.7C376.2,282.1,376.2,283.5,377.8,284.4z"/>
		<path class="st9" d="M595.5,361.9l-7.9-4.6c-1.8-0.9-3.9-0.9-5.6,0l-6.4,3.7c-1.5,0.9-1.5,2.4,0,3.2l7.9,4.6
			c1.8,0.9,3.9,0.9,5.6,0l6.4-3.7C597.1,364.3,597.1,362.8,595.5,361.9z"/>
		<path class="st9" d="M581.1,370.3l-7.9-4.6c-1.8-0.9-3.9-0.9-5.6,0l-7.2,4.2c-1.5,0.9-1.5,2.4,0,3.3l7.9,4.6
			c1.8,0.9,3.9,0.9,5.6,0l7.2-4.2C582.7,372.7,582.7,371.2,581.1,370.3z"/>
		<path class="st9" d="M490,301l-5.6-3.2c-1.8-0.9-3.9-0.9-5.6,0l-6.4,3.7c-1.5,0.9-1.5,2.4,0,3.2l5.6,3.2c1.8,0.9,3.9,0.9,5.6,0
			l6.4-3.7C491.6,303.4,491.6,301.9,490,301z"/>
		<path class="st9" d="M604.8,356.6l-7.9-4.6c-1.8-0.9-3.9-0.9-5.6,0l-1,0.6c-1.5,0.9-1.5,2.4,0,3.3l7.9,4.6c1.8,0.9,3.9,0.9,5.6,0
			l1-0.6C606.4,358.9,606.4,357.5,604.8,356.6z"/>
		<path class="st9" d="M560.4,338.6l7.2,4.2c1.8,0.9,3.9,0.9,5.6,0l1-0.6c1.5-0.9,1.5-2.4,0-3.3l-7.2-4.2c-1.8-0.9-3.9-0.9-5.6,0
			l-1,0.6C558.9,336.3,558.9,337.7,560.4,338.6z"/>
		<path class="st9" d="M575.8,347.5l6.4,3.7c1.8,0.9,3.9,0.9,5.6,0l1-0.6c1.5-0.9,1.5-2.4,0-3.3l-6.4-3.7c-1.8-0.9-3.9-0.9-5.6,0
			l-1,0.6C574.2,345.1,574.2,346.6,575.8,347.5z"/>
		<path class="st9" d="M573.2,359.6l6.4-3.7c1.5-0.9,1.5-2.4,0-3.2l-21.7-12.5c-1.8-0.9-3.9-0.9-5.6,0l-6.4,3.7
			c-1.5,0.9-1.5,2.4,0,3.3l21.7,12.5C569.3,360.6,571.4,360.5,573.2,359.6z"/>
		<path class="st9" d="M545.4,330l6.9,4c1.8,0.9,3.9,0.9,5.6,0l1-0.6c1.5-0.9,1.5-2.4,0-3.3l-6.9-4c-1.8-0.9-3.9-0.9-5.6,0l-1,0.6
			C543.8,327.6,543.8,329.1,545.4,330z"/>
		<path class="st9" d="M530.6,321.4l6.6,3.8c1.8,0.9,3.9,0.9,5.6,0l1-0.6c1.5-0.9,1.5-2.4,0-3.3l-6.6-3.8c-1.8-0.9-3.9-0.9-5.6,0
			l-1,0.6C529,319.1,529.1,320.5,530.6,321.4z"/>
		<path class="st9" d="M516.1,313.1l6.4,3.7c1.8,0.9,3.9,0.9,5.6,0l1-0.6c1.5-0.9,1.5-2.4,0-3.3l-6.4-3.7c-1.8-0.9-3.9-0.9-5.6,0
			l-1,0.6C514.6,310.7,514.6,312.2,516.1,313.1z"/>
		<path class="st9" d="M519.9,318.2l-6.4-3.7c-1.8-0.9-3.9-0.9-5.6,0l-6.4,3.7c-1.5,0.9-1.5,2.4,0,3.3l6.4,3.7
			c1.8,0.9,3.9,0.9,5.6,0l6.4-3.7C521.5,320.6,521.4,319.1,519.9,318.2z"/>
		<path class="st9" d="M534.7,326.8l-6.7-3.8c-1.8-0.9-3.9-0.9-5.6,0l-6.4,3.7c-1.5,0.9-1.5,2.4,0,3.3l6.6,3.8
			c1.8,0.9,3.9,0.9,5.6,0l6.4-3.7C536.2,329.1,536.2,327.7,534.7,326.8z"/>
		<path class="st9" d="M543.3,342.4l6.4-3.7c1.5-0.9,1.5-2.4,0-3.2l-6.9-4c-1.8-0.9-3.9-0.9-5.6,0l-6.4,3.7c-1.5,0.9-1.5,2.4,0,3.3
			l6.9,4C539.5,343.3,541.6,343.3,543.3,342.4z"/>
		<path class="st9" d="M472.3,287.8l6.7,3.8c1.8,0.9,3.9,0.9,5.6,0l1-0.6c1.5-0.9,1.5-2.4,0-3.3l-6.7-3.8c-1.8-0.9-3.9-0.9-5.6,0
			l-1,0.6C470.7,285.4,470.8,286.9,472.3,287.8z"/>
		<path class="st9" d="M536.8,396.1l-7.9-4.5c-1.8-0.9-3.9-0.9-5.6,0l-6.6,3.8c-1.5,0.9-1.5,2.4,0,3.3l7.9,4.5
			c1.8,0.9,3.9,0.9,5.6,0l6.6-3.8C538.3,398.5,538.3,397,536.8,396.1z"/>
		<path class="st8" d="M644.1,364c-0.3-0.6-0.7-1.1-1.2-1.5c-1.2-1-2.8-1.5-4.4-1.3c-1.5,0.1-2.9,0.5-4.2,1.2
			c-0.4,0.2-0.4,0.2-7.9,4.5l-14,8.1l-19.2,11.2l-22.7,13.2l-24.2,14.1l-24,14l-22,12.8c-6.8,3.9-12.9,7.5-18.1,10.5l-12.4,7.2
			c-5.1,3-5.1,3-5.6,3.3s-1.5,1.1-2.6,1.9c-4.6,3.6-11.1,9.6-14.6,12.9c-1.4,1.4-1.3,2.3-1,2.8c0.1,0.2,0.3,0.4,0.5,0.5
			c0.6,0.3,1.3,0.3,2,0.1c0.3-0.1,0.7-0.2,1-0.3l2.5-0.8l2.2-0.7c4.7-1.5,7.7-2.6,8-2.7c3-1,5.9-2.2,8.7-3.6h0.1
			c11.8-6.9,23.7-13.7,35.5-20.6l92.9-54l19.2-11.2l14-8.1c7.1-4.1,7.1-4.1,7.7-4.5c0.7-0.4,1.3-1,1.9-1.5c1.5-1.4,2.4-3.2,2.5-5.2
			C644.6,365.4,644.4,364.7,644.1,364z"/>
		<path class="st9" d="M465.5,460.3c1.1,0.6,2.2,1.4,3,2.3c2,2.2,3.1,5.1,3.1,8.1"/>
		<path class="st9" d="M625,381.6c-0.3-3-1.5-5.8-3.5-8c-0.8-0.9-1.8-1.7-2.8-2.3 M615.2,373.4c1.6,0.3,3,1.1,4,2.4
			c1.9,2.1,2.9,4.9,2.6,7.8"/>
		<path class="st3" d="M375.6,110.3c0,3.7-1.3,7.3-3.5,10.3c-2.9,3.9-6.6,7-10.9,9.2c-18.6,10.4-48.2,10.1-66-0.7
			c-3.7-2.1-6.9-4.9-9.5-8.3l0,0c-2.2-3-3.5-6.6-3.5-10.3c0-4.6,0-9.1,0-13.7c0,6.7,4.3,13.4,13,18.7c17.8,10.7,47.4,11,66,0.7
			c9.6-5.3,14.4-12.4,14.4-19.5C375.6,101.2,375.6,105.8,375.6,110.3z"/>
		<path class="st3" d="M375.6,96.6L375.6,96.6c0,7.2-4.8,14.3-14.4,19.6c-18.6,10.4-48.2,10.1-66-0.7c-8.7-5.2-13-11.9-13-18.7
			c0-5.4,2.8-10.9,8.4-15.5l2.9-2.4c-11.5,9.6-10.2,22.8,4.3,31.6c16.5,9.9,43.8,10.2,61,0.6c15.6-8.7,17.5-22.5,5.5-32.4l2.9,2.4
			C372.7,85.8,375.5,91.2,375.6,96.6z"/>
		<path class="st0" d="M372.1,120.7l-9.2,55.3c-0.4,2.4-1.5,4.7-3.1,6.5c-0.4,0.5-0.8,0.9-1.2,1.4c-1.8,1.8-3.8,3.3-6,4.4
			c-13.5,7.5-35,7.3-48-0.5c-1.8-1.1-3.4-2.3-4.9-3.8l0,0c-0.4-0.4-0.8-0.9-1.2-1.4l0,0c-1.6-1.9-2.7-4.1-3.1-6.5l-9.5-55.2
			c2.6,3.4,5.8,6.2,9.5,8.3c17.8,10.7,47.4,11,66,0.7C365.5,127.7,369.2,124.5,372.1,120.7z"/>
		<path class="st3" d="M364.2,78.8c12,9.9,10.1,23.7-5.5,32.4c-17.2,9.6-44.5,9.3-61-0.6c-14.5-8.7-15.8-22-4.3-31.6
			c1.7-1.4,3.6-2.7,5.6-3.8c17.2-9.6,44.5-9.3,61,0.6C361.5,76.7,362.9,77.7,364.2,78.8z M347.8,104.6c9.5-5.3,11-13.7,4.2-19.9
			l-4.2-3.8c0,0-0.1-0.1-0.1-0.1c-0.8-0.8-1.8-1.4-2.8-2c-8.5-5.1-22.5-5.3-31.4-0.3c-1.2,0.7-2.4,1.5-3.4,2.4l-0.2,0.2l-4.1,3.8
			c-6.5,6-5.4,14,3.4,19.3C319.6,110.5,336.9,110.6,347.8,104.6z"/>
		<path class="st3" d="M358.6,183.8c-1.8,1.8-3.8,3.3-6,4.4c-13.5,7.5-35,7.3-48-0.5c-1.8-1.1-3.4-2.3-4.9-3.8l0,0
			c-0.4-0.4-0.8-0.9-1.2-1.4c1,3.5,3.7,6.8,8.2,9.5c11.9,7.1,31.6,7.4,44,0.4c5.1-2.8,8.1-6.4,9.2-10.1
			C359.4,182.9,359,183.4,358.6,183.8z"/>
		<path class="st3" d="M351.9,84.7c6.8,6.2,5.4,14.6-4.2,19.9c-10.9,6.1-28.1,5.9-38.6-0.4c-8.9-5.3-9.9-13.3-3.4-19.3l4.1-3.8
			c-5.1,4.9-4.2,11.3,3,15.6c8.5,5.1,22.5,5.2,31.4,0.3c7.7-4.3,8.9-11,3.5-16.1L351.9,84.7z"/>
		<path class="st3" d="M347.7,80.9c5.4,5,4.2,11.8-3.5,16.1c-8.8,4.9-22.9,4.8-31.4-0.3c-7.1-4.3-8.1-10.7-3-15.6l0.2-0.2
			c1-0.9,2.2-1.8,3.4-2.4c8.9-4.9,22.9-4.8,31.4,0.3c1,0.6,1.9,1.2,2.8,2C347.6,80.8,347.7,80.8,347.7,80.9z M333.4,90.5
			c2.6-1.5,2.7-3.9,0.2-5.4c-2.9-1.5-6.4-1.6-9.4-0.1c-2.6,1.5-2.7,3.9-0.2,5.4c0.7,0.4,1.5,0.7,2.4,0.9c1.6,0.4,3.3,0.4,4.9,0
			C332.1,91.1,332.8,90.8,333.4,90.5L333.4,90.5z"/>
		<path class="st3" d="M333.6,85c2.5,1.5,2.5,4-0.2,5.4c-0.7,0.4-1.4,0.6-2.1,0.8c0.1-0.1,0.3-0.1,0.4-0.2c1.6-0.9,1.7-2.4,0.1-3.4
			c-1.8-0.9-4-1-5.9-0.1c-1.6,0.9-1.7,2.4-0.1,3.4c0.2,0.1,0.4,0.2,0.6,0.3c-0.8-0.2-1.6-0.5-2.4-0.9c-2.5-1.5-2.5-4,0.2-5.4
			C327.2,83.4,330.7,83.5,333.6,85z"/>
		<path class="st3" d="M331.9,87.7c1.6,1,1.5,2.5-0.1,3.4c-0.1,0.1-0.3,0.1-0.4,0.2c-1.6,0.4-3.3,0.4-4.9,0
			c-0.2-0.1-0.4-0.2-0.6-0.3c-1.6-1-1.5-2.5,0.1-3.4C327.9,86.7,330,86.7,331.9,87.7z"/>
		<path class="st4" d="M359.8,182.5c-1,3.7-4.1,7.3-9.2,10.1c-12.4,6.9-32.1,6.7-44-0.4c-4.5-2.7-7.2-6-8.2-9.5"/>
		<path class="st4" d="M372.1,120.7l-9.2,55.3c-0.4,2.4-1.5,4.7-3.1,6.5c-0.4,0.5-0.8,0.9-1.2,1.4c-1.8,1.8-3.8,3.3-6,4.4
			c-13.5,7.5-35,7.3-48-0.5c-1.8-1.1-3.4-2.3-4.9-3.8l0,0c-0.4-0.4-0.8-0.9-1.2-1.4l0,0c-1.6-1.9-2.7-4.1-3.1-6.5l-9.5-55.2"/>
		<path class="st4" d="M375.6,96.7c0,7.1-4.8,14.2-14.4,19.5c-18.6,10.4-48.2,10.1-66-0.7c-8.7-5.2-13-11.9-13-18.7
			c0-5.4,2.8-10.9,8.4-15.5l2.9-2.4"/>
		<path class="st4" d="M364.2,78.8l2.9,2.4c5.6,4.6,8.4,10,8.4,15.4"/>
		<path class="st4" d="M364.2,78.8c-1.3-1.1-2.8-2.1-4.2-3c-16.5-9.9-43.8-10.2-61-0.6c-2,1.1-3.8,2.4-5.6,3.8
			c-11.5,9.6-10.2,22.8,4.3,31.6c16.5,9.9,43.8,10.2,61,0.6C374.3,102.5,376.3,88.7,364.2,78.8z"/>
		<path class="st4" d="M331.3,91.3c0.1-0.1,0.3-0.1,0.4-0.2c1.6-0.9,1.7-2.4,0.1-3.4c-1.8-0.9-4-1-5.9-0.1c-1.6,0.9-1.7,2.4-0.1,3.4
			c0.2,0.1,0.4,0.2,0.6,0.3"/>
		<path class="st4" d="M347.7,80.9l4.2,3.8c6.8,6.2,5.4,14.6-4.2,19.9c-10.9,6.1-28.1,5.9-38.6-0.4c-8.9-5.3-9.9-13.3-3.4-19.3
			l4.1-3.8"/>
		<path class="st4" d="M347.6,80.8c-0.8-0.8-1.8-1.4-2.8-2c-8.5-5.1-22.5-5.3-31.4-0.3c-1.2,0.7-2.4,1.5-3.4,2.4l-0.2,0.2
			c-5.1,4.9-4.2,11.3,3,15.6c8.5,5.1,22.5,5.2,31.4,0.3c7.7-4.3,8.9-11,3.5-16.1C347.7,80.9,347.7,80.8,347.6,80.8z"/>
		<path class="st4" d="M326.4,91.3c-0.8-0.2-1.6-0.5-2.4-0.9c-2.5-1.5-2.5-4,0.2-5.4c3-1.5,6.4-1.4,9.4,0.1c2.5,1.5,2.5,4-0.2,5.4
			c-0.7,0.4-1.4,0.6-2.1,0.8C329.7,91.6,328,91.6,326.4,91.3z"/>
		<path class="st4" d="M375.6,96.6L375.6,96.6c0,4.6,0,9.1,0,13.7c0,3.7-1.3,7.3-3.5,10.3c-2.9,3.9-6.6,7-10.9,9.2
			c-18.6,10.4-48.2,10.1-66-0.7c-3.7-2.1-6.9-4.9-9.5-8.3l0,0c-2.2-3-3.5-6.6-3.5-10.3c0-4.6,0-9.1,0-13.7"/>
		<path class="st7" d="M259.9,195.9V194h-0.1c-0.8-6.4-5.4-12.6-13.8-17.4c-18.5-10.7-48.4-10.7-66.8,0
			c-8.4,4.9-12.9,11.1-13.6,17.4h-0.1v1.9l0,0v43.4c0,7,4.7,14,13.9,19.4c18.5,10.7,48.4,10.7,66.8,0c9.2-5.3,13.8-12.4,13.7-19.4
			V195.9z"/>
		<polygon class="st8" points="212.4,151.2 128.3,200 212.9,248.9 297,200 		"/>
		<polygon class="st7" points="212.9,254.3 212.9,248.9 128.3,200 128.3,205.4 		"/>
		<polygon class="st7" points="212.9,254.3 212.9,248.9 297,200 297,205.4 		"/>
		<path class="st7" d="M276.6,275c-19-10.5-20.4-50.9-20.4-50.9l-37.8-31.9l-10.1,5.5l37.8,31.9c0,0,1.4,40.4,20.4,50.9l1.6-4.2
			L276.6,275z"/>
		<path class="st7" d="M258.8,439.2c-4.4,2.5-11.4,2.5-15.8,0L162.9,393c-2.2-1.3-3.3-3-3.3-4.6c0,5.5,0,11.1-0.1,16.6
			c0,1.7,1.1,3.3,3.3,4.6l80.2,46.2c4.4,2.5,11.5,2.5,15.8,0l134.8-78.3l0-16.6L258.8,439.2z"/>
		<path class="st8" d="M393.6,360.9l-134.8,78.3c-4.4,2.5-11.4,2.5-15.8,0L162.9,393c-4.4-2.5-4.4-6.6,0-9.2l134.7-78.3L393.6,360.9
			z"/>
		<line class="st4" x1="390.4" y1="362.8" x2="390.4" y2="379.4"/>
		<path class="st7" d="M314.2,313.3c0,0.6,0,1.2-0.1,1.7l8.5,4.9c0.1-0.6,0.1-1.1,0.1-1.7c0-2.8-1-4.7-2.5-5.6l-8.5-4.9
			C313.2,308.6,314.2,310.6,314.2,313.3z"/>
		<path class="st8" d="M314.9,302.2c-2.4-1.4-5.8-1.2-9.5,0.9c-4.7,2.7-8.8,7.9-11.2,13.4l8.5,4.9c2.4-5.6,6.5-10.7,11.2-13.4
			c3.7-2.1,7.1-2.3,9.5-0.9L314.9,302.2z"/>
		<path class="st7" d="M313.9,313.2c4.8-2.8,8.8-0.5,8.8,5c0,0.6,0,1.1-0.1,1.7l3.7,2.1c0.6-2.1,1-4.3,1-6.5c0-8.5-6-11.9-13.4-7.6
			c-4.7,2.7-8.8,7.9-11.2,13.4l6.3-3.6C310.3,316,312,314.4,313.9,313.2z"/>
		<path class="st7" d="M330.8,322.9c0,0.6,0,1.2-0.1,1.7l8.5,4.9c0.1-0.6,0.1-1.1,0.1-1.7c0-2.8-1-4.7-2.5-5.6l-8.5-4.9
			C329.8,318.2,330.8,320.1,330.8,322.9z"/>
		<path class="st8" d="M331.5,311.7c-2.4-1.4-5.8-1.2-9.5,0.9c-4.7,2.7-8.8,7.9-11.2,13.4l8.5,4.9c2.4-5.6,6.5-10.7,11.2-13.4
			c3.7-2.1,7-2.3,9.5-0.9L331.5,311.7z"/>
		<path class="st7" d="M330.5,322.8c4.8-2.8,8.7-0.5,8.8,5c0,0.6,0,1.1-0.1,1.7l3.7,2.1c0.6-2.1,1-4.3,1-6.5c0-8.5-6-11.9-13.4-7.6
			c-4.7,2.7-8.8,7.9-11.2,13.4l6.3-3.6C326.9,325.5,328.6,324,330.5,322.8z"/>
		<path class="st7" d="M347.4,332.5c0,0.6,0,1.2-0.1,1.7l8.5,4.9c0.1-0.6,0.1-1.1,0.1-1.7c0-2.8-1-4.7-2.5-5.6l-8.5-4.9
			C346.4,327.8,347.4,329.7,347.4,332.5z"/>
		<path class="st8" d="M348.1,321.3c-2.4-1.4-5.8-1.2-9.5,0.9c-4.7,2.7-8.8,7.9-11.2,13.5l8.5,4.9c2.4-5.6,6.5-10.7,11.2-13.4
			c3.7-2.1,7-2.3,9.5-0.9L348.1,321.3z"/>
		<path class="st7" d="M347.1,332.4c4.8-2.8,8.8-0.5,8.8,5c0,0.6,0,1.1-0.1,1.7l3.7,2.1c0.6-2.1,1-4.3,1-6.5c0-8.5-6-11.9-13.4-7.6
			c-4.7,2.7-8.8,7.9-11.2,13.4l6.3-3.6C343.5,335.1,345.2,333.6,347.1,332.4z"/>
		<path class="st7" d="M364,342c0,0.6,0,1.1-0.1,1.7l8.5,4.9c0.1-0.6,0.1-1.1,0.1-1.7c0-2.8-1-4.7-2.5-5.6l-8.5-4.9
			C363,337.4,364,339.3,364,342z"/>
		<path class="st8" d="M364.7,330.9c-2.4-1.4-5.8-1.2-9.5,0.9c-4.7,2.7-8.8,7.9-11.2,13.4l8.5,4.9c2.4-5.6,6.5-10.7,11.2-13.4
			c3.7-2.1,7-2.3,9.5-0.9L364.7,330.9z"/>
		<path class="st7" d="M363.7,342c4.8-2.8,8.8-0.5,8.8,5c0,0.6,0,1.1-0.1,1.7l3.7,2.1c0.6-2.1,1-4.3,1-6.5c0-8.5-6-11.9-13.4-7.6
			c-4.7,2.7-8.8,7.9-11.2,13.4l6.3-3.6C360.1,344.7,361.8,343.2,363.7,342z"/>
		<path class="st7" d="M380.6,351.6c0,0.6,0,1.2-0.1,1.7l8.5,4.9c0.1-0.6,0.1-1.1,0.1-1.7c0-2.8-1-4.7-2.5-5.6L378,346
			C379.6,346.9,380.6,348.9,380.6,351.6z"/>
		<path class="st8" d="M381.3,340.4c-2.4-1.4-5.8-1.2-9.5,0.9c-4.7,2.7-8.8,7.9-11.2,13.4l8.5,4.9c2.4-5.6,6.5-10.7,11.2-13.4
			c3.7-2.1,7-2.3,9.5-0.9L381.3,340.4z"/>
		<path class="st7" d="M380.3,351.5c4.8-2.8,8.8-0.5,8.8,5c0,0.6,0,1.1-0.1,1.7l3.7,2.1c0.6-2.1,1-4.3,1-6.5c0-8.5-6-11.9-13.4-7.6
			c-4.7,2.7-8.8,7.9-11.2,13.4l6.3-3.6C376.7,354.3,378.3,352.7,380.3,351.5z"/>
		<path class="st7" d="M352.7,361.1l-60.6-35c-2.4-1.2-5.2-1.2-7.6,0l-29.3,17c-2.1,1.2-2.1,3.2,0,4.4l60.6,35
			c2.4,1.2,5.3,1.2,7.7,0l29.3-17C354.9,364.3,354.9,362.3,352.7,361.1z"/>
		<path class="st1" d="M324.7,365.4c0.6-0.3,1.1-0.4,2.4,0.4s3.5,2.4,3.6,2.5l2.4-1.4c-1.1-1-2.4-1.9-3.7-2.8
			c-2.3-1.5-5.3-1.7-7.7-0.4c-2.4,1.4-1.7,2.4,0.3,4c1.7,1.3,1.7,1.6,1.2,1.9s-1.2,0.3-2.6-0.5c-1.1-0.6-3.3-2.3-3.5-2.4l-2.5,1.4
			c1.1,1,2.4,1.9,3.6,2.7c2.7,1.6,5.4,2,7.9,0.5c2.2-1.3,2-2.2,0-3.9C324.5,365.9,324.2,365.6,324.7,365.4z"/>
		<path class="st1" d="M310.6,363.3c-1.6-0.9-1.6-1.6-0.3-2.4l6.4,3.7l2.2-1c3.3-1.9,3.3-3.7,0.1-5.6s-6.8-1.6-10.6,0.6
			s-4.1,4-0.8,5.9c1.7,0.9,3.4,1.6,5.1,2.3l2.1-1.3C314.7,365.5,312.4,364.4,310.6,363.3z M316.6,359.4c1.4,0.8,1.3,1.4-0.4,2.4
			l-3.8-2.2C314.1,358.7,315.3,358.6,316.6,359.4z"/>
		<path class="st1" d="M303,357.1l4.4-2.6l2.7,1.5l2.5-1.4l-2.7-1.5l3-1.8l-2.9-1.7l-3,1.8l-1.3-0.8l-2.5,1.4l1.3,0.7l-4.5,2.6
			c-3.1,1.8-3.4,2.8-0.7,4.4c0.8,0.4,1.7,0.8,2.5,1.1l2.2-1.4c0,0-1.1-0.6-1.7-0.9C301.4,358,301.9,357.7,303,357.1z"/>
		<path class="st1" d="M299.7,346.9c-3.8-2.2-7.3-1.5-10.7,0.4s-4.5,4-0.7,6.2s7.4,1.5,10.7-0.5S303.5,349,299.7,346.9z
			 M296.1,351.3c-2.1,1.2-3.7,1.6-5.3,0.7s-0.9-1.8,1.2-3.1s3.6-1.6,5.2-0.7S298.2,350.1,296.1,351.3L296.1,351.3z"/>
		<path class="st1" d="M288.8,340.6c-1.1-0.5-2.3-0.9-3.6-1.1l0.6-0.3l-2.9-1.7l-10.8,6.3l2.9,1.7l8.1-4.7c0.8,0.2,1.6,0.5,2.4,0.9
			c1.4,0.8,0.6,1.6-1.1,2.5l-5.8,3.4l2.9,1.7l5.9-3.4C290.7,343.9,291.9,342.3,288.8,340.6z"/>
		<path class="st3" d="M718,415.2c9.3-5.2,14-12.1,14-19c0,1.8,0,3.6,0,5.4c0,6.9-4.7,13.8-14,19c-18.1,10.1-46.8,9.8-64.1-0.6
			c-8.4-5.1-12.6-11.6-12.6-18.1c0-1.8,0-3.6,0-5.5c0,6.5,4.2,13,12.6,18.1C671.2,425,699.9,425.3,718,415.2z"/>
		<path class="st3" d="M703.2,354.3c8.8,5.3,8.5,13.8-0.7,19s-23.9,5-32.7-0.3s-8.5-13.8,0.7-19S694.3,349,703.2,354.3z"/>
		<path class="st0" d="M715.6,359.1c2.7,5.9-0.1,12.5-8.3,17c-12,6.7-31,6.5-42.6-0.4c-7.6-4.6-10-11-7.3-16.7c0,0,0,0,0,0
			c1.4-2.9,4.1-5.6,8.2-7.9c12-6.7,31-6.5,42.6,0.4c3.1,1.7,5.6,4.2,7.2,7.3L715.6,359.1z M702.5,373.3c9.2-5.1,9.5-13.6,0.7-19
			s-23.5-5.5-32.7-0.3s-9.5,13.6-0.7,19S693.3,378.4,702.5,373.3L702.5,373.3z"/>
		<path class="st0" d="M731.9,396.1L731.9,396.1c0,6.9-4.7,13.8-14,19c-18.1,10.1-46.8,9.8-64.1-0.6c-8.4-5.1-12.6-11.6-12.6-18.1
			c0-2.5,0.6-4.9,1.7-7.1c4.9-10.1,9.7-20.2,14.6-30.2c-2.7,5.7-0.3,12.1,7.3,16.7c11.5,6.9,30.6,7.1,42.6,0.4
			c8.2-4.5,11-11.1,8.3-17c4.9,10,9.8,20,14.6,29.9C731.3,391.2,731.9,393.7,731.9,396.1z"/>
		<path class="st4" d="M731.9,396.2c0,1.8,0,3.6,0,5.4c0,6.9-4.7,13.8-14,19c-18.1,10.1-46.8,9.8-64.1-0.6
			c-8.4-5.1-12.6-11.6-12.6-18.1c0-1.8,0-3.6,0-5.5"/>
		<path class="st4" d="M657.5,359c-2.7,5.7-0.3,12.1,7.3,16.7c11.5,6.9,30.6,7.1,42.6,0.4c8.2-4.5,11-11.1,8.3-17"/>
		<path class="st4" d="M715.5,358.8c-1.7-3.1-4.2-5.6-7.2-7.3c-11.5-6.9-30.6-7.1-42.6-0.4c-4,2.2-6.8,5-8.2,7.9"/>
		<path class="st4" d="M702.5,373.3c-9.2,5.1-23.9,5-32.7-0.3s-8.5-13.8,0.7-19s23.9-5,32.7,0.3S711.8,368.1,702.5,373.3z"/>
		<path class="st4" d="M715.5,358.8l0.2,0.3c4.9,10,9.8,20,14.6,29.9c1.1,2.2,1.7,4.6,1.7,7.1l0,0c0,6.9-4.7,13.8-14,19
			c-18.1,10.1-46.8,9.8-64.1-0.6c-8.4-5.1-12.6-11.6-12.6-18.1c0-2.5,0.6-4.9,1.7-7.1c4.9-10.1,9.7-20.2,14.6-30.2c7.3-15.1,0,0,0,0
			"/>
		<path class="st1" d="M752,264.6c2.5,3.2,4,10.5,2.9,16.1c-0.2,1-0.6,2-1,2.9c-1.1,2.1-1.7,4.5-1.7,6.9c-0.1,2.4,0.4,4.7,1.4,6.9
			c0.4,0.9,0.7,1.9,0.9,2.9c0.2,1.4,0.2,2.8,0,4.2c-0.3,2.5-1.4,4.8-3,6.7c-0.7,0.8-1.3,1.6-1.8,2.5c-0.7,1.2-1.3,2.5-1.6,3.8
			c-0.4,1.3-0.7,2.6-0.8,4c0,1,0,2,0.1,3c0,0.5,0.1,1,0.1,1.5c0,0.5,0,1.1-0.1,1.6c-0.1,0.6-0.2,1.2-0.4,1.9
			c-0.1,0.4-0.2,0.7-0.4,1.1c-0.2,0.4-0.3,0.8-0.6,1.1c-0.6,1.3-1.5,2.5-2.6,3.6c-0.8,0.7-1.6,1.4-2.5,2c-0.9,0.5-1.8,1.1-2.7,1.8
			c-0.5,0.4-0.9,0.8-1.4,1.3c-0.6,0.5-1.1,1.1-1.6,1.7c-0.6,0.7-1,1.3-1.4,1.9c-0.4,0.5-0.7,1-1,1.6c-0.2,0.5-0.4,1-0.6,1.5
			l-0.2,0.7l-0.3,0.7c-0.9,2.4-2.4,4.5-4.3,6.1c-8,7.2-16.3,13.1-25.5,12c-6.5-6.6-7-16.8-6.1-27.5c0.1-2.5,0.8-5,2.1-7.2l0.4-0.6
			c0.1-0.2,0.3-0.4,0.4-0.6c0.3-0.4,0.5-0.9,0.8-1.4c0.3-0.6,0.5-1.1,0.7-1.7c0.2-0.7,0.5-1.4,0.7-2.2c0.2-0.8,0.3-1.5,0.4-2.3
			c0.1-0.6,0.2-1.3,0.2-1.9c0-1.1-0.1-2.1-0.2-3.2c-0.1-1.1-0.1-2.1,0-3.2c0.2-1.5,0.6-2.9,1.2-4.2c0.2-0.4,0.4-0.8,0.6-1.1
			c0.2-0.3,0.4-0.6,0.6-0.9c0.4-0.5,0.8-1,1.2-1.5c0.4-0.4,0.8-0.7,1.2-1.1c0.4-0.3,0.8-0.5,1.2-0.8c0.9-0.5,1.7-1.1,2.4-1.8
			c1-0.9,2-1.9,2.7-3.1c0.8-1.1,1.5-2.3,2-3.6c0.4-1,0.7-2,0.9-3c0.9-3.8,3.3-7.1,6.8-9c0.9-0.4,1.9-0.8,2.8-1
			c2.3-0.5,4.5-1.5,6.3-3.1c1.9-1.5,3.4-3.4,4.5-5.6c0.5-0.9,1-1.8,1.7-2.6C741.2,267.9,747.9,264.6,752,264.6z"/>
		<path class="st1" d="M708.2,353.2c1.2-2.2,1.9-4.7,1.9-7.2v-0.7v-0.8c0-1.2,0.1-2.3,0.4-3.4c0.2-0.7,0.3-1.4,0.6-2.3
			c0.2-0.7,0.5-1.5,0.8-2.2c0.2-0.6,0.5-1.2,0.8-1.7c0.5-0.9,1.2-1.8,1.8-2.6c0.6-0.9,1.2-1.8,1.7-2.8c0.6-1.3,1-2.8,1.1-4.2
			c0-0.5,0.1-0.9,0.1-1.3c0-0.4,0-0.8,0-1.1c0-0.6-0.1-1.3-0.3-1.9c-0.1-0.5-0.3-1-0.5-1.5c-0.2-0.5-0.4-0.9-0.6-1.3
			c-0.5-0.9-0.9-1.8-1.2-2.8c-0.4-1.3-0.7-2.6-0.7-4c-0.1-1.4-0.1-2.8,0.2-4.2c0.2-1,0.5-2,0.8-3c0.9-2.3,1-4.9,0.4-7.3
			c-0.2-0.7-0.4-1.3-0.6-1.9c-0.1,0.5-0.3,0.9-0.5,1.4c-0.5,1.3-1.2,2.5-2,3.6c-0.8,1.1-1.7,2.2-2.7,3.1c-0.8,0.6-1.6,1.2-2.4,1.8
			c-0.4,0.2-0.8,0.5-1.2,0.8c-0.4,0.3-0.8,0.7-1.2,1.1c-0.4,0.5-0.8,0.9-1.2,1.5c-0.2,0.3-0.4,0.6-0.6,0.9c-0.2,0.4-0.4,0.7-0.6,1.1
			c-0.7,1.3-1.1,2.7-1.2,4.2c-0.1,1.1-0.1,2.1,0,3.2c0.1,1.1,0.2,2.1,0.2,3.2c0,0.6-0.1,1.3-0.2,1.9c-0.1,0.8-0.2,1.6-0.4,2.3
			c-0.2,0.9-0.5,1.6-0.7,2.2c-0.2,0.6-0.4,1.2-0.7,1.7c-0.2,0.5-0.5,0.9-0.8,1.4c-0.2,0.2-0.3,0.4-0.4,0.6l-0.4,0.6
			c-1.3,2.2-2.1,4.6-2.2,7.1c-0.8,10.1-0.5,19.7,5,26.3C703.7,361.4,706.2,357.4,708.2,353.2z"/>
		<g>
			<defs>
				<path id="SVGID_1_" d="M752,264.6c2.5,3.2,4,10.5,2.9,16.1c-0.2,1-0.6,2-1,2.9c-1.1,2.1-1.7,4.5-1.7,6.9
					c-0.1,2.4,0.4,4.7,1.4,6.9c0.4,0.9,0.7,1.9,0.9,2.9c0.2,1.4,0.2,2.8,0,4.2c-0.3,2.5-1.4,4.8-3,6.7c-0.7,0.8-1.3,1.6-1.8,2.5
					c-0.7,1.2-1.3,2.5-1.6,3.8c-0.4,1.3-0.7,2.6-0.8,4c0,1,0,2,0.1,3c0,0.5,0.1,1,0.1,1.5c0,0.5,0,1.1-0.1,1.6
					c-0.1,0.6-0.2,1.2-0.4,1.9c-0.1,0.4-0.2,0.7-0.4,1.1c-0.2,0.4-0.3,0.8-0.6,1.1c-0.6,1.3-1.5,2.5-2.6,3.6c-0.8,0.7-1.6,1.4-2.5,2
					c-0.9,0.5-1.8,1.1-2.7,1.8c-0.5,0.4-0.9,0.8-1.4,1.3c-0.6,0.5-1.1,1.1-1.6,1.7c-0.6,0.7-1,1.3-1.4,1.9c-0.4,0.5-0.7,1-1,1.6
					c-0.2,0.5-0.4,1-0.6,1.5l-0.2,0.7l-0.3,0.7c-0.9,2.4-2.4,4.5-4.3,6.1c-8,7.2-16.3,13.1-25.5,12c-6.5-6.6-7-16.8-6.1-27.5
					c0.1-2.5,0.8-5,2.1-7.2l0.4-0.6c0.1-0.2,0.3-0.4,0.4-0.6c0.3-0.4,0.5-0.9,0.8-1.4c0.3-0.6,0.5-1.1,0.7-1.7
					c0.2-0.7,0.5-1.4,0.7-2.2c0.2-0.8,0.3-1.5,0.4-2.3c0.1-0.6,0.2-1.3,0.2-1.9c0-1.1-0.1-2.1-0.2-3.2c-0.1-1.1-0.1-2.1,0-3.2
					c0.2-1.5,0.6-2.9,1.2-4.2c0.2-0.4,0.4-0.8,0.6-1.1c0.2-0.3,0.4-0.6,0.6-0.9c0.4-0.5,0.8-1,1.2-1.5c0.4-0.4,0.8-0.7,1.2-1.1
					c0.4-0.3,0.8-0.5,1.2-0.8c0.9-0.5,1.7-1.1,2.4-1.8c1-0.9,2-1.9,2.7-3.1c0.8-1.1,1.5-2.3,2-3.6c0.4-1,0.7-2,0.9-3
					c0.9-3.8,3.3-7.1,6.8-9c0.9-0.4,1.9-0.8,2.8-1c2.3-0.5,4.5-1.5,6.3-3.1c1.9-1.5,3.4-3.4,4.5-5.6c0.5-0.9,1-1.8,1.7-2.6
					C741.2,267.9,747.9,264.6,752,264.6z"/>
			</defs>
			<clipPath id="SVGID_2_">
				<use xlink:href="#SVGID_1_"  style="overflow:visible;"/>
			</clipPath>
			<g class="st10">
				<line class="st11" x1="703.2" y1="363.8" x2="748.8" y2="271.2"/>
				<polyline class="st11" points="691.5,342.4 704.9,360.4 727.2,360 				"/>
				<polyline class="st11" points="698.1,329 711.5,347 733.8,346.6 				"/>
				<polyline class="st11" points="699.9,308.9 718.2,333.4 748.7,332.9 				"/>
				<polyline class="st11" points="709.7,300.7 724.3,320.4 748.8,320 				"/>
				<polyline class="st11" points="716.9,287.1 731.4,306.5 755.6,306.1 				"/>
				<polyline class="st11" points="724.5,275.5 737.8,293.5 760.1,293.1 				"/>
				<polyline class="st11" points="731,262.2 744.4,280.1 766.7,279.7 				"/>
			</g>
		</g>
		<path class="st1" d="M629.3,261.7c4.1,0.3,10.5,4.1,13.9,8.6c0.6,0.9,1.1,1.8,1.5,2.7c0.8,2.3,2.2,4.3,4,5.9
			c1.7,1.7,3.7,2.9,6,3.6c1,0.3,1.9,0.7,2.8,1.2c1.2,0.8,2.2,1.7,3.1,2.8c1.6,1.9,2.6,4.2,2.9,6.7c0.1,1,0.4,2.1,0.7,3.1
			c0.4,1.3,1,2.6,1.7,3.8c0.7,1.2,1.5,2.3,2.5,3.3c0.7,0.7,1.5,1.3,2.3,1.9c0.4,0.3,0.8,0.6,1.2,0.9c0.4,0.3,0.8,0.7,1.1,1.1
			c0.4,0.5,0.8,1,1.1,1.5c0.2,0.3,0.4,0.7,0.5,1c0.2,0.4,0.3,0.8,0.5,1.2c0.6,1.4,0.9,2.8,0.9,4.3c0,1.1-0.1,2.2-0.2,3.2
			c-0.2,1-0.4,2.1-0.4,3.2c0,0.6,0,1.3,0,1.9c0,0.8,0.1,1.6,0.2,2.3c0.1,0.9,0.4,1.6,0.5,2.3c0.1,0.6,0.3,1.2,0.5,1.8
			c0.2,0.5,0.4,1,0.7,1.5l0.4,0.6l0.3,0.6c1.2,2.3,1.7,4.8,1.6,7.3c0,10.8-1.2,20.9-8.2,27c-9.3,0.4-17.1-6.1-24.5-13.9
			c-1.8-1.8-3.1-4-3.9-6.4l-0.2-0.7l-0.2-0.7c-0.1-0.5-0.3-1-0.5-1.5c-0.2-0.6-0.5-1.1-0.8-1.7c-0.4-0.6-0.7-1.3-1.2-2
			c-0.4-0.7-0.9-1.3-1.4-1.9c-0.4-0.5-0.8-1-1.3-1.4c-0.8-0.7-1.6-1.4-2.5-2c-0.9-0.6-1.7-1.4-2.4-2.1c-1-1.1-1.7-2.4-2.2-3.8
			c-0.2-0.4-0.3-0.8-0.5-1.2c-0.1-0.4-0.2-0.7-0.3-1.1c-0.1-0.6-0.2-1.2-0.3-1.9c0-0.5,0-1.1,0-1.6c0.1-0.5,0.1-1,0.2-1.5
			c0.2-1,0.3-2,0.3-3c0-1.4-0.1-2.7-0.5-4.1c-0.3-1.4-0.7-2.7-1.3-4c-0.5-0.9-1-1.8-1.6-2.7c-2.3-3.2-3.1-7.2-2.2-11.1
			c0.3-1,0.7-1.9,1.2-2.8c1.2-2.1,1.8-4.4,1.9-6.7c0.2-2.4-0.2-4.8-1.1-7c-0.4-1-0.7-2-0.8-3C624.5,271.9,626.5,264.7,629.3,261.7z"
			/>
		<path class="st1" d="M677.9,332.8l-0.3-0.6l-0.4-0.6c-0.3-0.5-0.5-1-0.7-1.5c-0.2-0.6-0.4-1.2-0.5-1.8c-0.1-0.7-0.4-1.4-0.5-2.3
			c-0.1-0.8-0.2-1.6-0.2-2.3c0-0.6,0-1.3,0-1.9c0.1-1.1,0.2-2.1,0.4-3.2c0.2-1.1,0.3-2.1,0.2-3.2c-0.1-1.5-0.4-2.9-0.9-4.3
			c-0.2-0.4-0.3-0.8-0.5-1.2c-0.2-0.3-0.3-0.7-0.5-1c-0.3-0.5-0.7-1.1-1.1-1.5c-0.3-0.4-0.7-0.8-1.1-1.1c-0.4-0.3-0.8-0.6-1.2-0.9
			c-0.8-0.6-1.6-1.2-2.3-1.9c-1-1-1.8-2.1-2.5-3.3c-0.7-1.2-1.3-2.4-1.7-3.8c-0.3-1-0.5-2-0.7-3.1c-0.2-1.5-0.6-3-1.3-4.3
			c-0.7,1.2-1.5,2.2-2.5,3.2c-0.7,0.7-1.3,1.5-1.9,2.3c-1.9,3.4-2.3,7.5-1,11.2c0.4,1,0.6,2,0.8,3c0.2,1.4,0.3,2.8,0.2,4.2
			c0,1.4-0.3,2.7-0.7,4c-0.3,0.9-0.7,1.9-1.2,2.8c-0.2,0.4-0.4,0.9-0.6,1.3c-0.2,0.5-0.4,1-0.5,1.5c-0.1,0.6-0.2,1.2-0.3,1.9
			c0,0.4,0,0.7,0,1.1s0.1,0.8,0.1,1.3c0.1,1.5,0.4,3,1,4.3c0.5,1,1,1.9,1.7,2.7c0.7,0.8,1.3,1.7,1.8,2.6c0.3,0.6,0.6,1.1,0.8,1.7
			c0.3,0.7,0.6,1.4,0.8,2.2c0.3,0.8,0.4,1.6,0.6,2.3c0.3,1.1,0.4,2.3,0.4,3.4c0,0.3,0,0.5,0,0.8v0.7c0,2.5,0.7,5,1.9,7.2
			c2.1,4.4,4.7,8.5,7.7,12.2c6.8-6.1,8.1-16.1,8-26.8C679.6,337.5,679.1,335,677.9,332.8z"/>
		<g>
			<defs>
				<path id="SVGID_3_" d="M629.3,261.7c4.1,0.3,10.5,4.1,13.9,8.6c0.6,0.9,1.1,1.8,1.5,2.7c0.8,2.3,2.2,4.3,4,5.9
					c1.7,1.7,3.7,2.9,6,3.6c1,0.3,1.9,0.7,2.8,1.2c1.2,0.8,2.2,1.7,3.1,2.8c1.6,1.9,2.6,4.2,2.9,6.7c0.1,1,0.4,2.1,0.7,3.1
					c0.4,1.3,1,2.6,1.7,3.8c0.7,1.2,1.5,2.3,2.5,3.3c0.7,0.7,1.5,1.3,2.3,1.9c0.4,0.3,0.8,0.6,1.2,0.9c0.4,0.3,0.8,0.7,1.1,1.1
					c0.4,0.5,0.8,1,1.1,1.5c0.2,0.3,0.4,0.7,0.5,1c0.2,0.4,0.3,0.8,0.5,1.2c0.6,1.4,0.9,2.8,0.9,4.3c0,1.1-0.1,2.2-0.2,3.2
					c-0.2,1-0.4,2.1-0.4,3.2c0,0.6,0,1.3,0,1.9c0,0.8,0.1,1.6,0.2,2.3c0.1,0.9,0.4,1.6,0.5,2.3c0.1,0.6,0.3,1.2,0.5,1.8
					c0.2,0.5,0.4,1,0.7,1.5l0.4,0.6l0.3,0.6c1.2,2.3,1.7,4.8,1.6,7.3c0,10.8-1.2,20.9-8.2,27c-9.3,0.4-17.1-6.1-24.5-13.9
					c-1.8-1.8-3.1-4-3.9-6.4l-0.2-0.7l-0.2-0.7c-0.1-0.5-0.3-1-0.5-1.5c-0.2-0.6-0.5-1.1-0.8-1.7c-0.4-0.6-0.7-1.3-1.2-2
					c-0.4-0.7-0.9-1.3-1.4-1.9c-0.4-0.5-0.8-1-1.3-1.4c-0.8-0.7-1.6-1.4-2.5-2c-0.9-0.6-1.7-1.4-2.4-2.1c-1-1.1-1.7-2.4-2.2-3.8
					c-0.2-0.4-0.3-0.8-0.5-1.2c-0.1-0.4-0.2-0.7-0.3-1.1c-0.1-0.6-0.2-1.2-0.3-1.9c0-0.5,0-1.1,0-1.6c0.1-0.5,0.1-1,0.2-1.5
					c0.2-1,0.3-2,0.3-3c0-1.4-0.1-2.7-0.5-4.1c-0.3-1.4-0.7-2.7-1.3-4c-0.5-0.9-1-1.8-1.6-2.7c-2.3-3.2-3.1-7.2-2.2-11.1
					c0.3-1,0.7-1.9,1.2-2.8c1.2-2.1,1.8-4.4,1.9-6.7c0.2-2.4-0.2-4.8-1.1-7c-0.4-1-0.7-2-0.8-3C624.5,271.9,626.5,264.7,629.3,261.7
					z"/>
			</defs>
			<clipPath id="SVGID_4_">
				<use xlink:href="#SVGID_3_"  style="overflow:visible;"/>
			</clipPath>
			<g class="st12">
				<line class="st11" x1="670.2" y1="364.3" x2="632" y2="268.5"/>
				<polyline class="st11" points="646.6,358.7 668.8,360.8 683.5,344 				"/>
				<polyline class="st11" points="641,344.9 663.3,347 678,330.1 				"/>
				<polyline class="st11" points="627.3,330 657.7,332.9 677.7,309.9 				"/>
				<polyline class="st11" points="627.8,317.3 652.1,319.6 668.2,301.1 				"/>
				<polyline class="st11" points="622.5,302.8 646.6,305.1 662.5,286.8 				"/>
				<polyline class="st11" points="619,289.5 641.2,291.6 655.9,274.8 				"/>
				<polyline class="st11" points="613.4,275.6 635.7,277.7 650.4,260.9 				"/>
			</g>
		</g>
		<path class="st1" d="M686.5,253.1c3.9,1.9,8.8,8.3,10.5,14.1c0.2,1.1,0.4,2.2,0.4,3.3c-0.1,2.6,0.5,5.1,1.7,7.5
			c1,2.3,2.6,4.4,4.6,6c0.8,0.7,1.6,1.5,2.2,2.3c2.4,3.5,3.2,7.8,2.2,11.9c-0.3,1.1-0.5,2.2-0.6,3.3c-0.1,1.5,0,3,0.2,4.5
			c0.2,1.5,0.6,2.9,1.2,4.2c0.4,1,0.9,1.9,1.5,2.8c0.3,0.4,0.5,0.9,0.8,1.4c0.3,0.5,0.5,1,0.7,1.6c0.2,0.7,0.4,1.3,0.5,2
			c0.1,0.4,0.1,0.8,0.1,1.2c0,0.4,0,0.9,0,1.4c0,1.6-0.3,3.2-0.8,4.6c-0.4,1.1-0.9,2.1-1.5,3.1c-0.6,1-1.2,2-1.7,3
			c-0.3,0.6-0.5,1.3-0.7,1.9c-0.3,0.8-0.5,1.6-0.7,2.4c-0.2,0.9-0.3,1.7-0.4,2.5c-0.1,0.7-0.2,1.3-0.2,2c0,0.6,0,1.1,0.1,1.7
			c0,0.3,0.1,0.5,0.1,0.8l0.1,0.8c0.3,2.7-0.2,5.4-1.3,7.9c-4.2,10.8-9.5,20.3-18.9,23.6c-9.4-3.3-14.7-12.9-18.9-23.6
			c-1.1-2.5-1.6-5.2-1.3-7.9l0.1-0.8c0-0.3,0.1-0.5,0.1-0.8c0.1-0.6,0.1-1.1,0.1-1.7c0-0.7-0.1-1.3-0.2-2c-0.1-0.7-0.2-1.6-0.4-2.5
			c-0.2-0.8-0.4-1.6-0.7-2.4c-0.2-0.6-0.4-1.3-0.7-1.9c-0.5-1-1.1-2-1.7-3c-0.6-1-1.1-2-1.5-3.1c-0.5-1.5-0.8-3.1-0.8-4.6
			c0-0.5,0-0.9,0-1.4c0-0.4,0.1-0.8,0.1-1.2c0.1-0.7,0.3-1.3,0.5-2c0.2-0.5,0.4-1.1,0.7-1.6c0.2-0.5,0.5-0.9,0.8-1.4
			c0.6-0.9,1.1-1.8,1.5-2.8c0.6-1.4,1-2.8,1.2-4.2c0.3-1.5,0.3-3,0.2-4.5c-0.1-1.1-0.3-2.2-0.6-3.3c-1-4.1-0.2-8.4,2.2-11.9
			c0.7-0.8,1.4-1.6,2.2-2.3c2-1.6,3.6-3.6,4.6-6c1.1-2.3,1.7-4.9,1.7-7.5c0-1.1,0.1-2.2,0.4-3.3
			C677.7,261.4,682.5,255.1,686.5,253.1z"/>
		<g>
			<defs>
				<path id="SVGID_5_" d="M686.5,253.1c3.9,1.9,8.8,8.3,10.5,14.1c0.2,1.1,0.4,2.2,0.4,3.3c-0.1,2.6,0.5,5.1,1.7,7.5
					c1,2.3,2.6,4.4,4.6,6c0.8,0.7,1.6,1.5,2.2,2.3c2.4,3.5,3.2,7.8,2.2,11.9c-0.3,1.1-0.5,2.2-0.6,3.3c-0.1,1.5,0,3,0.2,4.5
					c0.2,1.5,0.6,2.9,1.2,4.2c0.4,1,0.9,1.9,1.5,2.8c0.3,0.4,0.5,0.9,0.8,1.4c0.3,0.5,0.5,1,0.7,1.6c0.2,0.7,0.4,1.3,0.5,2
					c0.1,0.4,0.1,0.8,0.1,1.2c0,0.4,0,0.9,0,1.4c0,1.6-0.3,3.2-0.8,4.6c-0.4,1.1-0.9,2.1-1.5,3.1c-0.6,1-1.2,2-1.7,3
					c-0.3,0.6-0.5,1.3-0.7,1.9c-0.3,0.8-0.5,1.6-0.7,2.4c-0.2,0.9-0.3,1.7-0.4,2.5c-0.1,0.7-0.2,1.3-0.2,2c0,0.6,0,1.1,0.1,1.7
					c0,0.3,0.1,0.5,0.1,0.8l0.1,0.8c0.3,2.7-0.2,5.4-1.3,7.9c-4.2,10.8-9.5,20.3-18.9,23.6c-9.4-3.3-14.7-12.9-18.9-23.6
					c-1.1-2.5-1.6-5.2-1.3-7.9l0.1-0.8c0-0.3,0.1-0.5,0.1-0.8c0.1-0.6,0.1-1.1,0.1-1.7c0-0.7-0.1-1.3-0.2-2
					c-0.1-0.7-0.2-1.6-0.4-2.5c-0.2-0.8-0.4-1.6-0.7-2.4c-0.2-0.6-0.4-1.3-0.7-1.9c-0.5-1-1.1-2-1.7-3c-0.6-1-1.1-2-1.5-3.1
					c-0.5-1.5-0.8-3.1-0.8-4.6c0-0.5,0-0.9,0-1.4c0-0.4,0.1-0.8,0.1-1.2c0.1-0.7,0.3-1.3,0.5-2c0.2-0.5,0.4-1.1,0.7-1.6
					c0.2-0.5,0.5-0.9,0.8-1.4c0.6-0.9,1.1-1.8,1.5-2.8c0.6-1.4,1-2.8,1.2-4.2c0.3-1.5,0.3-3,0.2-4.5c-0.1-1.1-0.3-2.2-0.6-3.3
					c-1-4.1-0.2-8.4,2.2-11.9c0.7-0.8,1.4-1.6,2.2-2.3c2-1.6,3.6-3.6,4.6-6c1.1-2.3,1.7-4.9,1.7-7.5c0-1.1,0.1-2.2,0.4-3.3
					C677.7,261.4,682.5,255.1,686.5,253.1z"/>
			</defs>
			<clipPath id="SVGID_6_">
				<use xlink:href="#SVGID_5_"  style="overflow:visible;"/>
			</clipPath>
			<g class="st13">
				<line class="st11" x1="686.5" y1="371.8" x2="686.5" y2="261"/>
				<polyline class="st11" points="665.2,356.8 686.5,367.7 707.8,356.8 				"/>
				<polyline class="st11" points="665.2,340.8 686.5,351.7 707.8,340.8 				"/>
				<polyline class="st11" points="657.3,320.5 686.5,335.5 715.6,320.5 				"/>
				<polyline class="st11" points="662.8,308 686.2,320 709.7,308 				"/>
				<polyline class="st11" points="663.3,291.4 686.5,303.3 709.7,291.4 				"/>
				<polyline class="st11" points="665.2,276.8 686.5,287.7 707.8,276.8 				"/>
				<polyline class="st11" points="665.2,260.7 686.5,271.7 707.8,260.7 				"/>
			</g>
		</g>
	</g>
</g>
</svg>
