<svg xmlns="http://www.w3.org/2000/svg" xmlns:xlink="http://www.w3.org/1999/xlink" viewBox="0 0 572.76 367.18"><defs><style>.cls-1,.cls-12,.cls-5,.cls-9{fill:none;}.cls-2,.cls-8{fill:#fff;}.cls-3{fill:#ff40a9;}.cls-10,.cls-3,.cls-5,.cls-6,.cls-7,.cls-8,.cls-9{stroke:#000;}.cls-12,.cls-3,.cls-5,.cls-6,.cls-7,.cls-8,.cls-9{stroke-linecap:round;stroke-linejoin:round;}.cls-12,.cls-3,.cls-5,.cls-7,.cls-8{stroke-width:0.8px;}.cls-10,.cls-4,.cls-6,.cls-7{fill:aqua;}.cls-6,.cls-9{stroke-width:0.54px;}.cls-10{stroke-miterlimit:10;}.cls-11{clip-path:url(#clip-path);}.cls-12{stroke:#fff;}.cls-13{clip-path:url(#clip-path-2);}.cls-14{clip-path:url(#clip-path-3);}</style><clipPath id="clip-path"><path id="SVGID" class="cls-1" d="M517,181.91c1.72,2.2,2.75,7.22,2,11.07a9.53,9.53,0,0,1-.68,2,11.11,11.11,0,0,0-.21,9.49,10.23,10.23,0,0,1,.62,2,10,10,0,0,1,0,2.89,8.86,8.86,0,0,1-2.06,4.61,9.25,9.25,0,0,0-1.24,1.72,9.43,9.43,0,0,0-1.1,2.61,12,12,0,0,0-.55,2.75,20.26,20.26,0,0,0,.07,2.06c0,.35.07.69.07,1a5.76,5.76,0,0,1-.07,1.1,10.69,10.69,0,0,1-.28,1.31,4.08,4.08,0,0,1-.27.76,2.6,2.6,0,0,1-.42.75,8.74,8.74,0,0,1-1.78,2.48,16.4,16.4,0,0,1-1.72,1.37,15.41,15.41,0,0,0-1.86,1.24,11.13,11.13,0,0,0-1,.89,9.35,9.35,0,0,0-1.1,1.17,12.25,12.25,0,0,0-1,1.31,5.84,5.84,0,0,0-.69,1.1c-.14.34-.28.69-.41,1l-.14.48-.21.48a10.23,10.23,0,0,1-3,4.2c-5.5,5-11.21,9-17.53,8.25-4.47-4.54-4.82-11.55-4.2-18.91a10.53,10.53,0,0,1,1.45-4.95l.27-.41c.07-.14.21-.28.28-.42s.34-.61.55-1a9,9,0,0,0,.48-1.17c.13-.48.34-1,.48-1.51a12.42,12.42,0,0,0,.27-1.58,8.2,8.2,0,0,0,.14-1.31c0-.75-.07-1.44-.14-2.2a11.55,11.55,0,0,1,0-2.2,10.1,10.1,0,0,1,.83-2.88,6.53,6.53,0,0,1,.41-.76l.41-.62.83-1c.27-.28.55-.48.82-.76s.55-.34.83-.55a7,7,0,0,0,1.65-1.24,8.82,8.82,0,0,0,1.85-2.13,10.65,10.65,0,0,0,1.38-2.47,12.71,12.71,0,0,0,.62-2.06,9.46,9.46,0,0,1,4.67-6.19,10.64,10.64,0,0,1,1.93-.69,9.48,9.48,0,0,0,4.33-2.13,11.16,11.16,0,0,0,3.09-3.85,10.39,10.39,0,0,1,1.17-1.79C509.57,184.18,514.18,181.91,517,181.91Z"/></clipPath><clipPath id="clip-path-2"><path id="SVGID-2" data-name="SVGID" class="cls-1" d="M432.64,179.92c2.82.2,7.22,2.81,9.56,5.91a13.76,13.76,0,0,1,1,1.85,9.63,9.63,0,0,0,2.75,4.06,9.86,9.86,0,0,0,4.12,2.48A9.41,9.41,0,0,1,452,195a9.55,9.55,0,0,1,2.13,1.93,8.62,8.62,0,0,1,2,4.6,11.51,11.51,0,0,0,.49,2.13,12.46,12.46,0,0,0,1.16,2.62,11.44,11.44,0,0,0,1.72,2.26,13.23,13.23,0,0,0,1.58,1.31l.83.62a4.21,4.21,0,0,1,.76.76,8.67,8.67,0,0,1,.75,1,3,3,0,0,1,.35.69c.13.27.2.55.34.82a7.41,7.41,0,0,1,.62,3,22,22,0,0,1-.14,2.2,11,11,0,0,0-.27,2.2v1.3a11.1,11.1,0,0,0,.13,1.58c.07.62.28,1.1.35,1.59a8.06,8.06,0,0,0,.34,1.23,7.35,7.35,0,0,0,.48,1l.28.42.2.41a9.85,9.85,0,0,1,1.1,5c0,7.42-.82,14.37-5.63,18.56-6.4.28-11.76-4.19-16.85-9.56a11.1,11.1,0,0,1-2.68-4.4l-.14-.48-.13-.48a6,6,0,0,0-.35-1,8.8,8.8,0,0,0-.55-1.17c-.27-.41-.48-.89-.82-1.37a9.06,9.06,0,0,0-1-1.31,5.79,5.79,0,0,0-.89-1,17.91,17.91,0,0,0-1.72-1.38,11.06,11.06,0,0,1-1.65-1.44,7.59,7.59,0,0,1-1.51-2.61c-.14-.28-.21-.55-.35-.83s-.13-.48-.2-.75-.14-.83-.21-1.31v-1.1c.07-.34.07-.69.14-1a10.36,10.36,0,0,0,.21-2.06,9.7,9.7,0,0,0-.35-2.82,12.45,12.45,0,0,0-.89-2.75c-.35-.62-.69-1.24-1.1-1.86a8.52,8.52,0,0,1-.69-9.56,10.06,10.06,0,0,0,1.31-4.6,10.57,10.57,0,0,0-.76-4.82,7.77,7.77,0,0,1-.55-2.06C429.34,186.93,430.72,182,432.64,179.92Z"/></clipPath><clipPath id="clip-path-3"><path id="SVGID-3" data-name="SVGID" class="cls-1" d="M472,174c2.68,1.31,6,5.71,7.22,9.7a13.4,13.4,0,0,1,.27,2.27,10.54,10.54,0,0,0,1.17,5.15,11,11,0,0,0,3.16,4.13,11.29,11.29,0,0,1,1.52,1.58,10.15,10.15,0,0,1,1.51,8.18,12,12,0,0,0-.41,2.27,16,16,0,0,0,.13,3.09,12.36,12.36,0,0,0,1.86,4.82,10.24,10.24,0,0,1,.55,1,5.22,5.22,0,0,1,.48,1.1,8.57,8.57,0,0,1,.34,1.37,3.33,3.33,0,0,1,.07.83v1a9.36,9.36,0,0,1-.55,3.16,11.63,11.63,0,0,1-1,2.13c-.41.69-.82,1.38-1.17,2.07a11.38,11.38,0,0,0-.48,1.3,17.09,17.09,0,0,0-.48,1.65,14.82,14.82,0,0,0-.27,1.72,9.22,9.22,0,0,0-.14,1.38,6.62,6.62,0,0,0,.07,1.17c0,.2.07.34.07.55l.06.55a10.5,10.5,0,0,1-.89,5.43c-2.89,7.42-6.53,13.95-13,16.22-6.47-2.27-10.11-8.87-13-16.22a10.6,10.6,0,0,1-.89-5.43l.07-.55c0-.21.07-.35.07-.55a7.71,7.71,0,0,0,.06-1.17,9.2,9.2,0,0,0-.13-1.38c-.07-.48-.14-1.1-.28-1.72a14.66,14.66,0,0,0-.48-1.65,9.76,9.76,0,0,0-.48-1.3c-.34-.69-.76-1.38-1.17-2.07a11.63,11.63,0,0,1-1-2.13,10.3,10.3,0,0,1-.55-3.16v-1c0-.28.07-.55.07-.83a9.79,9.79,0,0,1,.34-1.37,8.15,8.15,0,0,1,.48-1.1,7.16,7.16,0,0,1,.55-1,9.68,9.68,0,0,0,1-1.93,11.24,11.24,0,0,0,.83-2.89,11.45,11.45,0,0,0,.14-3.09,12.93,12.93,0,0,0-.42-2.27,10.19,10.19,0,0,1,1.52-8.18,16.11,16.11,0,0,1,1.51-1.58,10.47,10.47,0,0,0,3.16-4.13,12,12,0,0,0,1.17-5.15,8.36,8.36,0,0,1,.28-2.27C465.92,179.71,469.22,175.38,472,174Z"/></clipPath></defs><g id="Layer_2" data-name="Layer 2"><g id="Layer_1-2" data-name="Layer 1"><g id="Layer_2-2" data-name="Layer 2"><g id="Layer_1-2-2" data-name="Layer 1-2"><path class="cls-2" d="M3.15,194.08C-12.39,122.85,31.75,46.33,88.33,17.87,165.4-20.91,369.87,1.64,368.91,103.12c-.55,54.79,213.27,129.94,195.32,194.36-13.13,47.17-104.29,74.67-174.28,69-84.23-6.94-96.19-58.44-196.29-66.07-56.86-4.33-79.13,10.31-117.77-9.56C38.76,271.63,11.74,233.61,3.15,194.08Z"/><path d="M34.36,197,190.5,106.28c9.42-5.5,22-8.52,35.4-8.52s26,3,35.48,8.45L572.76,285.52v-.9l-311-179C252.17,100,239.45,97,225.9,97s-26.26,3-35.82,8.59L34.36,196.07Z"/><path class="cls-3" d="M296.17,272.39c0-.14.07-.35.07-.48v-.42a4.55,4.55,0,0,0-.28-1.65c-.07-.2-.14-.41-.2-.55a7.19,7.19,0,0,0-.42-.75,6.94,6.94,0,0,0-.89-1.17,3.1,3.1,0,0,0-1-.83,4.81,4.81,0,0,0-2.34-.82,7.43,7.43,0,0,0-1.24.07,4.14,4.14,0,0,0-1.3.48l-6.47,3.78a2.83,2.83,0,0,0-1.1,2.54,8.26,8.26,0,0,0,3.85,6.53,2.69,2.69,0,0,0,2.69.21l6.46-3.78a4.33,4.33,0,0,0,.48-.34l.41-.42a6.31,6.31,0,0,0,.62-.82c0-.07.07-.14.07-.21l.07-.2v-.07c0-.07,0-.07.07-.14s.07-.14.07-.21v-.07c0-.06.06-.13.06-.2v-.14C296.1,272.66,296.1,272.52,296.17,272.39Z"/><path class="cls-2" d="M192.77,324.64a5,5,0,0,1,2.61,4.95c-2.48.48-4.75,1-5.36,1-1.59.21-2.07-1-1-2.06.55-.62,2.07-2.13,3.79-3.92Z"/><path class="cls-4" d="M203.9,319.83l2,5.22-2.07,2.89s-4.53,1-8.38,1.72a5,5,0,0,0-2.62-5h0l7-7.15Z"/><polygon class="cls-2" points="284.62 273.07 284.62 273.14 203.9 319.83 199.78 317.49 280.56 270.74 284.62 273.07"/><polygon class="cls-2" points="284.62 273.14 286.61 278.3 286.61 278.37 205.9 325.05 203.9 319.83 284.62 273.14"/><polygon class="cls-4" points="286.61 278.37 291.08 275.69 289.09 278.57 284.55 281.19 284.55 281.19 286.61 278.37"/><polygon class="cls-4" points="289.09 270.53 284.62 273.14 284.62 273.07 280.56 270.74 285.03 268.12 289.09 270.53"/><polygon class="cls-4" points="291.08 275.69 286.61 278.37 286.61 278.3 284.62 273.14 289.09 270.53 291.08 275.69"/><polygon class="cls-4" points="284.55 281.19 203.83 327.94 205.9 325.05 286.61 278.37 284.55 281.19"/><polyline class="cls-5" points="291.08 275.69 289.09 278.57 284.55 281.19 203.83 327.94"/><polyline class="cls-5" points="289.09 270.53 291.08 275.69 286.61 278.37 205.9 325.05"/><polyline class="cls-5" points="199.78 317.49 280.56 270.74 285.03 268.12 289.09 270.53 284.62 273.14 203.9 319.83"/><path class="cls-5" d="M199.78,317.49l-7,7.15c-1.72,1.79-3.24,3.37-3.79,4-1,1.1-.55,2.2,1,2.06.61-.07,2.88-.48,5.36-1,3.92-.76,8.39-1.72,8.39-1.72l2.06-2.89-2-5.22Z"/><path class="cls-5" d="M192.77,324.64a5,5,0,0,1,2.61,4.95h0"/><polyline class="cls-5" points="280.56 270.74 284.62 273.07 284.62 273.14 286.61 278.3 286.61 278.37 284.55 281.19"/><path class="cls-4" d="M468.25,91.84,321.81,7.28a4.66,4.66,0,0,0-2.68-.62l-5.64.55a4.58,4.58,0,0,1,2.69.62L462.62,92.39c2.88,1.65,4.33,6,3.16,9.7l-38.57,127c-.76,2.55-2.54,4.13-4.54,4.33l5.64-.55c2-.2,3.78-1.71,4.54-4.33l38.57-127C472.59,97.89,471.14,93.49,468.25,91.84Z"/><path class="cls-2" d="M462.62,92.39,316.18,7.83c-2.89-1.65-6.12,0-7.22,3.71L270.39,138.6c-1.1,3.71.34,8,3.16,9.69L420,232.85c2.89,1.65,6.12,0,7.22-3.71l38.57-127C467,98.38,465.5,94,462.62,92.39Z"/><path class="cls-5" d="M462.62,92.39,316.18,7.83c-2.89-1.65-6.12,0-7.22,3.71L270.39,138.6c-1.1,3.71.34,8,3.16,9.69L420,232.85c2.89,1.65,6.12,0,7.22-3.71l38.57-127C467,98.38,465.5,94,462.62,92.39Z"/><path class="cls-6" d="M443.3,157.85l-2.61-1.52c-1.45-.82-3,0-3.58,1.86l-1,3.3a4.26,4.26,0,0,0,1.58,4.81l2.61,1.51c1.45.83,3,0,3.58-1.85l1-3.3A4.37,4.37,0,0,0,443.3,157.85Z"/><polygon class="cls-4" points="316.38 12.5 276.16 145.13 414.9 225.22 455.12 92.6 316.38 12.5"/><path class="cls-5" d="M422.74,233.4l5.64-.55c2-.2,3.78-1.71,4.54-4.33l38.57-127c1.1-3.71-.28-8.05-3.17-9.7L321.88,7.28a4.67,4.67,0,0,0-2.68-.62l-5.64.55"/><path class="cls-2" d="M361.9,62.69,323.53,40.55A1.72,1.72,0,0,0,321,41.86l-22.35,73.29a3.15,3.15,0,0,0,1.1,3.44l38.37,22.14c1,.62,2.13,0,2.54-1.31L363,66.06A2.85,2.85,0,0,0,361.9,62.69Z"/><path class="cls-7" d="M351.51,67.92,328.14,54.37a1.73,1.73,0,0,0-2.55,1.31L321.4,69.43a3.15,3.15,0,0,0,1.1,3.44l23.38,13.54a1.76,1.76,0,0,0,2.54-1.3l4.19-13.69A3.08,3.08,0,0,0,351.51,67.92Z"/><path class="cls-2" d="M413.05,175.31l-29.7-17.19c-1-.62-2.2,0-2.55,1.31l-2.68,8.66a3.15,3.15,0,0,0,1.1,3.44l29.7,17.19a1.73,1.73,0,0,0,2.55-1.31l2.68-8.66A2.94,2.94,0,0,0,413.05,175.31Z"/><polygon points="406.58 115.22 362.72 89.85 362.31 91.16 406.17 116.46 406.58 115.22"/><polygon points="354.95 115.43 421.71 154 422.12 152.69 355.3 114.12 354.95 115.43"/><polygon points="368.91 113.36 424.32 145.4 424.74 144.1 369.32 112.13 368.91 113.36"/><polygon points="363.55 87.17 430.3 125.74 430.72 124.5 363.89 85.93 363.55 87.17"/><polygon points="352.34 124.02 419.1 162.52 419.51 161.28 352.68 122.71 352.34 124.02"/><polygon points="353.64 119.69 420.4 158.26 420.82 156.95 353.99 118.38 353.64 119.69"/><polygon points="356.26 111.09 423.02 149.66 423.43 148.36 356.6 109.86 356.26 111.09"/><polygon points="365.13 81.94 364.71 83.25 431.54 121.82 431.88 120.51 365.13 81.94"/><path class="cls-8" d="M423.15,242.14,262,149.32a15.29,15.29,0,0,0-13.82,0l-53.63,31.15c-3.78,2.2-3.78,5.77.07,8l161.16,92.82a15.29,15.29,0,0,0,13.82,0l53.62-31.15C427,247.91,427,244.34,423.15,242.14Z"/><path class="cls-4" d="M347.53,259.94l-4.95-2.88a4.22,4.22,0,0,0-3.85,0l-4.54,2.61a1.22,1.22,0,0,0,0,2.27l4.95,2.88a4.22,4.22,0,0,0,3.85,0l4.54-2.61C348.63,261.52,348.63,260.56,347.53,259.94Z"/><path class="cls-4" d="M354.88,262.14l4.88,2.82a4.22,4.22,0,0,0,3.85,0l4.54-2.61a1.22,1.22,0,0,0,0-2.27l-4.88-2.82a4.22,4.22,0,0,0-3.85,0l-4.54,2.61C353.78,260.56,353.78,261.52,354.88,262.14Z"/><path class="cls-4" d="M358.05,265.92l-4.89-2.81a4.22,4.22,0,0,0-3.85,0l-4.53,2.61a1.22,1.22,0,0,0,0,2.27l4.88,2.82a4.28,4.28,0,0,0,3.85,0l4.54-2.62A1.22,1.22,0,0,0,358.05,265.92Z"/><path class="cls-4" d="M334.74,250.59l14.5,8.39a4.24,4.24,0,0,0,3.86,0l4.53-2.61a1.22,1.22,0,0,0,0-2.27l-14.5-8.39a4.22,4.22,0,0,0-3.85,0l-4.54,2.61C333.71,248.94,333.71,249.9,334.74,250.59Z"/><path class="cls-4" d="M324.77,244.82l4.4,2.54a4.22,4.22,0,0,0,3.85,0l4.54-2.61a1.22,1.22,0,0,0,0-2.27l-4.4-2.54a4.22,4.22,0,0,0-3.85,0l-4.54,2.61A1.22,1.22,0,0,0,324.77,244.82Z"/><path class="cls-4" d="M337,228.66l4.4,2.54a4.22,4.22,0,0,0,3.85,0l4.95-2.88c1-.62,1-1.65,0-2.2l-4.4-2.55a4.22,4.22,0,0,0-3.85,0l-4.88,2.82C335.91,227.08,335.91,228,337,228.66Z"/><path class="cls-4" d="M360.31,234.23a1.22,1.22,0,0,0,0-2.27l-4.53-2.61a4.22,4.22,0,0,0-3.85,0L347,232.24a1.21,1.21,0,0,0,0,2.26l4.53,2.62a4.22,4.22,0,0,0,3.85,0Z"/><path class="cls-4" d="M334.88,203.7l3.85,2.2a4.22,4.22,0,0,0,3.85,0l.68-.41a1.22,1.22,0,0,0,0-2.27l-3.85-2.2a4.22,4.22,0,0,0-3.85,0l-.68.41A1.19,1.19,0,0,0,334.88,203.7Z"/><path class="cls-4" d="M344.29,209.13l4.95,2.89a4.24,4.24,0,0,0,3.86,0l.68-.41a1.22,1.22,0,0,0,0-2.27l-4.95-2.89a4.22,4.22,0,0,0-3.85,0l-.69.42A1.19,1.19,0,0,0,344.29,209.13Z"/><path class="cls-4" d="M347.46,213.05l-4.95-2.88a4.22,4.22,0,0,0-3.85,0l-4.4,2.54a1.22,1.22,0,0,0,0,2.27l4.95,2.89a4.22,4.22,0,0,0,3.85,0l4.4-2.55C348.49,214.64,348.49,213.67,347.46,213.05Z"/><path class="cls-4" d="M317.34,195.66l-4.4-2.54a4.22,4.22,0,0,0-3.85,0l-4.4,2.54a1.22,1.22,0,0,0,0,2.27l4.4,2.54a4.22,4.22,0,0,0,3.85,0l4.4-2.54A1.22,1.22,0,0,0,317.34,195.66Z"/><path class="cls-4" d="M327.52,201.5,323,198.89a4.22,4.22,0,0,0-3.85,0l-4.4,2.54a1.22,1.22,0,0,0,0,2.27l4.54,2.62a4.28,4.28,0,0,0,3.85,0l4.4-2.55A1.22,1.22,0,0,0,327.52,201.5Z"/><path class="cls-4" d="M269.29,179.43l-4.4-2.54a4.22,4.22,0,0,0-3.85,0l-5,2.89a1.22,1.22,0,0,0,0,2.27l4.4,2.54a4.22,4.22,0,0,0,3.85,0l4.88-2.89A1.19,1.19,0,0,0,269.29,179.43Z"/><path class="cls-4" d="M276.57,172.15l-4.4-2.55a4.22,4.22,0,0,0-3.85,0l-4.4,2.55a1.22,1.22,0,0,0,0,2.27l4.4,2.54a4.22,4.22,0,0,0,3.85,0l4.4-2.54C277.67,173.73,277.61,172.7,276.57,172.15Z"/><path class="cls-4" d="M274,168.57l4.4,2.55a4.28,4.28,0,0,0,3.85,0l.69-.42a1.22,1.22,0,0,0,0-2.27l-4.4-2.54a4.22,4.22,0,0,0-3.85,0l-.69.41A1.22,1.22,0,0,0,274,168.57Z"/><path class="cls-4" d="M283.93,174.28l4.54,2.61a4.22,4.22,0,0,0,3.85,0l.69-.41a1.22,1.22,0,0,0,0-2.27l-4.54-2.61a4.22,4.22,0,0,0-3.85,0l-.69.41C282.9,172.7,282.9,173.66,283.93,174.28Z"/><path class="cls-4" d="M314.73,192.08l4.4,2.55a4.22,4.22,0,0,0,3.85,0l.69-.41a1.22,1.22,0,0,0,0-2.27l-4.4-2.55a4.22,4.22,0,0,0-3.85,0l-.69.42A1.19,1.19,0,0,0,314.73,192.08Z"/><path class="cls-4" d="M294.11,180.19l4.46,2.61a4.22,4.22,0,0,0,3.85,0l.69-.41a1.22,1.22,0,0,0,0-2.27l-4.47-2.61a4.22,4.22,0,0,0-3.85,0l-.68.41A1.19,1.19,0,0,0,294.11,180.19Z"/><path class="cls-4" d="M286.75,178l-4.54-2.61a4.22,4.22,0,0,0-3.85,0l-4.4,2.54c-1,.62-1,1.65,0,2.2l4.54,2.61a4.22,4.22,0,0,0,3.85,0l4.4-2.54A1.17,1.17,0,0,0,286.75,178Z"/><path class="cls-4" d="M296.79,183.83l-4.47-2.61a4.22,4.22,0,0,0-3.85,0l-4.4,2.55a1.21,1.21,0,0,0,0,2.26l4.47,2.62a4.22,4.22,0,0,0,3.85,0l4.4-2.55C297.89,185.42,297.89,184.45,296.79,183.83Z"/><path class="cls-4" d="M304.21,186l5,2.81a4.22,4.22,0,0,0,3.85,0l.69-.41a1.22,1.22,0,0,0,0-2.27l-4.95-2.82a4.28,4.28,0,0,0-3.85,0l-.69.42C303.11,184.38,303.11,185.35,304.21,186Z"/><path class="cls-4" d="M307.38,189.88l-5-2.81a4.22,4.22,0,0,0-3.85,0l-4.4,2.54a1.22,1.22,0,0,0,0,2.27l4.95,2.89a4.28,4.28,0,0,0,3.85,0l4.41-2.55A1.27,1.27,0,0,0,307.38,189.88Z"/><path class="cls-4" d="M239.24,181.5a1.22,1.22,0,0,0,0,2.27l4.95,2.81a4.22,4.22,0,0,0,3.85,0l4.33-2.54a1.22,1.22,0,0,0,0-2.27l-5-2.89a4.28,4.28,0,0,0-3.85,0Z"/><path class="cls-4" d="M262.34,189.82a1.22,1.22,0,0,0,0-2.27l-4.4-2.55a4.22,4.22,0,0,0-3.85,0l-4.33,2.55a1.22,1.22,0,0,0,0,2.27l4.4,2.54a4.22,4.22,0,0,0,3.85,0Z"/><path class="cls-4" d="M279.46,185.28l-4.54-2.61a4.22,4.22,0,0,0-3.85,0l-4.95,2.88a1.22,1.22,0,0,0,0,2.27l4.54,2.61a4.22,4.22,0,0,0,3.85,0l4.88-2.88A1.21,1.21,0,0,0,279.46,185.28Z"/><path class="cls-4" d="M289.57,191.12l-4.47-2.61a4.22,4.22,0,0,0-3.85,0l-4.88,2.82a1.22,1.22,0,0,0,0,2.27l4.47,2.61a4.22,4.22,0,0,0,3.85,0l4.95-2.89C290.6,192.77,290.6,191.74,289.57,191.12Z"/><path class="cls-4" d="M300.09,197.24l-4.95-2.89a4.22,4.22,0,0,0-3.85,0l-5,2.89a1.22,1.22,0,0,0,0,2.27l5,2.89a4.22,4.22,0,0,0,3.85,0l4.88-2.89C301.12,198.82,301.12,197.79,300.09,197.24Z"/><path class="cls-4" d="M269.91,201.43l4.46,2.62a4.22,4.22,0,0,0,3.85,0l4.34-2.55a1.22,1.22,0,0,0,0-2.27L278,196.62a4.22,4.22,0,0,0-3.85,0l-4.33,2.55A1.2,1.2,0,0,0,269.91,201.43Z"/><path class="cls-4" d="M310.06,203l-4.4-2.55a4.22,4.22,0,0,0-3.85,0l-4.89,2.89a1.22,1.22,0,0,0,0,2.27l4.4,2.54a4.22,4.22,0,0,0,3.85,0l5-2.88A1.24,1.24,0,0,0,310.06,203Z"/><path class="cls-4" d="M280,207.28,285,210.1a4.22,4.22,0,0,0,3.85,0l4.33-2.55a1.22,1.22,0,0,0,0-2.27l-4.95-2.88a4.22,4.22,0,0,0-3.85,0L280,204.94C278.91,205.63,278.91,206.59,280,207.28Z"/><path class="cls-4" d="M264.06,209.75l4.47,2.62a4.28,4.28,0,0,0,3.85,0l4.54-2.62a1.22,1.22,0,0,0,0-2.27l-4.54-2.61a4.22,4.22,0,0,0-3.85,0L264,207.48C263,208.1,263,209.13,264.06,209.75Z"/><path class="cls-4" d="M245.36,210.65l4.47,2.61a4.22,4.22,0,0,0,3.85,0l4.54-2.61c1-.62,1-1.65,0-2.2l-4.47-2.62a4.28,4.28,0,0,0-3.85,0l-4.54,2.62C244.26,209,244.26,210,245.36,210.65Z"/><path class="cls-4" d="M320.23,208.86l-4.54-2.61a4.22,4.22,0,0,0-3.85,0L307,209.13a1.22,1.22,0,0,0,0,2.27L311.5,214a4.22,4.22,0,0,0,3.85,0l4.88-2.89C321.26,210.44,321.26,209.41,320.23,208.86Z"/><path class="cls-4" d="M290.53,213.33l4.4,2.54a4.22,4.22,0,0,0,3.85,0l4.33-2.54a1.22,1.22,0,0,0,0-2.27l-4.4-2.54a4.22,4.22,0,0,0-3.85,0l-4.4,2.47A1.26,1.26,0,0,0,290.53,213.33Z"/><path class="cls-4" d="M274.17,215.6l4.95,2.89a4.28,4.28,0,0,0,3.85,0l4.54-2.62a1.22,1.22,0,0,0,0-2.27l-4.95-2.82a4.28,4.28,0,0,0-3.85,0l-4.54,2.62C273.07,214,273.07,215,274.17,215.6Z"/><path class="cls-4" d="M329.65,214.29l-3.85-2.2a4.22,4.22,0,0,0-3.85,0l-4.88,2.82a1.22,1.22,0,0,0,0,2.27l3.85,2.2a4.22,4.22,0,0,0,3.85,0l5-2.89A1.18,1.18,0,0,0,329.65,214.29Z"/><path class="cls-4" d="M300.5,219.1l4.54,2.62a4.22,4.22,0,0,0,3.85,0l4.33-2.55a1.22,1.22,0,0,0,0-2.27l-4.61-2.61a4.22,4.22,0,0,0-3.85,0l-4.33,2.55A1.2,1.2,0,0,0,300.5,219.1Z"/><path class="cls-4" d="M284.69,221.65l4.4,2.54a4.22,4.22,0,0,0,3.85,0l4.53-2.61a1.22,1.22,0,0,0,0-2.27l-4.4-2.54a4.22,4.22,0,0,0-3.85,0l-4.53,2.61C283.59,220,283.66,221,284.69,221.65Z"/><path class="cls-4" d="M340.17,220.34l-4.95-2.82a4.22,4.22,0,0,0-3.85,0l-4.88,2.82a1.22,1.22,0,0,0,0,2.27l4.95,2.82a4.22,4.22,0,0,0,3.85,0l4.88-2.89C341.27,222,341.27,221,340.17,220.34Z"/><path class="cls-4" d="M310.68,225l3.85,2.2a4.22,4.22,0,0,0,3.85,0l4.33-2.55a1.21,1.21,0,0,0,0-2.26l-3.85-2.2a4.22,4.22,0,0,0-3.85,0l-4.33,2.54A1.19,1.19,0,0,0,310.68,225Z"/><path class="cls-4" d="M294.66,227.42l4.53,2.62a4.28,4.28,0,0,0,3.85,0l4.54-2.62c1-.62,1-1.65,0-2.2L303,222.61a4.22,4.22,0,0,0-3.85,0l-4.53,2.61C293.62,225.77,293.62,226.8,294.66,227.42Z"/><path class="cls-4" d="M320.09,230.38l5,2.82a4.22,4.22,0,0,0,3.85,0l4.34-2.55a1.21,1.21,0,0,0,0-2.26l-5-2.82a4.22,4.22,0,0,0-3.85,0l-4.34,2.54C319,228.8,319,229.76,320.09,230.38Z"/><path class="cls-4" d="M304.83,233.27l3.85,2.2a4.22,4.22,0,0,0,3.85,0l4.54-2.62a1.17,1.17,0,0,0,0-2.2l-3.85-2.2a4.28,4.28,0,0,0-3.85,0l-4.54,2.62C303.73,231.69,303.73,232.65,304.83,233.27Z"/><path class="cls-4" d="M330.61,236.5,335,239a4.22,4.22,0,0,0,3.85,0l4.33-2.54a1.22,1.22,0,0,0,0-2.27l-4.4-2.54a4.22,4.22,0,0,0-3.85,0l-4.33,2.54A1.22,1.22,0,0,0,330.61,236.5Z"/><path class="cls-4" d="M314.25,238.7l4.95,2.89a4.28,4.28,0,0,0,3.85,0l4.54-2.62a1.22,1.22,0,0,0,0-2.27l-4.95-2.88a4.22,4.22,0,0,0-3.85,0l-4.54,2.61C313.15,237.12,313.15,238.08,314.25,238.7Z"/><path class="cls-4" d="M317.48,242.55l-53.69-31a4.22,4.22,0,0,0-3.85,0l-4.54,2.61a1.22,1.22,0,0,0,0,2.27l53.69,31a4.22,4.22,0,0,0,3.85,0l4.54-2.61A1.19,1.19,0,0,0,317.48,242.55Z"/><path class="cls-4" d="M327.45,248.32l-4.33-2.54a4.22,4.22,0,0,0-3.85,0l-4.54,2.61a1.22,1.22,0,0,0,0,2.27l4.4,2.54a4.22,4.22,0,0,0,3.85,0l4.54-2.61C328.55,249.9,328.55,248.94,327.45,248.32Z"/><path class="cls-4" d="M337,253.82l-3.92-2.27a4.28,4.28,0,0,0-3.85,0l-4.54,2.62a1.22,1.22,0,0,0,0,2.27l3.92,2.27a4.28,4.28,0,0,0,3.85,0l4.54-2.62C338,255.4,338,254.44,337,253.82Z"/><path class="cls-4" d="M235.19,204.73l4.53,2.62a4.22,4.22,0,0,0,3.85,0l4.54-2.62a1.21,1.21,0,0,0,0-2.26l-4.54-2.62a4.22,4.22,0,0,0-3.85,0l-4.53,2.62C234.15,203.15,234.15,204.12,235.19,204.73Z"/><path class="cls-4" d="M225.22,199l4.4,2.54a4.22,4.22,0,0,0,3.85,0l4.53-2.61a1.22,1.22,0,0,0,0-2.27l-4.4-2.54a4.22,4.22,0,0,0-3.85,0l-4.53,2.61C224.12,197.38,224.12,198.34,225.22,199Z"/><path class="cls-4" d="M228,190.92,223.09,188a4.24,4.24,0,0,0-3.86,0l-4.53,2.61a1.22,1.22,0,0,0,0,2.27l5,2.89a4.22,4.22,0,0,0,3.85,0l4.54-2.62C229.07,192.5,229.07,191.53,228,190.92Z"/><path class="cls-4" d="M389.05,260.7l-5.43-3.16a4.22,4.22,0,0,0-3.85,0l-4.33,2.54a1.22,1.22,0,0,0,0,2.27l5.43,3.16a4.22,4.22,0,0,0,3.85,0l4.33-2.54A1.22,1.22,0,0,0,389.05,260.7Z"/><path class="cls-4" d="M379.15,266.47l-5.43-3.16a4.22,4.22,0,0,0-3.85,0l-4.54,2.61a1.22,1.22,0,0,0,0,2.27l5.43,3.17a4.28,4.28,0,0,0,3.85,0l4.54-2.62C380.18,268.06,380.18,267.09,379.15,266.47Z"/><path class="cls-4" d="M262.34,206.52l4.54-2.61a1.22,1.22,0,0,0,0-2.27L262.34,199a4.22,4.22,0,0,0-3.85,0L254,201.64a1.22,1.22,0,0,0,0,2.27l4.54,2.61A4.22,4.22,0,0,0,262.34,206.52Z"/><path class="cls-4" d="M263.44,162.45l4.95,2.82a4.22,4.22,0,0,0,3.85,0l.69-.41a1.22,1.22,0,0,0,0-2.27L268,159.77a4.22,4.22,0,0,0-3.85,0l-.69.41C262.34,160.87,262.34,161.83,263.44,162.45Z"/><path class="cls-4" d="M252.51,156.13l5.36,3.09a4.22,4.22,0,0,0,3.85,0l.69-.41a1.22,1.22,0,0,0,0-2.27l-5.36-3.09a4.22,4.22,0,0,0-3.85,0l-.69.41C251.41,154.55,251.41,155.51,252.51,156.13Z"/><path class="cls-4" d="M242.47,162l5.37,3.09a4.22,4.22,0,0,0,3.85,0l4.4-2.54a1.22,1.22,0,0,0,0-2.27l-5.37-3.09a4.22,4.22,0,0,0-3.85,0l-4.4,2.54A1.19,1.19,0,0,0,242.47,162Z"/><path class="cls-4" d="M266.61,166.37l-5-2.82a4.22,4.22,0,0,0-3.85,0l-4.4,2.55a1.21,1.21,0,0,0,0,2.26l5,2.89a4.22,4.22,0,0,0,3.85,0l4.41-2.54A1.26,1.26,0,0,0,266.61,166.37Z"/><path class="cls-4" d="M232,168l8.05,4.61a4.22,4.22,0,0,0,3.85,0l5-2.89a1.22,1.22,0,0,0,0-2.27l-8.05-4.61a4.28,4.28,0,0,0-3.85,0L232,165.75C230.92,166.44,230.92,167.47,232,168Z"/><path class="cls-4" d="M250.52,170.84l-5,2.89a1.22,1.22,0,0,0,0,2.27l5,2.88a4.22,4.22,0,0,0,3.85,0l4.95-2.88a1.22,1.22,0,0,0,0-2.27l-4.95-2.82A4,4,0,0,0,250.52,170.84Z"/><path class="cls-4" d="M222.05,173.8l11.55,6.67a4.28,4.28,0,0,0,3.85,0l4.34-2.55a1.22,1.22,0,0,0,0-2.27L230.24,169a4.22,4.22,0,0,0-3.85,0l-4.4,2.55A1.23,1.23,0,0,0,222.05,173.8Z"/><path class="cls-4" d="M213,189.68l4.54-2.61c1-.62,1-1.65,0-2.2l-7.15-4.13a4.22,4.22,0,0,0-3.85,0L202,183.35a1.22,1.22,0,0,0,0,2.27l7.22,4.13A4.3,4.3,0,0,0,213,189.68Z"/><path class="cls-4" d="M212,179.71l15.81,9.14a4.22,4.22,0,0,0,3.85,0l4.54-2.61a1.22,1.22,0,0,0,0-2.27l-15.82-9.14a4.22,4.22,0,0,0-3.85,0L212,177.44A1.19,1.19,0,0,0,212,179.71Z"/><path class="cls-4" d="M233.4,189.82a1.17,1.17,0,0,0,0,2.2l4.95,2.88a4.22,4.22,0,0,0,3.85,0l4.54-2.61a1.22,1.22,0,0,0,0-2.27l-5-2.89a4.28,4.28,0,0,0-3.85,0Z"/><path class="cls-4" d="M252.3,193.25a4.22,4.22,0,0,0-3.85,0l-4.53,2.62a1.21,1.21,0,0,0,0,2.26l4.4,2.55a4.22,4.22,0,0,0,3.85,0l4.53-2.61c1-.62,1-1.65,0-2.2Z"/><path class="cls-4" d="M383.55,253.34l4.95-2.89a1.21,1.21,0,0,0,0-2.26l-12.3-7.09a4.28,4.28,0,0,0-3.85,0l-5,2.89a1.22,1.22,0,0,0,0,2.27l12.23,7A4.16,4.16,0,0,0,383.55,253.34Z"/><path class="cls-4" d="M357.08,240.28l4.75,2.75a4.22,4.22,0,0,0,3.85,0l4.95-2.89a1.22,1.22,0,0,0,0-2.27l-4.75-2.75a4.22,4.22,0,0,0-3.85,0L357.08,238C356.05,238.7,356.05,239.66,357.08,240.28Z"/><path class="cls-4" d="M373.65,259.12l4.33-2.55a1.22,1.22,0,0,0,0-2.27l-19-11a4.28,4.28,0,0,0-3.85,0l-4.33,2.55a1.22,1.22,0,0,0,0,2.27l19,11A4.22,4.22,0,0,0,373.65,259.12Z"/><path class="cls-4" d="M340.58,242.2l4.54,2.62a4.22,4.22,0,0,0,3.85,0l4.33-2.55a1.22,1.22,0,0,0,0-2.27l-4.54-2.61a4.22,4.22,0,0,0-3.85,0l-4.33,2.55C339.48,240.62,339.55,241.59,340.58,242.2Z"/><path class="cls-4" d="M259.73,195.52l4.54,2.61a4.22,4.22,0,0,0,3.85,0l4.33-2.54a1.22,1.22,0,0,0,0-2.27l-4.54-2.61a4.22,4.22,0,0,0-3.85,0l-4.33,2.54C258.63,193.94,258.63,194.9,259.73,195.52Z"/><path class="cls-4" d="M409.4,248.8,404,245.64a4.22,4.22,0,0,0-3.85,0l-4.4,2.55a1.17,1.17,0,0,0,0,2.2l5.43,3.16a4.22,4.22,0,0,0,3.85,0l4.4-2.55C410.5,250.45,410.5,249.42,409.4,248.8Z"/><path class="cls-4" d="M399.5,254.58l-5.43-3.16a4.22,4.22,0,0,0-3.85,0l-5,2.88a1.22,1.22,0,0,0,0,2.27l5.43,3.17a4.22,4.22,0,0,0,3.85,0l4.95-2.89A1.19,1.19,0,0,0,399.5,254.58Z"/><path class="cls-4" d="M336.87,206.93l-3.85-2.2a4.28,4.28,0,0,0-3.85,0l-4.4,2.55c-1,.62-1,1.65,0,2.2l3.85,2.2a4.22,4.22,0,0,0,3.85,0l4.4-2.55C338,208.58,338,207.55,336.87,206.93Z"/><path class="cls-4" d="M415.8,245.16,410.37,242a4.22,4.22,0,0,0-3.85,0l-.69.41a1.22,1.22,0,0,0,0,2.27l5.43,3.16a4.22,4.22,0,0,0,3.85,0l.69-.41C416.9,246.74,416.9,245.78,415.8,245.16Z"/><path class="cls-4" d="M385.27,232.79l5,2.88a4.22,4.22,0,0,0,3.85,0l.69-.41a1.22,1.22,0,0,0,0-2.27l-4.95-2.89a4.28,4.28,0,0,0-3.85,0l-.69.42C384.24,231.2,384.24,232.17,385.27,232.79Z"/><path class="cls-4" d="M395.86,238.9l4.4,2.55a4.22,4.22,0,0,0,3.85,0l.69-.41a1.22,1.22,0,0,0,0-2.27l-4.4-2.55a4.22,4.22,0,0,0-3.85,0l-.69.42A1.19,1.19,0,0,0,395.86,238.9Z"/><path class="cls-4" d="M394.07,247.22l4.4-2.54c1-.62,1-1.65,0-2.2l-14.92-8.59a4.22,4.22,0,0,0-3.85,0l-4.4,2.54a1.22,1.22,0,0,0,0,2.27l14.92,8.59A4.22,4.22,0,0,0,394.07,247.22Z"/><path class="cls-4" d="M375,226.87l4.74,2.75a4.22,4.22,0,0,0,3.85,0l.69-.41a1.22,1.22,0,0,0,0-2.27l-4.74-2.75a4.22,4.22,0,0,0-3.85,0l-.69.41A1.19,1.19,0,0,0,375,226.87Z"/><path class="cls-4" d="M364.78,221l4.54,2.61a4.22,4.22,0,0,0,3.85,0l.69-.41a1.22,1.22,0,0,0,0-2.27l-4.54-2.61a4.22,4.22,0,0,0-3.85,0l-.69.41C363.68,219.38,363.75,220.34,364.78,221Z"/><path class="cls-4" d="M354.81,215.25l4.4,2.55a4.22,4.22,0,0,0,3.85,0l.69-.41a1.22,1.22,0,0,0,0-2.27l-4.4-2.55a4.22,4.22,0,0,0-3.85,0l-.69.42A1.21,1.21,0,0,0,354.81,215.25Z"/><path class="cls-4" d="M357.43,218.76l-4.4-2.54a4.22,4.22,0,0,0-3.85,0l-4.4,2.54a1.22,1.22,0,0,0,0,2.27l4.4,2.54a4.22,4.22,0,0,0,3.85,0l4.4-2.54C358.53,220.41,358.46,219.38,357.43,218.76Z"/><path class="cls-4" d="M367.6,224.67l-4.6-2.61a4.22,4.22,0,0,0-3.85,0l-4.4,2.54a1.22,1.22,0,0,0,0,2.27l4.53,2.62a4.28,4.28,0,0,0,3.85,0l4.4-2.55C368.63,226.25,368.63,225.29,367.6,224.67Z"/><path class="cls-4" d="M373.51,235.4l4.4-2.55a1.17,1.17,0,0,0,0-2.2l-4.74-2.75a4.28,4.28,0,0,0-3.85,0l-4.4,2.55a1.22,1.22,0,0,0,0,2.27l4.74,2.75A4.44,4.44,0,0,0,373.51,235.4Z"/><path class="cls-4" d="M324.7,197.86l4.61,2.61a4.22,4.22,0,0,0,3.85,0l.68-.41a1.22,1.22,0,0,0,0-2.27l-4.6-2.61a4.22,4.22,0,0,0-3.85,0l-.69.41C323.6,196.21,323.67,197.24,324.7,197.86Z"/><path class="cls-4" d="M369.05,272.32l-5.44-3.1a4.28,4.28,0,0,0-3.85,0l-4.53,2.62a1.22,1.22,0,0,0,0,2.27l5.43,3.09a4.22,4.22,0,0,0,3.85,0l4.54-2.61A1.22,1.22,0,0,0,369.05,272.32Z"/><path class="cls-9" d="M347.53,259.94l-4.95-2.88a4.22,4.22,0,0,0-3.85,0l-4.54,2.61a1.22,1.22,0,0,0,0,2.27l4.95,2.88a4.22,4.22,0,0,0,3.85,0l4.54-2.61C348.63,261.52,348.63,260.56,347.53,259.94Z"/><path class="cls-9" d="M354.88,262.14l4.88,2.82a4.22,4.22,0,0,0,3.85,0l4.54-2.61a1.22,1.22,0,0,0,0-2.27l-4.88-2.82a4.22,4.22,0,0,0-3.85,0l-4.54,2.61C353.78,260.56,353.78,261.52,354.88,262.14Z"/><path class="cls-9" d="M358.05,265.92l-4.89-2.81a4.22,4.22,0,0,0-3.85,0l-4.53,2.61a1.22,1.22,0,0,0,0,2.27l4.88,2.82a4.28,4.28,0,0,0,3.85,0l4.54-2.62A1.22,1.22,0,0,0,358.05,265.92Z"/><path class="cls-9" d="M334.74,250.59l14.5,8.39a4.24,4.24,0,0,0,3.86,0l4.53-2.61a1.22,1.22,0,0,0,0-2.27l-14.5-8.39a4.22,4.22,0,0,0-3.85,0l-4.54,2.61C333.71,248.94,333.71,249.9,334.74,250.59Z"/><path class="cls-9" d="M324.77,244.82l4.4,2.54a4.22,4.22,0,0,0,3.85,0l4.54-2.61a1.22,1.22,0,0,0,0-2.27l-4.4-2.54a4.22,4.22,0,0,0-3.85,0l-4.54,2.61A1.22,1.22,0,0,0,324.77,244.82Z"/><path class="cls-9" d="M337,228.66l4.4,2.54a4.22,4.22,0,0,0,3.85,0l4.95-2.88c1-.62,1-1.65,0-2.2l-4.4-2.55a4.22,4.22,0,0,0-3.85,0l-4.88,2.82C335.91,227.08,335.91,228,337,228.66Z"/><path class="cls-9" d="M360.31,234.23a1.22,1.22,0,0,0,0-2.27l-4.53-2.61a4.22,4.22,0,0,0-3.85,0L347,232.24a1.21,1.21,0,0,0,0,2.26l4.53,2.62a4.22,4.22,0,0,0,3.85,0Z"/><path class="cls-9" d="M334.88,203.7l3.85,2.2a4.22,4.22,0,0,0,3.85,0l.68-.41a1.22,1.22,0,0,0,0-2.27l-3.85-2.2a4.22,4.22,0,0,0-3.85,0l-.68.41A1.19,1.19,0,0,0,334.88,203.7Z"/><path class="cls-9" d="M344.29,209.13l4.95,2.89a4.24,4.24,0,0,0,3.86,0l.68-.41a1.22,1.22,0,0,0,0-2.27l-4.95-2.89a4.22,4.22,0,0,0-3.85,0l-.69.42A1.19,1.19,0,0,0,344.29,209.13Z"/><path class="cls-9" d="M347.46,213.05l-4.95-2.88a4.22,4.22,0,0,0-3.85,0l-4.4,2.54a1.22,1.22,0,0,0,0,2.27l4.95,2.89a4.22,4.22,0,0,0,3.85,0l4.4-2.55C348.49,214.64,348.49,213.67,347.46,213.05Z"/><path class="cls-9" d="M317.34,195.66l-4.4-2.54a4.22,4.22,0,0,0-3.85,0l-4.4,2.54a1.22,1.22,0,0,0,0,2.27l4.4,2.54a4.22,4.22,0,0,0,3.85,0l4.4-2.54A1.22,1.22,0,0,0,317.34,195.66Z"/><path class="cls-9" d="M327.52,201.5,323,198.89a4.22,4.22,0,0,0-3.85,0l-4.4,2.54a1.22,1.22,0,0,0,0,2.27l4.54,2.62a4.28,4.28,0,0,0,3.85,0l4.4-2.55A1.22,1.22,0,0,0,327.52,201.5Z"/><path class="cls-9" d="M269.29,179.43l-4.4-2.54a4.22,4.22,0,0,0-3.85,0l-5,2.89a1.22,1.22,0,0,0,0,2.27l4.4,2.54a4.22,4.22,0,0,0,3.85,0l4.88-2.89A1.19,1.19,0,0,0,269.29,179.43Z"/><path class="cls-9" d="M276.57,172.15l-4.4-2.55a4.22,4.22,0,0,0-3.85,0l-4.4,2.55a1.22,1.22,0,0,0,0,2.27l4.4,2.54a4.22,4.22,0,0,0,3.85,0l4.4-2.54C277.67,173.73,277.61,172.7,276.57,172.15Z"/><path class="cls-9" d="M274,168.57l4.4,2.55a4.28,4.28,0,0,0,3.85,0l.69-.42a1.22,1.22,0,0,0,0-2.27l-4.4-2.54a4.22,4.22,0,0,0-3.85,0l-.69.41A1.22,1.22,0,0,0,274,168.57Z"/><path class="cls-9" d="M283.93,174.28l4.54,2.61a4.22,4.22,0,0,0,3.85,0l.69-.41a1.22,1.22,0,0,0,0-2.27l-4.54-2.61a4.22,4.22,0,0,0-3.85,0l-.69.41C282.9,172.7,282.9,173.66,283.93,174.28Z"/><path class="cls-9" d="M314.73,192.08l4.4,2.55a4.22,4.22,0,0,0,3.85,0l.69-.41a1.22,1.22,0,0,0,0-2.27l-4.4-2.55a4.22,4.22,0,0,0-3.85,0l-.69.42A1.19,1.19,0,0,0,314.73,192.08Z"/><path class="cls-9" d="M294.11,180.19l4.46,2.61a4.22,4.22,0,0,0,3.85,0l.69-.41a1.22,1.22,0,0,0,0-2.27l-4.47-2.61a4.22,4.22,0,0,0-3.85,0l-.68.41A1.19,1.19,0,0,0,294.11,180.19Z"/><path class="cls-9" d="M286.75,178l-4.54-2.61a4.22,4.22,0,0,0-3.85,0l-4.4,2.54c-1,.62-1,1.65,0,2.2l4.54,2.61a4.22,4.22,0,0,0,3.85,0l4.4-2.54A1.17,1.17,0,0,0,286.75,178Z"/><path class="cls-9" d="M296.79,183.83l-4.47-2.61a4.22,4.22,0,0,0-3.85,0l-4.4,2.55a1.21,1.21,0,0,0,0,2.26l4.47,2.62a4.22,4.22,0,0,0,3.85,0l4.4-2.55C297.89,185.42,297.89,184.45,296.79,183.83Z"/><path class="cls-9" d="M304.21,186l5,2.81a4.22,4.22,0,0,0,3.85,0l.69-.41a1.22,1.22,0,0,0,0-2.27l-4.95-2.82a4.28,4.28,0,0,0-3.85,0l-.69.42C303.11,184.38,303.11,185.35,304.21,186Z"/><path class="cls-9" d="M307.38,189.88l-5-2.81a4.22,4.22,0,0,0-3.85,0l-4.4,2.54a1.22,1.22,0,0,0,0,2.27l4.95,2.89a4.28,4.28,0,0,0,3.85,0l4.41-2.55A1.27,1.27,0,0,0,307.38,189.88Z"/><path class="cls-9" d="M239.24,181.5a1.22,1.22,0,0,0,0,2.27l4.95,2.81a4.22,4.22,0,0,0,3.85,0l4.33-2.54a1.22,1.22,0,0,0,0-2.27l-5-2.89a4.28,4.28,0,0,0-3.85,0Z"/><path class="cls-9" d="M262.34,189.82a1.22,1.22,0,0,0,0-2.27l-4.4-2.55a4.22,4.22,0,0,0-3.85,0l-4.33,2.55a1.22,1.22,0,0,0,0,2.27l4.4,2.54a4.22,4.22,0,0,0,3.85,0Z"/><path class="cls-9" d="M279.46,185.28l-4.54-2.61a4.22,4.22,0,0,0-3.85,0l-4.95,2.88a1.22,1.22,0,0,0,0,2.27l4.54,2.61a4.22,4.22,0,0,0,3.85,0l4.88-2.88A1.21,1.21,0,0,0,279.46,185.28Z"/><path class="cls-9" d="M289.57,191.12l-4.47-2.61a4.22,4.22,0,0,0-3.85,0l-4.88,2.82a1.22,1.22,0,0,0,0,2.27l4.47,2.61a4.22,4.22,0,0,0,3.85,0l4.95-2.89C290.6,192.77,290.6,191.74,289.57,191.12Z"/><path class="cls-9" d="M300.09,197.24l-4.95-2.89a4.22,4.22,0,0,0-3.85,0l-5,2.89a1.22,1.22,0,0,0,0,2.27l5,2.89a4.22,4.22,0,0,0,3.85,0l4.88-2.89C301.12,198.82,301.12,197.79,300.09,197.24Z"/><path class="cls-9" d="M269.91,201.43l4.46,2.62a4.22,4.22,0,0,0,3.85,0l4.34-2.55a1.22,1.22,0,0,0,0-2.27L278,196.62a4.22,4.22,0,0,0-3.85,0l-4.33,2.55A1.2,1.2,0,0,0,269.91,201.43Z"/><path class="cls-9" d="M310.06,203l-4.4-2.55a4.22,4.22,0,0,0-3.85,0l-4.89,2.89a1.22,1.22,0,0,0,0,2.27l4.4,2.54a4.22,4.22,0,0,0,3.85,0l5-2.88A1.24,1.24,0,0,0,310.06,203Z"/><path class="cls-9" d="M280,207.28,285,210.1a4.22,4.22,0,0,0,3.85,0l4.33-2.55a1.22,1.22,0,0,0,0-2.27l-4.95-2.88a4.22,4.22,0,0,0-3.85,0L280,204.94C278.91,205.63,278.91,206.59,280,207.28Z"/><path class="cls-9" d="M264.06,209.75l4.47,2.62a4.28,4.28,0,0,0,3.85,0l4.54-2.62a1.22,1.22,0,0,0,0-2.27l-4.54-2.61a4.22,4.22,0,0,0-3.85,0L264,207.48C263,208.1,263,209.13,264.06,209.75Z"/><path class="cls-9" d="M245.36,210.65l4.47,2.61a4.22,4.22,0,0,0,3.85,0l4.54-2.61c1-.62,1-1.65,0-2.2l-4.47-2.62a4.28,4.28,0,0,0-3.85,0l-4.54,2.62C244.26,209,244.26,210,245.36,210.65Z"/><path class="cls-9" d="M320.23,208.86l-4.54-2.61a4.22,4.22,0,0,0-3.85,0L307,209.13a1.22,1.22,0,0,0,0,2.27L311.5,214a4.22,4.22,0,0,0,3.85,0l4.88-2.89C321.26,210.44,321.26,209.41,320.23,208.86Z"/><path class="cls-9" d="M290.53,213.33l4.4,2.54a4.22,4.22,0,0,0,3.85,0l4.33-2.54a1.22,1.22,0,0,0,0-2.27l-4.4-2.54a4.22,4.22,0,0,0-3.85,0l-4.4,2.47A1.26,1.26,0,0,0,290.53,213.33Z"/><path class="cls-9" d="M274.17,215.6l4.95,2.89a4.28,4.28,0,0,0,3.85,0l4.54-2.62a1.22,1.22,0,0,0,0-2.27l-4.95-2.82a4.28,4.28,0,0,0-3.85,0l-4.54,2.62C273.07,214,273.07,215,274.17,215.6Z"/><path class="cls-9" d="M329.65,214.29l-3.85-2.2a4.22,4.22,0,0,0-3.85,0l-4.88,2.82a1.22,1.22,0,0,0,0,2.27l3.85,2.2a4.22,4.22,0,0,0,3.85,0l5-2.89A1.18,1.18,0,0,0,329.65,214.29Z"/><path class="cls-9" d="M300.5,219.1l4.54,2.62a4.22,4.22,0,0,0,3.85,0l4.33-2.55a1.22,1.22,0,0,0,0-2.27l-4.61-2.61a4.22,4.22,0,0,0-3.85,0l-4.33,2.55A1.2,1.2,0,0,0,300.5,219.1Z"/><path class="cls-9" d="M284.69,221.65l4.4,2.54a4.22,4.22,0,0,0,3.85,0l4.53-2.61a1.22,1.22,0,0,0,0-2.27l-4.4-2.54a4.22,4.22,0,0,0-3.85,0l-4.53,2.61C283.59,220,283.66,221,284.69,221.65Z"/><path class="cls-9" d="M340.17,220.34l-4.95-2.82a4.22,4.22,0,0,0-3.85,0l-4.88,2.82a1.22,1.22,0,0,0,0,2.27l4.95,2.82a4.22,4.22,0,0,0,3.85,0l4.88-2.89C341.27,222,341.27,221,340.17,220.34Z"/><path class="cls-9" d="M310.68,225l3.85,2.2a4.22,4.22,0,0,0,3.85,0l4.33-2.55a1.21,1.21,0,0,0,0-2.26l-3.85-2.2a4.22,4.22,0,0,0-3.85,0l-4.33,2.54A1.19,1.19,0,0,0,310.68,225Z"/><path class="cls-9" d="M294.66,227.42l4.53,2.62a4.28,4.28,0,0,0,3.85,0l4.54-2.62c1-.62,1-1.65,0-2.2L303,222.61a4.22,4.22,0,0,0-3.85,0l-4.53,2.61C293.62,225.77,293.62,226.8,294.66,227.42Z"/><path class="cls-9" d="M320.09,230.38l5,2.82a4.22,4.22,0,0,0,3.85,0l4.34-2.55a1.21,1.21,0,0,0,0-2.26l-5-2.82a4.22,4.22,0,0,0-3.85,0l-4.34,2.54C319,228.8,319,229.76,320.09,230.38Z"/><path class="cls-9" d="M304.83,233.27l3.85,2.2a4.22,4.22,0,0,0,3.85,0l4.54-2.62a1.17,1.17,0,0,0,0-2.2l-3.85-2.2a4.28,4.28,0,0,0-3.85,0l-4.54,2.62C303.73,231.69,303.73,232.65,304.83,233.27Z"/><path class="cls-9" d="M330.61,236.5,335,239a4.22,4.22,0,0,0,3.85,0l4.33-2.54a1.22,1.22,0,0,0,0-2.27l-4.4-2.54a4.22,4.22,0,0,0-3.85,0l-4.33,2.54A1.22,1.22,0,0,0,330.61,236.5Z"/><path class="cls-9" d="M314.25,238.7l4.95,2.89a4.28,4.28,0,0,0,3.85,0l4.54-2.62a1.22,1.22,0,0,0,0-2.27l-4.95-2.88a4.22,4.22,0,0,0-3.85,0l-4.54,2.61C313.15,237.12,313.15,238.08,314.25,238.7Z"/><path class="cls-9" d="M317.48,242.55l-53.69-31a4.22,4.22,0,0,0-3.85,0l-4.54,2.61a1.22,1.22,0,0,0,0,2.27l53.69,31a4.22,4.22,0,0,0,3.85,0l4.54-2.61A1.19,1.19,0,0,0,317.48,242.55Z"/><path class="cls-9" d="M327.45,248.32l-4.33-2.54a4.22,4.22,0,0,0-3.85,0l-4.54,2.61a1.22,1.22,0,0,0,0,2.27l4.4,2.54a4.22,4.22,0,0,0,3.85,0l4.54-2.61C328.55,249.9,328.55,248.94,327.45,248.32Z"/><path class="cls-9" d="M337,253.82l-3.92-2.27a4.28,4.28,0,0,0-3.85,0l-4.54,2.62a1.22,1.22,0,0,0,0,2.27l3.92,2.27a4.28,4.28,0,0,0,3.85,0l4.54-2.62C338,255.4,338,254.44,337,253.82Z"/><path class="cls-9" d="M235.19,204.73l4.53,2.62a4.22,4.22,0,0,0,3.85,0l4.54-2.62a1.21,1.21,0,0,0,0-2.26l-4.54-2.62a4.22,4.22,0,0,0-3.85,0l-4.53,2.62C234.15,203.15,234.15,204.12,235.19,204.73Z"/><path class="cls-9" d="M225.22,199l4.4,2.54a4.22,4.22,0,0,0,3.85,0l4.53-2.61a1.22,1.22,0,0,0,0-2.27l-4.4-2.54a4.22,4.22,0,0,0-3.85,0l-4.53,2.61C224.12,197.38,224.12,198.34,225.22,199Z"/><path class="cls-9" d="M228,190.92,223.09,188a4.24,4.24,0,0,0-3.86,0l-4.53,2.61a1.22,1.22,0,0,0,0,2.27l5,2.89a4.22,4.22,0,0,0,3.85,0l4.54-2.62C229.07,192.5,229.07,191.53,228,190.92Z"/><path class="cls-9" d="M389.05,260.7l-5.43-3.16a4.22,4.22,0,0,0-3.85,0l-4.33,2.54a1.22,1.22,0,0,0,0,2.27l5.43,3.16a4.22,4.22,0,0,0,3.85,0l4.33-2.54A1.22,1.22,0,0,0,389.05,260.7Z"/><path class="cls-9" d="M379.15,266.47l-5.43-3.16a4.22,4.22,0,0,0-3.85,0l-4.54,2.61a1.22,1.22,0,0,0,0,2.27l5.43,3.17a4.28,4.28,0,0,0,3.85,0l4.54-2.62C380.18,268.06,380.18,267.09,379.15,266.47Z"/><path class="cls-9" d="M262.34,206.52l4.54-2.61a1.22,1.22,0,0,0,0-2.27L262.34,199a4.22,4.22,0,0,0-3.85,0L254,201.64a1.22,1.22,0,0,0,0,2.27l4.54,2.61A4.22,4.22,0,0,0,262.34,206.52Z"/><path class="cls-9" d="M263.44,162.45l4.95,2.82a4.22,4.22,0,0,0,3.85,0l.69-.41a1.22,1.22,0,0,0,0-2.27L268,159.77a4.22,4.22,0,0,0-3.85,0l-.69.41C262.34,160.87,262.34,161.83,263.44,162.45Z"/><path class="cls-9" d="M252.51,156.13l5.36,3.09a4.22,4.22,0,0,0,3.85,0l.69-.41a1.22,1.22,0,0,0,0-2.27l-5.36-3.09a4.22,4.22,0,0,0-3.85,0l-.69.41C251.41,154.55,251.41,155.51,252.51,156.13Z"/><path class="cls-9" d="M242.47,162l5.37,3.09a4.22,4.22,0,0,0,3.85,0l4.4-2.54a1.22,1.22,0,0,0,0-2.27l-5.37-3.09a4.22,4.22,0,0,0-3.85,0l-4.4,2.54A1.19,1.19,0,0,0,242.47,162Z"/><path class="cls-9" d="M266.61,166.37l-5-2.82a4.22,4.22,0,0,0-3.85,0l-4.4,2.55a1.21,1.21,0,0,0,0,2.26l5,2.89a4.22,4.22,0,0,0,3.85,0l4.41-2.54A1.26,1.26,0,0,0,266.61,166.37Z"/><path class="cls-9" d="M232,168l8.05,4.61a4.22,4.22,0,0,0,3.85,0l5-2.89a1.22,1.22,0,0,0,0-2.27l-8.05-4.61a4.28,4.28,0,0,0-3.85,0L232,165.75C230.92,166.44,230.92,167.47,232,168Z"/><path class="cls-9" d="M250.52,170.84l-5,2.89a1.22,1.22,0,0,0,0,2.27l5,2.88a4.22,4.22,0,0,0,3.85,0l4.95-2.88a1.22,1.22,0,0,0,0-2.27l-4.95-2.82A4,4,0,0,0,250.52,170.84Z"/><path class="cls-9" d="M222.05,173.8l11.55,6.67a4.28,4.28,0,0,0,3.85,0l4.34-2.55a1.22,1.22,0,0,0,0-2.27L230.24,169a4.22,4.22,0,0,0-3.85,0l-4.4,2.55A1.23,1.23,0,0,0,222.05,173.8Z"/><path class="cls-9" d="M213,189.68l4.54-2.61c1-.62,1-1.65,0-2.2l-7.15-4.13a4.22,4.22,0,0,0-3.85,0L202,183.35a1.22,1.22,0,0,0,0,2.27l7.22,4.13A4.3,4.3,0,0,0,213,189.68Z"/><path class="cls-9" d="M212,179.71l15.81,9.14a4.22,4.22,0,0,0,3.85,0l4.54-2.61a1.22,1.22,0,0,0,0-2.27l-15.82-9.14a4.22,4.22,0,0,0-3.85,0L212,177.44A1.19,1.19,0,0,0,212,179.71Z"/><path class="cls-9" d="M233.4,189.82a1.17,1.17,0,0,0,0,2.2l4.95,2.88a4.22,4.22,0,0,0,3.85,0l4.54-2.61a1.22,1.22,0,0,0,0-2.27l-5-2.89a4.28,4.28,0,0,0-3.85,0Z"/><path class="cls-9" d="M252.3,193.25a4.22,4.22,0,0,0-3.85,0l-4.53,2.62a1.21,1.21,0,0,0,0,2.26l4.4,2.55a4.22,4.22,0,0,0,3.85,0l4.53-2.61c1-.62,1-1.65,0-2.2Z"/><path class="cls-9" d="M383.55,253.34l4.95-2.89a1.21,1.21,0,0,0,0-2.26l-12.3-7.09a4.28,4.28,0,0,0-3.85,0l-5,2.89a1.22,1.22,0,0,0,0,2.27l12.23,7A4.16,4.16,0,0,0,383.55,253.34Z"/><path class="cls-9" d="M357.08,240.28l4.75,2.75a4.22,4.22,0,0,0,3.85,0l4.95-2.89a1.22,1.22,0,0,0,0-2.27l-4.75-2.75a4.22,4.22,0,0,0-3.85,0L357.08,238C356.05,238.7,356.05,239.66,357.08,240.28Z"/><path class="cls-9" d="M373.65,259.12l4.33-2.55a1.22,1.22,0,0,0,0-2.27l-19-11a4.28,4.28,0,0,0-3.85,0l-4.33,2.55a1.22,1.22,0,0,0,0,2.27l19,11A4.22,4.22,0,0,0,373.65,259.12Z"/><path class="cls-9" d="M340.58,242.2l4.54,2.62a4.22,4.22,0,0,0,3.85,0l4.33-2.55a1.22,1.22,0,0,0,0-2.27l-4.54-2.61a4.22,4.22,0,0,0-3.85,0l-4.33,2.55C339.48,240.62,339.55,241.59,340.58,242.2Z"/><path class="cls-9" d="M259.73,195.52l4.54,2.61a4.22,4.22,0,0,0,3.85,0l4.33-2.54a1.22,1.22,0,0,0,0-2.27l-4.54-2.61a4.22,4.22,0,0,0-3.85,0l-4.33,2.54C258.63,193.94,258.63,194.9,259.73,195.52Z"/><path class="cls-9" d="M409.4,248.8,404,245.64a4.22,4.22,0,0,0-3.85,0l-4.4,2.55a1.17,1.17,0,0,0,0,2.2l5.43,3.16a4.22,4.22,0,0,0,3.85,0l4.4-2.55C410.5,250.45,410.5,249.42,409.4,248.8Z"/><path class="cls-9" d="M399.5,254.58l-5.43-3.16a4.22,4.22,0,0,0-3.85,0l-5,2.88a1.22,1.22,0,0,0,0,2.27l5.43,3.17a4.22,4.22,0,0,0,3.85,0l4.95-2.89A1.19,1.19,0,0,0,399.5,254.58Z"/><path class="cls-9" d="M336.87,206.93l-3.85-2.2a4.28,4.28,0,0,0-3.85,0l-4.4,2.55c-1,.62-1,1.65,0,2.2l3.85,2.2a4.22,4.22,0,0,0,3.85,0l4.4-2.55C338,208.58,338,207.55,336.87,206.93Z"/><path class="cls-9" d="M415.8,245.16,410.37,242a4.22,4.22,0,0,0-3.85,0l-.69.41a1.22,1.22,0,0,0,0,2.27l5.43,3.16a4.22,4.22,0,0,0,3.85,0l.69-.41C416.9,246.74,416.9,245.78,415.8,245.16Z"/><path class="cls-9" d="M385.27,232.79l5,2.88a4.22,4.22,0,0,0,3.85,0l.69-.41a1.22,1.22,0,0,0,0-2.27l-4.95-2.89a4.28,4.28,0,0,0-3.85,0l-.69.42C384.24,231.2,384.24,232.17,385.27,232.79Z"/><path class="cls-9" d="M395.86,238.9l4.4,2.55a4.22,4.22,0,0,0,3.85,0l.69-.41a1.22,1.22,0,0,0,0-2.27l-4.4-2.55a4.22,4.22,0,0,0-3.85,0l-.69.42A1.19,1.19,0,0,0,395.86,238.9Z"/><path class="cls-9" d="M394.07,247.22l4.4-2.54c1-.62,1-1.65,0-2.2l-14.92-8.59a4.22,4.22,0,0,0-3.85,0l-4.4,2.54a1.22,1.22,0,0,0,0,2.27l14.92,8.59A4.22,4.22,0,0,0,394.07,247.22Z"/><path class="cls-9" d="M375,226.87l4.74,2.75a4.22,4.22,0,0,0,3.85,0l.69-.41a1.22,1.22,0,0,0,0-2.27l-4.74-2.75a4.22,4.22,0,0,0-3.85,0l-.69.41A1.19,1.19,0,0,0,375,226.87Z"/><path class="cls-9" d="M364.78,221l4.54,2.61a4.22,4.22,0,0,0,3.85,0l.69-.41a1.22,1.22,0,0,0,0-2.27l-4.54-2.61a4.22,4.22,0,0,0-3.85,0l-.69.41C363.68,219.38,363.75,220.34,364.78,221Z"/><path class="cls-9" d="M354.81,215.25l4.4,2.55a4.22,4.22,0,0,0,3.85,0l.69-.41a1.22,1.22,0,0,0,0-2.27l-4.4-2.55a4.22,4.22,0,0,0-3.85,0l-.69.42A1.21,1.21,0,0,0,354.81,215.25Z"/><path class="cls-9" d="M357.43,218.76l-4.4-2.54a4.22,4.22,0,0,0-3.85,0l-4.4,2.54a1.22,1.22,0,0,0,0,2.27l4.4,2.54a4.22,4.22,0,0,0,3.85,0l4.4-2.54C358.53,220.41,358.46,219.38,357.43,218.76Z"/><path class="cls-9" d="M367.6,224.67l-4.6-2.61a4.22,4.22,0,0,0-3.85,0l-4.4,2.54a1.22,1.22,0,0,0,0,2.27l4.53,2.62a4.28,4.28,0,0,0,3.85,0l4.4-2.55C368.63,226.25,368.63,225.29,367.6,224.67Z"/><path class="cls-9" d="M373.51,235.4l4.4-2.55a1.17,1.17,0,0,0,0-2.2l-4.74-2.75a4.28,4.28,0,0,0-3.85,0l-4.4,2.55a1.22,1.22,0,0,0,0,2.27l4.74,2.75A4.44,4.44,0,0,0,373.51,235.4Z"/><path class="cls-9" d="M324.7,197.86l4.61,2.61a4.22,4.22,0,0,0,3.85,0l.68-.41a1.22,1.22,0,0,0,0-2.27l-4.6-2.61a4.22,4.22,0,0,0-3.85,0l-.69.41C323.6,196.21,323.67,197.24,324.7,197.86Z"/><path class="cls-9" d="M369.05,272.32l-5.44-3.1a4.28,4.28,0,0,0-3.85,0l-4.53,2.62a1.22,1.22,0,0,0,0,2.27l5.43,3.09a4.22,4.22,0,0,0,3.85,0l4.54-2.61A1.22,1.22,0,0,0,369.05,272.32Z"/><path class="cls-8" d="M442.82,250.25a3,3,0,0,0-.83-1,4,4,0,0,0-3-.9,7,7,0,0,0-2.89.83c-.28.14-.28.14-5.43,3.09L421,257.81l-13.2,7.7-15.61,9.08-16.63,9.69-16.5,9.63L344,302.71c-4.67,2.68-8.87,5.15-12.44,7.22L323,314.88l-3.85,2.26c-.34.21-1,.76-1.79,1.31-3.16,2.48-7.63,6.6-10,8.87-1,1-.9,1.58-.69,1.92a.82.82,0,0,0,.34.35,2,2,0,0,0,1.38.07l.68-.21,1.72-.55,1.52-.48c3.23-1,5.29-1.79,5.5-1.86a45.3,45.3,0,0,0,6-2.47h.07c8.11-4.75,16.29-9.42,24.4-14.16l63.87-37.13,13.2-7.7,9.63-5.57c4.88-2.82,4.88-2.82,5.29-3.09a8.94,8.94,0,0,0,1.31-1,5.21,5.21,0,0,0,1.72-3.57A5.53,5.53,0,0,0,442.82,250.25Z"/><path class="cls-9" d="M320,316.46a7.84,7.84,0,0,1,2.06,1.58,8.29,8.29,0,0,1,2.13,5.57"/><path class="cls-9" d="M429.68,262.35a9.53,9.53,0,0,0-2.4-5.5,8.3,8.3,0,0,0-1.93-1.58m-2.4,1.44a4.47,4.47,0,0,1,2.75,1.65,6.93,6.93,0,0,1,1.78,5.36"/><path class="cls-4" d="M258.22,75.82a12.1,12.1,0,0,1-2.41,7.09,21.44,21.44,0,0,1-7.49,6.32c-12.79,7.15-33.14,7-45.38-.48A21.63,21.63,0,0,1,196.41,83h0A12,12,0,0,1,194,76V66.54c0,4.61,3,9.22,8.94,12.86,12.24,7.36,32.59,7.56,45.38.48,6.6-3.64,9.9-8.52,9.9-13.41Z"/><path class="cls-4" d="M258.22,66.41h0c0,5-3.3,9.83-9.9,13.47-12.79,7.15-33.14,7-45.38-.48-6-3.58-8.94-8.18-8.94-12.86,0-3.71,1.93-7.49,5.78-10.65l2-1.65c-7.9,6.6-7,15.67,3,21.72,11.34,6.81,30.11,7,41.94.41,10.72-6,12-15.46,3.78-22.27l2,1.65C256.22,59,258.15,62.69,258.22,66.41Z"/><path class="cls-2" d="M255.81,83l-6.32,38a9.06,9.06,0,0,1-2.14,4.47c-.27.35-.55.62-.82,1a15.89,15.89,0,0,1-4.13,3c-9.28,5.16-24.06,5-33-.34a18.05,18.05,0,0,1-3.37-2.62h0a10.22,10.22,0,0,1-.82-1h0a9.25,9.25,0,0,1-2.13-4.47l-6.53-37.95a21.4,21.4,0,0,0,6.53,5.71c12.24,7.36,32.59,7.56,45.37.48A23,23,0,0,0,255.81,83Z"/><path class="cls-4" d="M250.38,54.17c8.25,6.8,6.94,16.29-3.78,22.27C234.77,83,216,82.84,204.66,76c-10-6-10.86-15.12-3-21.72a25.32,25.32,0,0,1,3.85-2.62c11.83-6.6,30.6-6.39,41.94.42A20.68,20.68,0,0,1,250.38,54.17ZM239.1,71.91c6.54-3.65,7.57-9.42,2.89-13.69l-2.89-2.61-.06-.07a9.6,9.6,0,0,0-1.93-1.37c-5.84-3.51-15.47-3.65-21.59-.21a14.47,14.47,0,0,0-2.34,1.65l-.13.14-2.82,2.61c-4.47,4.13-3.71,9.63,2.34,13.27C219.72,76,231.61,76,239.1,71.91Z"/><path class="cls-4" d="M246.53,126.36a15.66,15.66,0,0,1-4.13,3c-9.28,5.16-24.06,5-33-.34a18.43,18.43,0,0,1-3.37-2.61h0a11.9,11.9,0,0,1-.82-1c.69,2.41,2.54,4.68,5.64,6.54,8.18,4.88,21.72,5.08,30.25.27,3.5-1.92,5.57-4.4,6.32-6.94C247.08,125.74,246.8,126.08,246.53,126.36Z"/><path class="cls-4" d="M241.92,58.22c4.68,4.27,3.72,10-2.88,13.69-7.5,4.19-19.32,4-26.54-.28-6.12-3.64-6.81-9.14-2.34-13.27L213,55.75c-3.51,3.37-2.89,7.77,2.06,10.72,5.84,3.51,15.47,3.58,21.59.21,5.29-3,6.12-7.56,2.41-11.07Z"/><path class="cls-4" d="M239,55.61c3.71,3.44,2.88,8.11-2.41,11.07-6,3.37-15.74,3.3-21.59-.21-4.88-2.95-5.57-7.35-2.06-10.72l.14-.14A10.82,10.82,0,0,1,215.45,54c6.12-3.37,15.75-3.3,21.59.21A12.1,12.1,0,0,1,239,55.54.07.07,0,0,1,239,55.61Zm-9.84,6.6c1.79-1,1.86-2.68.14-3.71a7.14,7.14,0,0,0-6.46-.07c-1.79,1-1.86,2.68-.14,3.71a5.77,5.77,0,0,0,1.65.62,6.78,6.78,0,0,0,4.81-.55Z"/><path class="cls-4" d="M229.34,58.43c1.72,1,1.72,2.75-.14,3.71a5.67,5.67,0,0,1-1.44.55c.07-.07.21-.07.28-.13a1.24,1.24,0,0,0,.06-2.34,4.64,4.64,0,0,0-4-.07,1.24,1.24,0,0,0-.07,2.34l.41.2a7.4,7.4,0,0,1-1.65-.62c-1.72-1-1.72-2.75.14-3.71A7.14,7.14,0,0,1,229.34,58.43Z"/><path class="cls-4" d="M228.17,60.29a1.24,1.24,0,0,1-.07,2.33c-.06.07-.2.07-.27.14a6.87,6.87,0,0,1-3.37,0l-.41-.2a1.24,1.24,0,0,1,.07-2.34A4.42,4.42,0,0,1,228.17,60.29Z"/><path class="cls-5" d="M247.35,125.46c-.68,2.55-2.81,5-6.32,7-8.53,4.74-22.07,4.6-30.25-.28-3.1-1.85-4.95-4.12-5.64-6.53"/><path class="cls-5" d="M255.81,83l-6.32,38a9.06,9.06,0,0,1-2.14,4.47c-.27.35-.55.62-.82,1a15.89,15.89,0,0,1-4.13,3c-9.28,5.16-24.06,5-33-.34a18.05,18.05,0,0,1-3.37-2.62h0a10.22,10.22,0,0,1-.82-1h0a9.25,9.25,0,0,1-2.13-4.47l-6.53-37.95"/><path class="cls-5" d="M258.22,66.47c0,4.89-3.3,9.77-9.9,13.41-12.79,7.15-33.14,7-45.38-.48-6-3.58-8.94-8.18-8.94-12.86,0-3.71,1.93-7.49,5.78-10.65l2-1.65"/><path class="cls-5" d="M250.38,54.17l2,1.65c3.85,3.16,5.78,6.87,5.78,10.59"/><path class="cls-5" d="M250.38,54.17a25.82,25.82,0,0,0-2.89-2.06c-11.34-6.81-30.11-7-41.94-.42a29.34,29.34,0,0,0-3.85,2.62c-7.9,6.6-7,15.67,3,21.72,11.34,6.81,30.11,7,41.94.41C257.32,70.46,258.7,61,250.38,54.17Z"/><path class="cls-5" d="M227.76,62.76c.07-.07.21-.07.28-.14a1.24,1.24,0,0,0,.06-2.33,4.64,4.64,0,0,0-4-.07,1.24,1.24,0,0,0-.07,2.34l.41.2"/><path class="cls-5" d="M239,55.61l2.88,2.61c4.68,4.27,3.72,10-2.88,13.69-7.5,4.19-19.32,4-26.54-.28-6.12-3.64-6.81-9.14-2.34-13.27L213,55.75"/><path class="cls-5" d="M239,55.54A9.6,9.6,0,0,0,237,54.17c-5.84-3.51-15.47-3.65-21.59-.21a14,14,0,0,0-2.33,1.65l-.14.14c-3.51,3.37-2.89,7.77,2.06,10.72,5.85,3.51,15.47,3.58,21.59.21,5.29-3,6.12-7.56,2.41-11.07A.07.07,0,0,0,239,55.54Z"/><path class="cls-5" d="M224.39,62.76a7.92,7.92,0,0,1-1.65-.62c-1.72-1-1.72-2.75.14-3.71a7.14,7.14,0,0,1,6.46.07c1.72,1,1.72,2.75-.14,3.71a6.08,6.08,0,0,1-1.44.55A9.09,9.09,0,0,1,224.39,62.76Z"/><path class="cls-5" d="M258.22,66.41h0v9.41a12.1,12.1,0,0,1-2.41,7.09,21.44,21.44,0,0,1-7.49,6.32c-12.79,7.15-33.14,7-45.38-.48A21.63,21.63,0,0,1,196.41,83h0A12,12,0,0,1,194,76V66.54"/><path class="cls-7" d="M178.67,134.68v-1.31h-.07c-.55-4.4-3.71-8.66-9.49-12-12.71-7.36-33.27-7.36-45.92,0-5.78,3.37-8.87,7.63-9.35,12h-.07v1.31h0v29.83c0,4.82,3.23,9.63,9.56,13.34,12.71,7.36,33.27,7.36,45.92,0,6.33-3.64,9.49-8.52,9.42-13.34V134.68Z"/><polygon class="cls-8" points="146.01 103.94 88.19 137.5 146.36 171.12 204.18 137.5 146.01 103.94"/><polygon class="cls-7" points="146.36 174.83 146.36 171.12 88.19 137.5 88.19 141.21 146.36 174.83"/><polygon class="cls-7" points="146.36 174.83 146.36 171.12 204.18 137.5 204.18 141.21 146.36 174.83"/><path class="cls-7" d="M190.15,189.06c-13.06-7.22-14-35-14-35l-26-21.93-6.94,3.78,26,21.94s1,27.77,14,35l1.1-2.89Z"/><path class="cls-7" d="M177.91,302a12.07,12.07,0,0,1-10.86,0L112,270.19a4,4,0,0,1-2.27-3.17c0,3.79,0,7.64-.07,11.42,0,1.17.76,2.27,2.27,3.16l55.14,31.76a12.07,12.07,0,0,0,10.86,0l92.68-53.83V248.12Z"/><path class="cls-8" d="M270.59,248.12,177.91,302a12.07,12.07,0,0,1-10.86,0L112,270.19c-3-1.72-3-4.54,0-6.33L204.59,210Z"/><line class="cls-5" x1="268.39" y1="249.42" x2="268.39" y2="260.84"/><path class="cls-7" d="M216,215.39a6.19,6.19,0,0,1-.07,1.17l5.85,3.37a6.57,6.57,0,0,0,.07-1.17,4.24,4.24,0,0,0-1.72-3.85l-5.85-3.37A4.3,4.3,0,0,1,216,215.39Z"/><path class="cls-8" d="M216.48,207.76c-1.65-1-4-.83-6.53.62a20.05,20.05,0,0,0-7.7,9.21L208.1,221a19.7,19.7,0,0,1,7.7-9.21c2.54-1.45,4.88-1.58,6.53-.62Z"/><path class="cls-7" d="M215.8,215.32c3.3-1.92,6-.34,6,3.44a6.57,6.57,0,0,1-.07,1.17l2.54,1.44a16,16,0,0,0,.69-4.47c0-5.84-4.13-8.18-9.21-5.22a20.1,20.1,0,0,0-7.7,9.21l4.33-2.47A13.17,13.17,0,0,1,215.8,215.32Z"/><path class="cls-7" d="M227.42,222a6.19,6.19,0,0,1-.07,1.17l5.84,3.37a6.57,6.57,0,0,0,.07-1.17,4.24,4.24,0,0,0-1.72-3.85l-5.84-3.37A4.24,4.24,0,0,1,227.42,222Z"/><path class="cls-8" d="M227.9,214.29c-1.65-1-4-.82-6.53.62a20,20,0,0,0-7.7,9.21l5.84,3.37a19.75,19.75,0,0,1,7.7-9.21c2.54-1.44,4.81-1.58,6.53-.62Z"/><path class="cls-7" d="M227.21,221.92c3.3-1.92,6-.34,6,3.44a6.57,6.57,0,0,1-.07,1.17l2.55,1.44a16.41,16.41,0,0,0,.68-4.47c0-5.84-4.12-8.18-9.21-5.22a20.1,20.1,0,0,0-7.7,9.21l4.33-2.47A12.17,12.17,0,0,1,227.21,221.92Z"/><path class="cls-7" d="M238.83,228.59a6.19,6.19,0,0,1-.07,1.17l5.84,3.37a6.57,6.57,0,0,0,.07-1.17c0-1.92-.68-3.23-1.72-3.85l-5.84-3.37A4.24,4.24,0,0,1,238.83,228.59Z"/><path class="cls-8" d="M239.31,220.89c-1.65-1-4-.82-6.53.62a19.94,19.94,0,0,0-7.7,9.28l5.84,3.37a19.7,19.7,0,0,1,7.7-9.21c2.55-1.45,4.82-1.58,6.53-.62Z"/><path class="cls-7" d="M238.62,228.52c3.3-1.92,6-.34,6,3.44a6.57,6.57,0,0,1-.07,1.17l2.55,1.44a16.41,16.41,0,0,0,.69-4.47c0-5.84-4.13-8.18-9.22-5.22a20.1,20.1,0,0,0-7.7,9.21l4.33-2.47A12.31,12.31,0,0,1,238.62,228.52Z"/><path class="cls-7" d="M250.24,235.12a6.51,6.51,0,0,1-.07,1.17l5.85,3.37a6.57,6.57,0,0,0,.07-1.17,4.24,4.24,0,0,0-1.72-3.85l-5.85-3.37A4.41,4.41,0,0,1,250.24,235.12Z"/><path class="cls-8" d="M250.72,227.49c-1.65-1-4-.82-6.53.62a20.1,20.1,0,0,0-7.7,9.21l5.85,3.37a19.69,19.69,0,0,1,7.7-9.21c2.54-1.44,4.81-1.58,6.53-.62Z"/><path class="cls-7" d="M250,235.12c3.3-1.92,6-.34,6,3.44a6.57,6.57,0,0,1-.07,1.17l2.54,1.44a16.41,16.41,0,0,0,.69-4.47c0-5.84-4.13-8.18-9.21-5.22a20,20,0,0,0-7.7,9.21l4.33-2.47A12,12,0,0,1,250,235.12Z"/><path class="cls-7" d="M261.65,241.72a7.14,7.14,0,0,1-.06,1.17l5.84,3.37a6.57,6.57,0,0,0,.07-1.17,4.24,4.24,0,0,0-1.72-3.85l-5.91-3.37A4.2,4.2,0,0,1,261.65,241.72Z"/><path class="cls-8" d="M262.14,234c-1.65-1-4-.82-6.54.62a20.1,20.1,0,0,0-7.7,9.21l5.85,3.37a19.75,19.75,0,0,1,7.7-9.21c2.54-1.44,4.81-1.58,6.53-.62Z"/><path class="cls-7" d="M261.45,241.65c3.3-1.92,6.05-.34,6.05,3.44a6.57,6.57,0,0,1-.07,1.17L270,247.7a16,16,0,0,0,.69-4.46c0-5.85-4.12-8.19-9.21-5.23a20.1,20.1,0,0,0-7.7,9.21l4.33-2.47A12.11,12.11,0,0,1,261.45,241.65Z"/><path class="cls-7" d="M242.47,248.25l-41.66-24.06a5.87,5.87,0,0,0-5.23,0l-20.14,11.69c-1.44.82-1.44,2.2,0,3L217.1,263a6,6,0,0,0,5.3,0l20.14-11.69C244,250.45,244,249.08,242.47,248.25Z"/><path class="cls-2" d="M223.22,251.21c.42-.21.76-.27,1.65.28s2.41,1.65,2.48,1.71l1.65-1a24.26,24.26,0,0,0-2.55-1.92,5.23,5.23,0,0,0-5.29-.28c-1.65,1-1.17,1.65.21,2.75,1.17.9,1.17,1.1.82,1.31s-.82.2-1.79-.35c-.75-.41-2.27-1.58-2.4-1.65l-1.72,1a21.77,21.77,0,0,0,2.47,1.85c1.86,1.1,3.72,1.38,5.44.35,1.51-.9,1.37-1.52,0-2.68C223.09,251.55,222.88,251.35,223.22,251.21Z"/><path class="cls-2" d="M213.53,249.77c-1.1-.62-1.1-1.1-.21-1.65l4.4,2.54,1.51-.69c2.27-1.3,2.27-2.54.07-3.85s-4.67-1.1-7.28.42-2.82,2.75-.55,4.05a37.34,37.34,0,0,0,3.5,1.58l1.45-.89A25.94,25.94,0,0,1,213.53,249.77Zm4.12-2.68c1,.55.9,1-.27,1.65l-2.61-1.52A2.6,2.6,0,0,1,217.65,247.09Z"/><path class="cls-2" d="M208.3,245.5l3-1.78,1.85,1,1.72-1-1.85-1,2.06-1.23-2-1.17-2.07,1.24-.89-.55-1.72,1,.89.48-3.09,1.79c-2.13,1.23-2.34,1.92-.48,3a18.42,18.42,0,0,0,1.72.76l1.51-1s-.76-.42-1.17-.62C207.2,246.12,207.55,245.92,208.3,245.5Z"/><path class="cls-2" d="M206,238.49c-2.61-1.51-5-1-7.35.28s-3.1,2.75-.48,4.26,5.08,1,7.35-.34S208.65,239.94,206,238.49Zm-2.47,3c-1.44.82-2.54,1.1-3.64.48s-.62-1.24.82-2.13,2.48-1.1,3.58-.48.68,1.3-.76,2.13Z"/><path class="cls-2" d="M198.54,234.16a9.74,9.74,0,0,0-2.47-.76l.41-.2-2-1.17-7.42,4.33,2,1.17,5.57-3.23a7.92,7.92,0,0,1,1.65.62c1,.55.41,1.1-.75,1.72l-4,2.33,2,1.17,4.06-2.34C199.85,236.43,200.67,235.33,198.54,234.16Z"/><path class="cls-4" d="M493.62,285.45c6.4-3.58,9.63-8.32,9.63-13.06v3.71c0,4.74-3.23,9.49-9.63,13.06-12.44,6.95-32.17,6.74-44.07-.41-5.77-3.51-8.66-8-8.66-12.44v-3.79c0,4.47,2.89,8.94,8.66,12.45C461.45,292.19,481.18,292.39,493.62,285.45Z"/><path class="cls-4" d="M483.45,243.58c6.05,3.64,5.84,9.49-.48,13.06s-16.43,3.44-22.48-.2-5.85-9.49.48-13.07S477.33,239.94,483.45,243.58Z"/><path class="cls-2" d="M492,246.88c1.86,4.06-.06,8.59-5.7,11.69C478,263.17,465,263,457,258.29c-5.23-3.16-6.88-7.56-5-11.48h0a13.06,13.06,0,0,1,5.64-5.43c8.25-4.61,21.31-4.47,29.29.27a12,12,0,0,1,4.95,5Zm-9,9.76c6.32-3.5,6.53-9.35.48-13.06s-16.16-3.78-22.48-.21-6.53,9.35-.48,13.07,16.15,3.71,22.48.2Z"/><path class="cls-2" d="M503.18,272.32h0c0,4.74-3.23,9.49-9.62,13.06-12.45,6.94-32.18,6.74-44.07-.41-5.78-3.51-8.67-8-8.67-12.45a11,11,0,0,1,1.17-4.88c3.37-6.94,6.67-13.89,10-20.76-1.86,3.92-.21,8.32,5,11.48,7.9,4.75,21,4.88,29.29.28C492,255.54,493.9,251,492,247c3.37,6.87,6.74,13.75,10,20.56A11.41,11.41,0,0,1,503.18,272.32Z"/><path class="cls-5" d="M503.18,272.39v3.71c0,4.74-3.23,9.49-9.62,13.06-12.45,6.95-32.18,6.74-44.07-.41-5.78-3.51-8.67-8-8.67-12.44v-3.79"/><path class="cls-5" d="M452,246.81c-1.86,3.92-.21,8.32,5,11.48,7.9,4.75,21,4.88,29.29.28,5.63-3.1,7.56-7.63,5.7-11.69"/><path class="cls-5" d="M491.91,246.67a12.91,12.91,0,0,0-5-5c-7.91-4.74-21-4.88-29.29-.27a13.07,13.07,0,0,0-5.64,5.43"/><path class="cls-5" d="M483,256.64c-6.33,3.51-16.43,3.44-22.48-.2s-5.85-9.49.48-13.07,16.43-3.43,22.48.21S489.36,253.07,483,256.64Z"/><path class="cls-5" d="M491.91,246.67l.13.21c3.37,6.87,6.74,13.75,10,20.56a10.8,10.8,0,0,1,1.17,4.88h0c0,4.74-3.23,9.49-9.63,13.06-12.44,6.94-32.17,6.74-44.07-.41-5.77-3.51-8.66-8-8.66-12.45a10.86,10.86,0,0,1,1.17-4.88c3.37-6.94,6.67-13.89,10-20.76h0"/><path class="cls-10" d="M517,181.91c1.72,2.2,2.75,7.22,2,11.07a9.53,9.53,0,0,1-.68,2,11.11,11.11,0,0,0-.21,9.49,10.23,10.23,0,0,1,.62,2,10,10,0,0,1,0,2.89,8.86,8.86,0,0,1-2.06,4.61,9.25,9.25,0,0,0-1.24,1.72,9.43,9.43,0,0,0-1.1,2.61,12,12,0,0,0-.55,2.75,20.26,20.26,0,0,0,.07,2.06c0,.35.07.69.07,1a5.76,5.76,0,0,1-.07,1.1,10.69,10.69,0,0,1-.28,1.31,4.08,4.08,0,0,1-.27.76,2.6,2.6,0,0,1-.42.75,8.74,8.74,0,0,1-1.78,2.48,16.4,16.4,0,0,1-1.72,1.37,15.41,15.41,0,0,0-1.86,1.24,11.13,11.13,0,0,0-1,.89,9.35,9.35,0,0,0-1.1,1.17,12.25,12.25,0,0,0-1,1.31,5.84,5.84,0,0,0-.69,1.1c-.14.34-.28.69-.41,1l-.14.48-.21.48a10.23,10.23,0,0,1-3,4.2c-5.5,5-11.21,9-17.53,8.25-4.47-4.54-4.82-11.55-4.2-18.91a10.53,10.53,0,0,1,1.45-4.95l.27-.41c.07-.14.21-.28.28-.42s.34-.61.55-1a9,9,0,0,0,.48-1.17c.13-.48.34-1,.48-1.51a12.42,12.42,0,0,0,.27-1.58,8.2,8.2,0,0,0,.14-1.31c0-.75-.07-1.44-.14-2.2a11.55,11.55,0,0,1,0-2.2,10.1,10.1,0,0,1,.83-2.88,6.53,6.53,0,0,1,.41-.76l.41-.62.83-1c.27-.28.55-.48.82-.76s.55-.34.83-.55a7,7,0,0,0,1.65-1.24,8.82,8.82,0,0,0,1.85-2.13,10.65,10.65,0,0,0,1.38-2.47,12.71,12.71,0,0,0,.62-2.06,9.46,9.46,0,0,1,4.67-6.19,10.64,10.64,0,0,1,1.93-.69,9.48,9.48,0,0,0,4.33-2.13,11.16,11.16,0,0,0,3.09-3.85,10.39,10.39,0,0,1,1.17-1.79C509.57,184.18,514.18,181.91,517,181.91Z"/><g class="cls-11"><line class="cls-12" x1="483.45" y1="250.11" x2="514.8" y2="186.45"/><polyline class="cls-12" points="475.4 235.4 484.62 247.77 499.95 247.5"/><polyline class="cls-12" points="479.94 226.19 489.15 238.56 504.49 238.29"/><polyline class="cls-12" points="481.18 212.37 493.76 229.21 514.73 228.87"/><polyline class="cls-12" points="487.92 206.73 497.96 220.27 514.8 220"/><polyline class="cls-12" points="492.87 197.38 502.84 210.72 519.48 210.44"/><polyline class="cls-12" points="498.09 189.4 507.24 201.78 522.57 201.5"/><polyline class="cls-12" points="502.56 180.26 511.77 192.57 527.11 192.29"/></g><path class="cls-10" d="M432.64,179.92c2.82.2,7.22,2.81,9.56,5.91a13.76,13.76,0,0,1,1,1.85,9.63,9.63,0,0,0,2.75,4.06,9.86,9.86,0,0,0,4.12,2.48A9.41,9.41,0,0,1,452,195a9.55,9.55,0,0,1,2.13,1.93,8.62,8.62,0,0,1,2,4.6,11.51,11.51,0,0,0,.49,2.13,12.46,12.46,0,0,0,1.16,2.62,11.44,11.44,0,0,0,1.72,2.26,13.23,13.23,0,0,0,1.58,1.31l.83.62a4.21,4.21,0,0,1,.76.76,8.67,8.67,0,0,1,.75,1,3,3,0,0,1,.35.69c.13.27.2.55.34.82a7.41,7.41,0,0,1,.62,3,22,22,0,0,1-.14,2.2,11,11,0,0,0-.27,2.2v1.3a11.1,11.1,0,0,0,.13,1.58c.07.62.28,1.1.35,1.59a8.06,8.06,0,0,0,.34,1.23,7.35,7.35,0,0,0,.48,1l.28.42.2.41a9.85,9.85,0,0,1,1.1,5c0,7.42-.82,14.37-5.63,18.56-6.4.28-11.76-4.19-16.85-9.56a11.1,11.1,0,0,1-2.68-4.4l-.14-.48-.13-.48a6,6,0,0,0-.35-1,8.8,8.8,0,0,0-.55-1.17c-.27-.41-.48-.89-.82-1.37a9.06,9.06,0,0,0-1-1.31,5.79,5.79,0,0,0-.89-1,17.91,17.91,0,0,0-1.72-1.38,11.06,11.06,0,0,1-1.65-1.44,7.59,7.59,0,0,1-1.51-2.61c-.14-.28-.21-.55-.35-.83s-.13-.48-.2-.75-.14-.83-.21-1.31v-1.1c.07-.34.07-.69.14-1a10.36,10.36,0,0,0,.21-2.06,9.7,9.7,0,0,0-.35-2.82,12.45,12.45,0,0,0-.89-2.75c-.35-.62-.69-1.24-1.1-1.86a8.52,8.52,0,0,1-.69-9.56,10.06,10.06,0,0,0,1.31-4.6,10.57,10.57,0,0,0-.76-4.82,7.77,7.77,0,0,1-.55-2.06C429.34,186.93,430.72,182,432.64,179.92Z"/><g class="cls-13"><line class="cls-12" x1="460.76" y1="250.45" x2="434.5" y2="184.59"/><polyline class="cls-12" points="444.54 246.6 459.8 248.05 469.9 236.5"/><polyline class="cls-12" points="440.69 237.12 456.02 238.56 466.12 226.94"/><polyline class="cls-12" points="431.27 226.87 452.17 228.87 465.92 213.05"/><polyline class="cls-12" points="431.61 218.14 448.32 219.72 459.39 207"/><polyline class="cls-12" points="427.97 208.17 444.54 209.75 455.47 197.17"/><polyline class="cls-12" points="425.56 199.03 440.82 200.47 450.93 188.92"/><polyline class="cls-12" points="421.71 189.47 437.04 190.92 447.15 179.37"/></g><path class="cls-10" d="M472,174c2.68,1.31,6,5.71,7.22,9.7a13.4,13.4,0,0,1,.27,2.27,10.54,10.54,0,0,0,1.17,5.15,11,11,0,0,0,3.16,4.13,11.29,11.29,0,0,1,1.52,1.58,10.15,10.15,0,0,1,1.51,8.18,12,12,0,0,0-.41,2.27,16,16,0,0,0,.13,3.09,12.36,12.36,0,0,0,1.86,4.82,10.24,10.24,0,0,1,.55,1,5.22,5.22,0,0,1,.48,1.1,8.57,8.57,0,0,1,.34,1.37,3.33,3.33,0,0,1,.07.83v1a9.36,9.36,0,0,1-.55,3.16,11.63,11.63,0,0,1-1,2.13c-.41.69-.82,1.38-1.17,2.07a11.38,11.38,0,0,0-.48,1.3,17.09,17.09,0,0,0-.48,1.65,14.82,14.82,0,0,0-.27,1.72,9.22,9.22,0,0,0-.14,1.38,6.62,6.62,0,0,0,.07,1.17c0,.2.07.34.07.55l.06.55a10.5,10.5,0,0,1-.89,5.43c-2.89,7.42-6.53,13.95-13,16.22-6.47-2.27-10.11-8.87-13-16.22a10.6,10.6,0,0,1-.89-5.43l.07-.55c0-.21.07-.35.07-.55a7.71,7.71,0,0,0,.06-1.17,9.2,9.2,0,0,0-.13-1.38c-.07-.48-.14-1.1-.28-1.72a14.66,14.66,0,0,0-.48-1.65,9.76,9.76,0,0,0-.48-1.3c-.34-.69-.76-1.38-1.17-2.07a11.63,11.63,0,0,1-1-2.13,10.3,10.3,0,0,1-.55-3.16v-1c0-.28.07-.55.07-.83a9.79,9.79,0,0,1,.34-1.37,8.15,8.15,0,0,1,.48-1.1,7.16,7.16,0,0,1,.55-1,9.68,9.68,0,0,0,1-1.93,11.24,11.24,0,0,0,.83-2.89,11.45,11.45,0,0,0,.14-3.09,12.93,12.93,0,0,0-.42-2.27,10.19,10.19,0,0,1,1.52-8.18,16.11,16.11,0,0,1,1.51-1.58,10.47,10.47,0,0,0,3.16-4.13,12,12,0,0,0,1.17-5.15,8.36,8.36,0,0,1,.28-2.27C465.92,179.71,469.22,175.38,472,174Z"/><g class="cls-14"><line class="cls-12" x1="471.97" y1="255.61" x2="471.97" y2="179.43"/><polyline class="cls-12" points="457.32 245.3 471.97 252.79 486.61 245.3"/><polyline class="cls-12" points="457.32 234.3 471.97 241.79 486.61 234.3"/><polyline class="cls-12" points="451.89 220.34 471.97 230.65 491.97 220.34"/><polyline class="cls-12" points="455.67 211.75 471.76 220 487.92 211.75"/><polyline class="cls-12" points="456.02 200.34 471.97 208.52 487.92 200.34"/><polyline class="cls-12" points="457.32 190.3 471.97 197.79 486.61 190.3"/><polyline class="cls-12" points="457.32 179.23 471.97 186.79 486.61 179.23"/></g></g></g></g></g></svg>