<svg xmlns="http://www.w3.org/2000/svg" xmlns:xlink="http://www.w3.org/1999/xlink" viewBox="0 0 833.14 534.05"><defs><style>.cls-1,.cls-11,.cls-14,.cls-6{fill:none;}.cls-10,.cls-2{fill:#fff;}.cls-3{fill:#007dea;}.cls-4{fill:#ff40a9;}.cls-10,.cls-11,.cls-4,.cls-6,.cls-8,.cls-9{stroke:#007dea;}.cls-10,.cls-11,.cls-14,.cls-4,.cls-6,.cls-8,.cls-9{stroke-linecap:round;stroke-linejoin:round;}.cls-10,.cls-14,.cls-4,.cls-6,.cls-9{stroke-width:1.17px;}.cls-5,.cls-8,.cls-9{fill:#dbedff;}.cls-7{fill:#e8f4ff;}.cls-11,.cls-8{stroke-width:0.78px;}.cls-12{fill:#006ccc;}.cls-13{clip-path:url(#clip-path);}.cls-14{stroke:#fff;}.cls-15{clip-path:url(#clip-path-2);}.cls-16{clip-path:url(#clip-path-3);}</style><clipPath id="clip-path"><path class="cls-1" d="M752,264.61c2.5,3.22,3.95,10.54,2.93,16.09a14.91,14.91,0,0,1-1,2.92,15,15,0,0,0-1.69,6.92,14.09,14.09,0,0,0,1.38,6.86,15.85,15.85,0,0,1,.93,2.87,12.91,12.91,0,0,1,0,4.18,12.77,12.77,0,0,1-3,6.68,17.55,17.55,0,0,0-1.84,2.53,15.94,15.94,0,0,0-1.64,3.83,14.59,14.59,0,0,0-.78,4,19.07,19.07,0,0,0,.11,3c0,.48.08,1,.1,1.46a9.77,9.77,0,0,1-.11,1.58,11.46,11.46,0,0,1-.42,1.85,10.35,10.35,0,0,1-.37,1.06c-.16.37-.35.75-.56,1.15a12.73,12.73,0,0,1-2.56,3.56,19.75,19.75,0,0,1-2.55,2,21.89,21.89,0,0,0-2.66,1.8,16.06,16.06,0,0,0-1.38,1.3,18.73,18.73,0,0,0-1.58,1.74c-.56.68-1,1.34-1.36,1.9a12.78,12.78,0,0,0-1,1.59,14.75,14.75,0,0,0-.63,1.47l-.24.72-.26.67a14.65,14.65,0,0,1-4.34,6.08c-8,7.25-16.31,13.09-25.53,12-6.5-6.63-7-16.8-6.08-27.54A14.75,14.75,0,0,1,698,331.7l.38-.62c.14-.21.27-.42.42-.63a13.77,13.77,0,0,0,.78-1.39,11.78,11.78,0,0,0,.68-1.73c.2-.66.48-1.38.67-2.23a16.66,16.66,0,0,0,.42-2.32,17.26,17.26,0,0,0,.19-1.89,23.14,23.14,0,0,0-.19-3.2,17.28,17.28,0,0,1,0-3.22,12.42,12.42,0,0,1,1.25-4.2q.28-.61.57-1.14a11,11,0,0,1,.61-.94,12,12,0,0,1,1.21-1.46,10.31,10.31,0,0,1,1.19-1.06c.41-.29.81-.55,1.22-.8a19.55,19.55,0,0,0,2.43-1.75,14.33,14.33,0,0,0,2.71-3.07,16.28,16.28,0,0,0,2-3.63,19.35,19.35,0,0,0,.88-3,13.72,13.72,0,0,1,6.75-9,15.81,15.81,0,0,1,2.84-1,14.09,14.09,0,0,0,6.28-3.09,15.13,15.13,0,0,0,4.46-5.56,14.24,14.24,0,0,1,1.67-2.61C741.23,267.91,747.9,264.6,752,264.61Z"/></clipPath><clipPath id="clip-path-2"><path class="cls-1" d="M629.28,261.7c4.07.31,10.47,4.13,13.91,8.61a14.67,14.67,0,0,1,1.47,2.73,15,15,0,0,0,4,5.89,14.15,14.15,0,0,0,6,3.57,15.55,15.55,0,0,1,2.76,1.23,12.9,12.9,0,0,1,3.09,2.81,12.72,12.72,0,0,1,2.93,6.71,19.71,19.71,0,0,0,.66,3.07,15.8,15.8,0,0,0,1.74,3.78,14.62,14.62,0,0,0,2.47,3.27,18.48,18.48,0,0,0,2.29,1.93c.38.28.76.57,1.15.9a9.25,9.25,0,0,1,1.1,1.14,11.28,11.28,0,0,1,1.09,1.55,11.06,11.06,0,0,1,.54,1c.16.37.32.76.48,1.19a12.46,12.46,0,0,1,.92,4.28,17.77,17.77,0,0,1-.25,3.22,24.48,24.48,0,0,0-.44,3.17,17.72,17.72,0,0,0,0,1.9,19.56,19.56,0,0,0,.24,2.34c.13.87.36,1.61.5,2.28a13,13,0,0,0,.54,1.78,14,14,0,0,0,.68,1.45l.36.65.33.65a14.57,14.57,0,0,1,1.6,7.3c0,10.77-1.2,20.88-8.19,27-9.28.38-17.13-6.09-24.52-13.93a14.64,14.64,0,0,1-3.86-6.4l-.21-.69-.19-.73a11.8,11.8,0,0,0-.51-1.52,12.08,12.08,0,0,0-.82-1.66c-.36-.59-.71-1.28-1.21-2a18.32,18.32,0,0,0-1.44-1.86,16.42,16.42,0,0,0-1.28-1.4,25.31,25.31,0,0,0-2.5-2,17.76,17.76,0,0,1-2.39-2.15A12.61,12.61,0,0,1,630.1,329c-.18-.41-.34-.81-.47-1.19a11,11,0,0,1-.29-1.08,11.81,11.81,0,0,1-.27-1.88,9.2,9.2,0,0,1,0-1.58c.06-.51.13-1,.22-1.45a19,19,0,0,0,.33-3,14.41,14.41,0,0,0-.46-4.07,16.27,16.27,0,0,0-1.34-3.95,18.37,18.37,0,0,0-1.63-2.67A13.68,13.68,0,0,1,624,297.06a14.25,14.25,0,0,1,1.15-2.78,14.16,14.16,0,0,0,1.9-6.74,15.06,15.06,0,0,0-1.14-7,14.62,14.62,0,0,1-.82-3C624.52,271.9,626.54,264.72,629.28,261.7Z"/></clipPath><clipPath id="clip-path-3"><path class="cls-1" d="M686.48,253.15c3.94,1.92,8.81,8.28,10.45,14.12a15.29,15.29,0,0,1,.38,3.31,16.19,16.19,0,0,0,1.65,7.47,15.23,15.23,0,0,0,4.59,5.95,16.21,16.21,0,0,1,2.25,2.33A14.78,14.78,0,0,1,708,298.22a20.12,20.12,0,0,0-.57,3.32,17.43,17.43,0,0,0,.23,4.46,15.77,15.77,0,0,0,1.16,4.25,20.75,20.75,0,0,0,1.52,2.83c.27.44.54.88.79,1.35a11.55,11.55,0,0,1,.65,1.58,12.84,12.84,0,0,1,.47,2,10.69,10.69,0,0,1,.14,1.2c0,.43,0,.88,0,1.37a13.43,13.43,0,0,1-.79,4.64,18.77,18.77,0,0,1-1.52,3.11,24,24,0,0,0-1.7,3,17.91,17.91,0,0,0-.72,1.91,18.45,18.45,0,0,0-.69,2.43c-.22.91-.29,1.74-.42,2.47a13.17,13.17,0,0,0-.16,2,15.28,15.28,0,0,0,.1,1.71c0,.27.07.54.1.8l.07.78a15.69,15.69,0,0,1-1.3,7.91c-4.25,10.77-9.51,20.34-18.92,23.65-9.4-3.31-14.66-12.88-18.91-23.65a15.69,15.69,0,0,1-1.3-7.91l.07-.78c0-.26.06-.53.1-.8a15.28,15.28,0,0,0,.1-1.71,14.61,14.61,0,0,0-.16-2c-.13-.73-.2-1.56-.42-2.47a18.45,18.45,0,0,0-.69-2.43,17.91,17.91,0,0,0-.72-1.91,24,24,0,0,0-1.7-3,19.59,19.59,0,0,1-1.53-3.11,13.7,13.7,0,0,1-.78-4.64c0-.49,0-.94,0-1.37a10.69,10.69,0,0,1,.14-1.2,12.84,12.84,0,0,1,.47-2,11.55,11.55,0,0,1,.65-1.58c.25-.47.52-.91.79-1.35a19.7,19.7,0,0,0,1.51-2.83,15.38,15.38,0,0,0,1.17-4.25,17.43,17.43,0,0,0,.23-4.46,20.12,20.12,0,0,0-.57-3.32,14.78,14.78,0,0,1,2.23-11.89,16.21,16.21,0,0,1,2.25-2.33,15.14,15.14,0,0,0,4.58-5.95,16.23,16.23,0,0,0,1.66-7.47,15.9,15.9,0,0,1,.37-3.31C677.68,261.43,682.55,255.07,686.48,253.15Z"/></clipPath></defs><g id="Layer_2" data-name="Layer 2"><g id="Layer_1-2" data-name="Layer 1"><path class="cls-2" d="M4.55,282.26C-18,178.73,46.16,67.44,128.51,26,240.59-30.42,538,2.4,536.58,150c-.75,79.73,310.22,189,284.13,282.73C801.6,501.26,669,541.32,567.23,533c-122.5-10.07-139.86-85-285.52-96.1-82.69-6.3-115.15,14.95-171.31-13.93C56.37,395.14,17.06,339.78,4.55,282.26Z"/><path class="cls-3" d="M50,286.56l227.08-132c13.74-8,32-12.37,51.54-12.37s37.79,4.38,51.59,12.34L833.14,415.31V414L380.79,153.55c-14-8.07-32.49-12.51-52.17-12.51s-38.21,4.45-52.13,12.54L50,285.2Z"/><path class="cls-4" d="M430.76,396.2a4.65,4.65,0,0,0,.08-.73,2.35,2.35,0,0,0,0-.26c0-.1,0-.21,0-.32a8.17,8.17,0,0,0-.39-2.39,8.39,8.39,0,0,0-.3-.84,11.27,11.27,0,0,0-.58-1.15,9.37,9.37,0,0,0-1.31-1.72,8.65,8.65,0,0,0-1.45-1.22,7.16,7.16,0,0,0-3.38-1.18,6.26,6.26,0,0,0-1.77.11,6.59,6.59,0,0,0-1.87.72l-9.41,5.47c-1,.59-1.64,1.87-1.62,3.67a12.15,12.15,0,0,0,5.63,9.53,3.89,3.89,0,0,0,3.86.34l9.41-5.47a6.83,6.83,0,0,0,.72-.5,5.51,5.51,0,0,0,.65-.59,6.44,6.44,0,0,0,.91-1.2,2.36,2.36,0,0,1,.14-.26l.13-.28,0-.1c0-.06.05-.13.08-.2a2.65,2.65,0,0,0,.11-.3.3.3,0,0,0,0-.1,2.76,2.76,0,0,0,.08-.27l0-.11,0-.09C430.7,396.57,430.73,396.38,430.76,396.2Z"/><path class="cls-3" d="M280.43,472.23a7.32,7.32,0,0,1,3.84,7.24c-3.65.74-6.91,1.37-7.84,1.47-2.33.27-3-1.39-1.53-3,.81-.9,3-3.18,5.52-5.75Z"/><path class="cls-5" d="M296.56,465.2l2.93,7.58-3,4.17s-6.57,1.39-12.25,2.52a7.32,7.32,0,0,0-3.84-7.24h0c4.6-4.7,10.23-10.42,10.23-10.42Z"/><polygon class="cls-2" points="413.95 397.25 413.95 397.26 296.56 465.2 290.65 461.8 408.14 393.81 413.95 397.25"/><polygon class="cls-2" points="413.95 397.26 416.88 404.82 416.85 404.86 299.49 472.78 296.56 465.2 413.95 397.26"/><polygon class="cls-5" points="416.85 404.86 423.44 401.03 420.47 405.2 413.93 409 413.92 408.98 416.85 404.86"/><polygon class="cls-5" points="420.51 393.45 413.95 397.26 413.95 397.25 408.14 393.81 414.61 390.04 420.51 393.45"/><polygon class="cls-5" points="423.44 401.03 416.85 404.86 416.88 404.82 413.95 397.26 420.51 393.45 423.44 401.03"/><polygon class="cls-5" points="413.93 409 296.51 476.95 299.49 472.78 416.85 404.86 413.92 408.98 413.93 409"/><polyline class="cls-6" points="423.44 401.03 420.47 405.2 413.93 409 296.51 476.95"/><polyline class="cls-6" points="420.51 393.45 423.44 401.03 416.85 404.86 299.49 472.78"/><polyline class="cls-6" points="290.65 461.8 408.14 393.81 414.61 390.04 420.51 393.45 413.95 397.26 296.56 465.2"/><path class="cls-6" d="M290.65,461.8s-5.63,5.72-10.23,10.42c-2.5,2.57-4.71,4.85-5.52,5.75-1.44,1.58-.8,3.24,1.53,3,.93-.1,4.19-.73,7.84-1.47,5.68-1.13,12.25-2.52,12.25-2.52l3-4.17-2.93-7.58Z"/><path class="cls-6" d="M280.43,472.23a7.32,7.32,0,0,1,3.84,7.24h0"/><polyline class="cls-6" points="408.14 393.81 413.95 397.25 413.95 397.26 416.88 404.82 416.85 404.86 413.92 408.98"/><path class="cls-7" d="M681.12,133.62l-213-123a6.52,6.52,0,0,0-3.94-.91l-8.19.76a6.57,6.57,0,0,1,3.93.91l213,123c4.19,2.42,6.26,8.73,4.63,14.1L621.49,333.22c-1.13,3.71-3.72,6-6.6,6.26l8.2-.76c2.88-.27,5.47-2.55,6.59-6.26l56.06-184.74C687.38,142.35,685.31,136,681.12,133.62Z"/><path class="cls-2" d="M672.92,134.38l-213-123c-4.18-2.41-8.9,0-10.53,5.35L393.32,201.49c-1.63,5.37.45,11.68,4.63,14.09l213,123c4.19,2.41,8.9,0,10.53-5.35l56.06-184.74C679.18,143.11,677.11,136.8,672.92,134.38Z"/><path class="cls-6" d="M672.92,134.38l-213-123c-4.18-2.41-8.9,0-10.53,5.35L393.32,201.49c-1.63,5.37.45,11.68,4.63,14.09l213,123c4.19,2.41,8.9,0,10.53-5.35l56.06-184.74C679.18,143.11,677.11,136.8,672.92,134.38Z"/><path class="cls-8" d="M644.75,229.56,641,227.38c-2.08-1.2-4.44,0-5.25,2.67l-1.46,4.83c-.82,2.68.22,5.83,2.3,7l3.78,2.18c2.08,1.2,4.43,0,5.24-2.67l1.47-4.84C647.86,233.91,646.83,230.76,644.75,229.56Z"/><polygon class="cls-3" points="460.24 18.21 401.69 211.14 603.46 327.63 662 134.7 460.24 18.21"/><path class="cls-6" d="M614.89,339.48l8.2-.76c2.88-.27,5.47-2.55,6.59-6.26l56.06-184.74c1.64-5.37-.43-11.68-4.62-14.1l-213-123a6.52,6.52,0,0,0-3.94-.91l-8.19.76"/><path class="cls-2" d="M526.43,91.17,470.59,58.93c-1.48-.86-3.16,0-3.74,1.9L434.34,167.48a4.46,4.46,0,0,0,1.64,5l55.84,32.24c1.48.85,3.15,0,3.73-1.9L528.06,96.17A4.44,4.44,0,0,0,526.43,91.17Z"/><path class="cls-9" d="M511.29,98.78l-34-19.65c-1.48-.86-3.16,0-3.74,1.9L467.43,101a4.45,4.45,0,0,0,1.65,5l34,19.65c1.48.85,3.15,0,3.73-1.9l6.07-19.93A4.45,4.45,0,0,0,511.29,98.78Z"/><path class="cls-2" d="M600.81,255l-43.2-25c-1.49-.86-3.16,0-3.74,1.91L550,244.56a4.45,4.45,0,0,0,1.64,5l43.2,24.95c1.49.86,3.16,0,3.74-1.9L602.44,260A4.42,4.42,0,0,0,600.81,255Z"/><polygon class="cls-2" points="591.37 167.55 527.58 130.72 527.01 132.59 590.8 169.42 591.37 167.55"/><polygon class="cls-2" points="516.26 167.86 613.42 223.96 613.99 222.09 516.83 166 516.26 167.86"/><polygon class="cls-2" points="536.61 164.91 617.23 211.46 617.79 209.59 537.17 163.05 536.61 164.91"/><polygon class="cls-2" points="528.77 126.84 625.92 182.93 626.49 181.07 529.33 124.97 528.77 126.84"/><polygon class="cls-2" points="512.45 180.36 609.61 236.45 610.18 234.59 513.02 178.5 512.45 180.36"/><polygon class="cls-2" points="514.36 174.11 611.51 230.21 612.08 228.34 514.92 172.25 514.36 174.11"/><polygon class="cls-2" points="518.17 161.61 615.32 217.71 615.89 215.84 518.73 159.75 518.17 161.61"/><polygon class="cls-2" points="531.09 119.22 530.52 121.1 627.67 177.19 628.25 175.32 531.09 119.22"/><path class="cls-10" d="M615.51,352.2l-234.44-135c-5.57-3.22-14.58-3.21-20.12,0l-78,45.32c-5.54,3.22-5.51,8.43.07,11.65l234.44,135c5.57,3.22,14.58,3.22,20.12,0l78-45.33C621.11,360.64,621.08,355.42,615.51,352.2Z"/><path class="cls-5" d="M505.55,378.06l-7.24-4.18a6.22,6.22,0,0,0-5.62,0l-6.58,3.82c-1.54.9-1.54,2.37,0,3.26l7.24,4.18a6.23,6.23,0,0,0,5.64,0l6.57-3.82C507.11,380.43,507.1,379,505.55,378.06Z"/><path class="cls-5" d="M516.15,381.32l7.07,4.08a6.24,6.24,0,0,0,5.63,0l6.61-3.84c1.54-.9,1.53-2.36,0-3.26l-7.07-4.08a6.21,6.21,0,0,0-5.63,0l-6.6,3.84C514.58,379,514.6,380.42,516.15,381.32Z"/><path class="cls-5" d="M520.75,386.84l-7.07-4.08a6.24,6.24,0,0,0-5.63,0l-6.57,3.82c-1.54.9-1.54,2.37,0,3.27l7.07,4.08a6.29,6.29,0,0,0,5.64,0l6.57-3.82C522.32,389.2,522.31,387.74,520.75,386.84Z"/><path class="cls-5" d="M486.93,364.45,508,376.62a6.21,6.21,0,0,0,5.63,0l6.6-3.84c1.55-.9,1.52-2.37,0-3.26l-21.09-12.18a6.19,6.19,0,0,0-5.62,0l-6.61,3.84C485.36,362.09,485.37,363.55,486.93,364.45Z"/><path class="cls-5" d="M472.43,356.08l6.37,3.68a6.25,6.25,0,0,0,5.62,0l6.61-3.84c1.54-.9,1.53-2.36,0-3.26L484.64,349a6.21,6.21,0,0,0-5.63,0l-6.6,3.84C470.86,353.72,470.88,355.18,472.43,356.08Z"/><path class="cls-5" d="M490.17,332.63l6.37,3.68a6.22,6.22,0,0,0,5.62,0l7.16-4.16c1.54-.89,1.53-2.36,0-3.25l-6.37-3.68a6.21,6.21,0,0,0-5.63,0l-7.15,4.15C488.6,330.26,488.61,331.73,490.17,332.63Z"/><path class="cls-5" d="M524.1,340.68c1.54-.9,1.53-2.36,0-3.26l-6.63-3.84a6.27,6.27,0,0,0-5.63,0l-7.16,4.16c-1.54.9-1.54,2.36,0,3.26l6.64,3.84a6.29,6.29,0,0,0,5.64,0Z"/><path class="cls-5" d="M487.08,296.3l5.57,3.21a6.23,6.23,0,0,0,5.64,0l1-.6c1.54-.9,1.54-2.37,0-3.27l-5.57-3.21a6.23,6.23,0,0,0-5.64,0l-1,.61C485.52,293.93,485.53,295.4,487.08,296.3Z"/><path class="cls-5" d="M500.79,304.21l7.2,4.16a6.24,6.24,0,0,0,5.63,0l1-.6c1.54-.9,1.53-2.37,0-3.26l-7.21-4.16a6.24,6.24,0,0,0-5.63,0l-1,.61C499.22,301.84,499.24,303.32,500.79,304.21Z"/><path class="cls-5" d="M505.39,309.88l-7.21-4.16a6.25,6.25,0,0,0-5.62,0l-6.39,3.71c-1.53.89-1.52,2.36,0,3.26l7.2,4.16a6.25,6.25,0,0,0,5.62,0l6.38-3.71C506.94,312.24,506.93,310.77,505.39,309.88Z"/><path class="cls-5" d="M461.57,284.58l-6.37-3.67a6.22,6.22,0,0,0-5.62,0l-6.39,3.71c-1.54.9-1.53,2.36,0,3.26l6.37,3.68a6.25,6.25,0,0,0,5.62,0l6.38-3.71C463.13,287,463.12,285.48,461.57,284.58Z"/><path class="cls-5" d="M476.35,293.11l-6.65-3.83a6.24,6.24,0,0,0-5.63,0L457.69,293c-1.54.9-1.52,2.37,0,3.26l6.64,3.84a6.24,6.24,0,0,0,5.63,0l6.38-3.71C477.91,295.48,477.9,294,476.35,293.11Z"/><path class="cls-5" d="M391.7,261l-6.37-3.68a6.22,6.22,0,0,0-5.62,0l-7.16,4.16c-1.54.9-1.54,2.37,0,3.26l6.37,3.68a6.21,6.21,0,0,0,5.63,0l7.15-4.16C393.26,263.35,393.25,261.89,391.7,261Z"/><path class="cls-5" d="M402.28,250.35l-6.36-3.67a6.21,6.21,0,0,0-5.63,0l-6.38,3.7c-1.54.9-1.53,2.37,0,3.26l6.37,3.68a6.24,6.24,0,0,0,5.63,0l6.38-3.7C403.85,252.72,403.83,251.25,402.28,250.35Z"/><path class="cls-5" d="M398.52,245.17l6.37,3.67a6.21,6.21,0,0,0,5.63,0l1-.6c1.55-.9,1.53-2.37,0-3.27l-6.36-3.67a6.23,6.23,0,0,0-5.64,0l-1,.6C397,242.8,397,244.27,398.52,245.17Z"/><path class="cls-5" d="M413,253.54l6.65,3.83a6.23,6.23,0,0,0,5.64,0l1-.6c1.54-.9,1.53-2.37,0-3.26l-6.65-3.84a6.21,6.21,0,0,0-5.63,0l-1,.61C411.46,251.17,411.46,252.64,413,253.54Z"/><path class="cls-5" d="M457.8,279.39l6.37,3.68a6.21,6.21,0,0,0,5.63,0l1-.61c1.55-.89,1.54-2.36,0-3.26l-6.37-3.67a6.21,6.21,0,0,0-5.63,0l-1,.6C456.24,277,456.25,278.5,457.8,279.39Z"/><path class="cls-5" d="M427.8,262.07l6.54,3.78a6.26,6.26,0,0,0,5.64,0l1-.61c1.54-.89,1.53-2.37,0-3.26l-6.55-3.78a6.21,6.21,0,0,0-5.63,0l-1,.61C426.23,259.7,426.24,261.17,427.8,262.07Z"/><path class="cls-5" d="M417.06,258.88l-6.65-3.83a6.19,6.19,0,0,0-5.62,0l-6.38,3.71c-1.54.89-1.53,2.36,0,3.25l6.65,3.84a6.19,6.19,0,0,0,5.62,0l6.39-3.7C418.62,261.25,418.62,259.78,417.06,258.88Z"/><path class="cls-5" d="M431.74,267.36l-6.55-3.78a6.19,6.19,0,0,0-5.62,0l-6.39,3.71c-1.53.89-1.53,2.36,0,3.26l6.55,3.78a6.25,6.25,0,0,0,5.62,0l6.39-3.71C433.3,269.73,433.29,268.26,431.74,267.36Z"/><path class="cls-5" d="M442.48,270.55l7.19,4.15a6.23,6.23,0,0,0,5.64,0l1-.61c1.54-.89,1.53-2.36,0-3.26l-7.2-4.15a6.21,6.21,0,0,0-5.63,0l-1,.6C440.91,268.18,440.92,269.65,442.48,270.55Z"/><path class="cls-5" d="M447.07,276.21l-7.2-4.15a6.22,6.22,0,0,0-5.62,0l-6.39,3.71c-1.53.9-1.52,2.36,0,3.26l7.19,4.16a6.27,6.27,0,0,0,5.63,0l6.38-3.71C448.63,278.58,448.63,277.11,447.07,276.21Z"/><path class="cls-5" d="M348,264c-1.55.89-1.54,2.36,0,3.26l7.19,4.15a6.23,6.23,0,0,0,5.64,0l6.32-3.67c1.54-.9,1.54-2.37,0-3.26l-7.2-4.16a6.21,6.21,0,0,0-5.63,0Z"/><path class="cls-5" d="M381.63,276.08c1.55-.9,1.54-2.37,0-3.27l-6.37-3.68a6.22,6.22,0,0,0-5.62,0l-6.33,3.67c-1.54.9-1.53,2.37,0,3.26l6.38,3.68a6.21,6.21,0,0,0,5.63,0Z"/><path class="cls-5" d="M406.48,269.52l-6.65-3.84a6.25,6.25,0,0,0-5.62,0l-7.16,4.16c-1.54.9-1.53,2.37,0,3.26l6.64,3.84a6.26,6.26,0,0,0,5.64,0l7.15-4.16C408,271.89,408,270.42,406.48,269.52Z"/><path class="cls-5" d="M421.16,278l-6.55-3.78a6.21,6.21,0,0,0-5.63,0l-7.15,4.15c-1.55.9-1.54,2.37,0,3.27l6.54,3.78a6.24,6.24,0,0,0,5.63,0l7.16-4.16C422.72,280.36,422.71,278.89,421.16,278Z"/><path class="cls-5" d="M436.49,286.85l-7.2-4.16a6.25,6.25,0,0,0-5.62,0l-7.16,4.16c-1.55.9-1.54,2.37,0,3.26l7.2,4.16a6.29,6.29,0,0,0,5.64,0l7.15-4.16C438.05,289.22,438,287.74,436.49,286.85Z"/><path class="cls-5" d="M392.58,293l6.55,3.78a6.23,6.23,0,0,0,5.64,0l6.32-3.67c1.54-.9,1.53-2.37,0-3.26L404.52,286a6.27,6.27,0,0,0-5.63,0l-6.33,3.68C391,290.61,391,292.08,392.58,293Z"/><path class="cls-5" d="M451,295.22l-6.37-3.67a6.24,6.24,0,0,0-5.63,0l-7.15,4.16c-1.55.9-1.54,2.36,0,3.26l6.36,3.68a6.21,6.21,0,0,0,5.63,0l7.16-4.16C452.55,297.58,452.54,296.12,451,295.22Z"/><path class="cls-5" d="M407.26,301.45l7.2,4.15a6.21,6.21,0,0,0,5.63,0l6.33-3.67c1.54-.9,1.53-2.37,0-3.26l-7.2-4.16a6.21,6.21,0,0,0-5.63,0l-6.32,3.68C405.7,299.08,405.71,300.55,407.26,301.45Z"/><path class="cls-5" d="M384.11,305.08l6.54,3.78a6.21,6.21,0,0,0,5.63,0l6.61-3.84c1.54-.9,1.53-2.36,0-3.26L396.31,298a6.22,6.22,0,0,0-5.62,0l-6.6,3.84C382.54,302.73,382.56,304.19,384.11,305.08Z"/><path class="cls-5" d="M356.89,306.35l6.55,3.78a6.22,6.22,0,0,0,5.62,0l6.58-3.82c1.54-.89,1.53-2.36,0-3.25l-6.55-3.78a6.24,6.24,0,0,0-5.63,0l-6.57,3.82C355.33,304,355.33,305.45,356.89,306.35Z"/><path class="cls-5" d="M465.76,303.75l-6.64-3.84a6.27,6.27,0,0,0-5.63,0l-7.15,4.16c-1.55.89-1.53,2.37,0,3.26l6.64,3.84a6.23,6.23,0,0,0,5.64,0l7.15-4.16C467.32,306.11,467.31,304.65,465.76,303.75Z"/><path class="cls-5" d="M422.59,310.3,429,314a6.24,6.24,0,0,0,5.63,0l6.32-3.67c1.55-.9,1.55-2.36,0-3.26l-6.37-3.68a6.27,6.27,0,0,0-5.63,0L422.57,307C421,307.93,421,309.4,422.59,310.3Z"/><path class="cls-5" d="M398.79,313.56l7.2,4.16a6.25,6.25,0,0,0,5.62,0l6.6-3.84c1.55-.9,1.53-2.36,0-3.26l-7.2-4.15a6.19,6.19,0,0,0-5.62,0l-6.6,3.84C397.22,311.2,397.23,312.66,398.79,313.56Z"/><path class="cls-5" d="M479.47,311.66l-5.58-3.21a6.19,6.19,0,0,0-5.62,0l-7.15,4.15c-1.55.9-1.54,2.37,0,3.26l5.57,3.22a6.21,6.21,0,0,0,5.63,0l7.16-4.16C481,314,481,312.56,479.47,311.66Z"/><path class="cls-5" d="M437.1,318.67l6.63,3.83a6.17,6.17,0,0,0,5.64,0l6.32-3.67c1.55-.89,1.54-2.36,0-3.26L449,311.74a6.23,6.23,0,0,0-5.64,0l-6.32,3.67C435.53,316.31,435.54,317.77,437.1,318.67Z"/><path class="cls-5" d="M414.12,322.41l6.37,3.68a6.22,6.22,0,0,0,5.62,0l6.61-3.84c1.54-.89,1.53-2.36,0-3.26l-6.36-3.67a6.21,6.21,0,0,0-5.63,0l-6.6,3.83C412.55,320.05,412.57,321.52,414.12,322.41Z"/><path class="cls-5" d="M494.8,320.51l-7.2-4.15a6.21,6.21,0,0,0-5.63,0l-7.15,4.15c-1.55.9-1.54,2.37,0,3.27l7.19,4.15a6.23,6.23,0,0,0,5.64,0l7.15-4.16C496.36,322.88,496.35,321.41,494.8,320.51Z"/><path class="cls-5" d="M451.87,327.2l5.57,3.22a6.21,6.21,0,0,0,5.63,0l6.33-3.67c1.54-.9,1.53-2.37,0-3.27l-5.57-3.22a6.29,6.29,0,0,0-5.64,0l-6.32,3.68C450.31,324.84,450.31,326.31,451.87,327.2Z"/><path class="cls-5" d="M428.62,330.78l6.65,3.84a6.22,6.22,0,0,0,5.62,0l6.6-3.84c1.55-.89,1.53-2.36,0-3.25l-6.64-3.84a6.19,6.19,0,0,0-5.62,0l-6.61,3.84C427.06,328.43,427.07,329.89,428.62,330.78Z"/><path class="cls-5" d="M465.57,335.12l7.21,4.15a6.25,6.25,0,0,0,5.62,0l6.32-3.68c1.55-.9,1.54-2.36,0-3.26l-7.21-4.15a6.21,6.21,0,0,0-5.63,0l-6.32,3.67C464,332.75,464,334.22,465.57,335.12Z"/><path class="cls-5" d="M443.4,339.32l5.57,3.21a6.19,6.19,0,0,0,5.62,0l6.61-3.84c1.54-.89,1.52-2.36,0-3.25l-5.57-3.22a6.21,6.21,0,0,0-5.63,0l-6.6,3.84C441.83,337,441.84,338.41,443.4,339.32Z"/><path class="cls-5" d="M480.9,344l6.37,3.67a6.23,6.23,0,0,0,5.64,0l6.32-3.67c1.54-.9,1.53-2.37,0-3.27L492.84,337a6.21,6.21,0,0,0-5.63,0l-6.32,3.67C479.35,341.6,479.35,343.06,480.9,344Z"/><path class="cls-5" d="M457.1,347.22l7.2,4.16a6.21,6.21,0,0,0,5.63,0l6.6-3.84c1.55-.9,1.53-2.36,0-3.26l-7.2-4.16a6.22,6.22,0,0,0-5.62,0l-6.6,3.84C455.53,344.87,455.55,346.33,457.1,347.22Z"/><path class="cls-5" d="M461.83,352.82l-78.09-45.08a6.19,6.19,0,0,0-5.62,0l-6.57,3.82c-1.54.89-1.54,2.36,0,3.26l78.08,45.08a6.29,6.29,0,0,0,5.64,0l6.57-3.82C463.39,355.18,463.38,353.72,461.83,352.82Z"/><path class="cls-5" d="M476.33,361.19,470,357.52a6.24,6.24,0,0,0-5.63,0l-6.57,3.82c-1.54.89-1.54,2.37,0,3.26l6.37,3.68a6.22,6.22,0,0,0,5.62,0l6.58-3.82C477.89,363.55,477.88,362.09,476.33,361.19Z"/><path class="cls-5" d="M490.17,369.18l-5.71-3.3a6.27,6.27,0,0,0-5.63,0l-6.57,3.82c-1.54.89-1.54,2.37,0,3.26l5.72,3.3a6.21,6.21,0,0,0,5.63,0l6.58-3.82C491.74,371.55,491.73,370.08,490.17,369.18Z"/><path class="cls-5" d="M342.11,297.82l6.64,3.83a6.26,6.26,0,0,0,5.64,0l6.57-3.82c1.54-.89,1.53-2.36,0-3.26l-6.64-3.83a6.24,6.24,0,0,0-5.63,0l-6.57,3.82C340.56,295.45,340.56,296.92,342.11,297.82Z"/><path class="cls-5" d="M327.61,289.44l6.36,3.68a6.26,6.26,0,0,0,5.64,0l6.57-3.82c1.54-.89,1.53-2.36,0-3.26l-6.37-3.67a6.19,6.19,0,0,0-5.62,0l-6.58,3.82C326.05,287.07,326.05,288.54,327.61,289.44Z"/><path class="cls-5" d="M331.66,277.67l-7.2-4.16a6.25,6.25,0,0,0-5.62,0l-6.58,3.82c-1.53.89-1.53,2.36,0,3.26l7.2,4.16a6.27,6.27,0,0,0,5.63,0l6.58-3.82C333.22,280,333.22,278.56,331.66,277.67Z"/><path class="cls-5" d="M565.87,379.19l-7.9-4.56a6.21,6.21,0,0,0-5.63,0L546,378.31c-1.54.9-1.54,2.36,0,3.26l7.9,4.56a6.23,6.23,0,0,0,5.64,0l6.32-3.68C567.43,381.56,567.43,380.09,565.87,379.19Z"/><path class="cls-5" d="M551.46,387.56l-7.9-4.56a6.19,6.19,0,0,0-5.62,0l-6.6,3.84c-1.55.9-1.54,2.36,0,3.26l7.89,4.56a6.21,6.21,0,0,0,5.63,0l6.6-3.84C553,389.92,553,388.46,551.46,387.56Z"/><path class="cls-5" d="M381.6,300.39l6.6-3.84c1.55-.9,1.54-2.36,0-3.26l-6.64-3.83a6.24,6.24,0,0,0-5.63,0l-6.6,3.84c-1.55.9-1.53,2.36,0,3.26l6.64,3.84A6.21,6.21,0,0,0,381.6,300.39Z"/><path class="cls-5" d="M383.19,236.32l7.19,4.15a6.23,6.23,0,0,0,5.64,0l1-.61c1.55-.89,1.54-2.36,0-3.26l-7.19-4.15a6.23,6.23,0,0,0-5.64,0l-1,.6C381.63,234,381.63,235.42,383.19,236.32Z"/><path class="cls-5" d="M367.26,227.12l7.79,4.5a6.23,6.23,0,0,0,5.64,0l1-.61c1.55-.89,1.54-2.36,0-3.26l-7.79-4.5a6.27,6.27,0,0,0-5.63,0l-1,.61C365.7,224.76,365.71,226.23,367.26,227.12Z"/><path class="cls-5" d="M352.67,235.6l7.8,4.5a6.27,6.27,0,0,0,5.63,0l6.38-3.71c1.54-.89,1.53-2.36,0-3.26l-7.79-4.5a6.25,6.25,0,0,0-5.62,0l-6.38,3.71C351.12,233.24,351.13,234.7,352.67,235.6Z"/><path class="cls-5" d="M387.78,242l-7.19-4.15a6.24,6.24,0,0,0-5.63,0l-6.38,3.71c-1.54.9-1.53,2.36,0,3.26l7.2,4.16a6.27,6.27,0,0,0,5.63,0l6.38-3.71C389.35,244.35,389.34,242.88,387.78,242Z"/><path class="cls-5" d="M337.44,244.45l11.67,6.74a6.21,6.21,0,0,0,5.63,0L361.9,247c1.54-.9,1.53-2.36,0-3.26L350.2,237a6.25,6.25,0,0,0-5.62,0l-7.15,4.16C335.88,242.09,335.89,243.56,337.44,244.45Z"/><path class="cls-5" d="M364.38,248.46l-7.16,4.16c-1.54.9-1.53,2.37,0,3.26l7.2,4.16a6.27,6.27,0,0,0,5.63,0l7.16-4.16c1.53-.89,1.53-2.36,0-3.26l-7.2-4.15A6.22,6.22,0,0,0,364.38,248.46Z"/><path class="cls-5" d="M323,252.82l16.8,9.7a6.23,6.23,0,0,0,5.64,0l6.32-3.67c1.54-.9,1.54-2.37,0-3.26L335,245.88a6.22,6.22,0,0,0-5.62,0L323,249.56C321.48,250.46,321.49,251.93,323,252.82Z"/><path class="cls-5" d="M309.78,275.89l6.57-3.82c1.54-.89,1.54-2.35,0-3.25l-10.44-6a6.19,6.19,0,0,0-5.62,0l-6.58,3.82c-1.54.89-1.54,2.36,0,3.26l10.45,6A6.18,6.18,0,0,0,309.78,275.89Z"/><path class="cls-5" d="M308.36,261.35l23,13.29a6.22,6.22,0,0,0,5.62,0l6.61-3.84c1.54-.9,1.53-2.36,0-3.26l-23-13.28a6.19,6.19,0,0,0-5.62,0l-6.6,3.83C306.79,259,306.81,260.45,308.36,261.35Z"/><path class="cls-5" d="M339.48,276.08c-1.54.89-1.53,2.35,0,3.25l7.2,4.16a6.21,6.21,0,0,0,5.63,0l6.6-3.84c1.55-.89,1.53-2.36,0-3.26l-7.2-4.16a6.25,6.25,0,0,0-5.62,0Z"/><path class="cls-5" d="M367,281.09a6.21,6.21,0,0,0-5.63,0l-6.6,3.83c-1.55.9-1.53,2.37,0,3.26l6.37,3.68a6.19,6.19,0,0,0,5.62,0l6.6-3.84c1.55-.9,1.53-2.36,0-3.25Z"/><path class="cls-5" d="M557.94,368.5l7.15-4.16c1.54-.89,1.53-2.36,0-3.26L547.24,350.8a6.22,6.22,0,0,0-5.62,0L534.46,355c-1.54.9-1.54,2.36,0,3.27L552.3,368.5A6.23,6.23,0,0,0,557.94,368.5Z"/><path class="cls-5" d="M519.44,349.53l6.91,4a6.27,6.27,0,0,0,5.63,0l7.16-4.16c1.53-.89,1.53-2.36,0-3.26l-6.9-4a6.27,6.27,0,0,0-5.63,0l-7.15,4.16C517.88,347.17,517.89,348.63,519.44,349.53Z"/><path class="cls-5" d="M543.54,376.87l6.32-3.67c1.54-.9,1.54-2.37,0-3.27l-27.72-16a6.24,6.24,0,0,0-5.63,0l-6.32,3.68c-1.55.9-1.55,2.36,0,3.26l27.72,16A6.23,6.23,0,0,0,543.54,376.87Z"/><path class="cls-5" d="M495.41,352.34l6.64,3.83a6.21,6.21,0,0,0,5.63,0L514,352.5c1.55-.9,1.54-2.37,0-3.26l-6.65-3.84a6.21,6.21,0,0,0-5.63,0l-6.32,3.67C493.84,350,493.85,351.44,495.41,352.34Z"/><path class="cls-5" d="M377.81,284.44l6.64,3.84a6.26,6.26,0,0,0,5.64,0l6.32-3.68c1.54-.9,1.53-2.36,0-3.26l-6.64-3.83a6.23,6.23,0,0,0-5.64,0l-6.32,3.67C376.24,282.08,376.25,283.54,377.81,284.44Z"/><path class="cls-5" d="M595.55,361.94l-7.89-4.56a6.22,6.22,0,0,0-5.62,0l-6.39,3.71c-1.53.89-1.53,2.36,0,3.25l7.9,4.56a6.24,6.24,0,0,0,5.63,0l6.38-3.71C597.12,364.3,597.11,362.83,595.55,361.94Z"/><path class="cls-5" d="M581.1,370.34l-7.9-4.56a6.22,6.22,0,0,0-5.62,0l-7.15,4.16c-1.55.9-1.55,2.36,0,3.26l7.89,4.56a6.23,6.23,0,0,0,5.64,0l7.15-4.16C582.66,372.7,582.65,371.24,581.1,370.34Z"/><path class="cls-5" d="M490.05,301l-5.57-3.21a6.21,6.21,0,0,0-5.63,0l-6.38,3.71c-1.54.89-1.53,2.36,0,3.25l5.57,3.22a6.22,6.22,0,0,0,5.62,0l6.39-3.71C491.61,303.39,491.6,301.92,490.05,301Z"/><path class="cls-5" d="M604.81,356.56,596.92,352a6.18,6.18,0,0,0-5.63,0l-1,.6c-1.55.9-1.54,2.36,0,3.26l7.89,4.56a6.29,6.29,0,0,0,5.64,0l1-.61C606.38,358.92,606.37,357.46,604.81,356.56Z"/><path class="cls-5" d="M560.43,338.64l7.2,4.16a6.21,6.21,0,0,0,5.63,0l1-.61c1.54-.89,1.54-2.36,0-3.26l-7.2-4.16a6.29,6.29,0,0,0-5.64,0l-1,.61C558.86,336.28,558.87,337.74,560.43,338.64Z"/><path class="cls-5" d="M575.76,347.5l6.37,3.67a6.21,6.21,0,0,0,5.63,0l1-.6c1.55-.9,1.54-2.37,0-3.27l-6.36-3.67a6.21,6.21,0,0,0-5.63,0l-1,.61C574.2,345.13,574.21,346.6,575.76,347.5Z"/><path class="cls-5" d="M573.17,359.65l6.38-3.71c1.54-.89,1.53-2.36,0-3.25l-21.69-12.53a6.24,6.24,0,0,0-5.63,0l-6.38,3.71c-1.54.9-1.53,2.36,0,3.26l21.7,12.53A6.21,6.21,0,0,0,573.17,359.65Z"/><path class="cls-5" d="M545.39,330l6.91,4a6.24,6.24,0,0,0,5.63,0l1-.61c1.55-.9,1.54-2.36,0-3.26l-6.91-4a6.27,6.27,0,0,0-5.63,0l-1,.61C543.83,327.6,543.83,329.06,545.39,330Z"/><path class="cls-5" d="M530.62,321.44l6.64,3.83a6.24,6.24,0,0,0,5.63,0l1-.61c1.55-.9,1.54-2.36,0-3.26l-6.64-3.84a6.29,6.29,0,0,0-5.64,0l-1,.61C529.05,319.07,529.06,320.54,530.62,321.44Z"/><path class="cls-5" d="M516.11,313.06l6.37,3.68a6.26,6.26,0,0,0,5.64,0l1-.61c1.55-.89,1.54-2.36,0-3.26l-6.37-3.68a6.25,6.25,0,0,0-5.62,0l-1,.61C514.56,310.7,514.57,312.17,516.11,313.06Z"/><path class="cls-5" d="M519.88,318.25l-6.37-3.68a6.25,6.25,0,0,0-5.62,0l-6.38,3.71c-1.54.9-1.53,2.36,0,3.26l6.37,3.68a6.27,6.27,0,0,0,5.63,0l6.38-3.71C521.45,320.62,521.44,319.15,519.88,318.25Z"/><path class="cls-5" d="M534.66,326.78,528,322.94a6.27,6.27,0,0,0-5.63,0L516,326.65c-1.54.9-1.53,2.36,0,3.26l6.64,3.83a6.24,6.24,0,0,0,5.63,0l6.38-3.71C536.22,329.15,536.21,327.68,534.66,326.78Z"/><path class="cls-5" d="M543.33,342.43l6.39-3.71c1.53-.89,1.53-2.36,0-3.25l-6.91-4a6.24,6.24,0,0,0-5.63,0l-6.38,3.71c-1.54.89-1.53,2.36,0,3.26l6.91,4A6.23,6.23,0,0,0,543.33,342.43Z"/><path class="cls-5" d="M472.3,287.77,479,291.6a6.21,6.21,0,0,0,5.63,0l1.05-.6c1.54-.9,1.53-2.37,0-3.26L479,283.9a6.26,6.26,0,0,0-5.64,0l-1,.61C470.74,285.4,470.75,286.87,472.3,287.77Z"/><path class="cls-5" d="M536.78,396.09l-7.89-4.55a6.22,6.22,0,0,0-5.62,0l-6.58,3.83c-1.54.89-1.54,2.36,0,3.26l7.9,4.55a6.21,6.21,0,0,0,5.63,0l6.58-3.82C538.35,398.46,538.34,397,536.78,396.09Z"/><path class="cls-11" d="M505.55,378.06l-7.24-4.18a6.22,6.22,0,0,0-5.62,0l-6.58,3.82c-1.54.9-1.54,2.37,0,3.26l7.24,4.18a6.23,6.23,0,0,0,5.64,0l6.57-3.82C507.11,380.43,507.1,379,505.55,378.06Z"/><path class="cls-11" d="M516.15,381.32l7.07,4.08a6.24,6.24,0,0,0,5.63,0l6.61-3.84c1.54-.9,1.53-2.36,0-3.26l-7.07-4.08a6.21,6.21,0,0,0-5.63,0l-6.6,3.84C514.58,379,514.6,380.42,516.15,381.32Z"/><path class="cls-11" d="M520.75,386.84l-7.07-4.08a6.24,6.24,0,0,0-5.63,0l-6.57,3.82c-1.54.9-1.54,2.37,0,3.27l7.07,4.08a6.29,6.29,0,0,0,5.64,0l6.57-3.82C522.32,389.2,522.31,387.74,520.75,386.84Z"/><path class="cls-11" d="M486.93,364.45,508,376.62a6.21,6.21,0,0,0,5.63,0l6.6-3.84c1.55-.9,1.52-2.37,0-3.26l-21.09-12.18a6.19,6.19,0,0,0-5.62,0l-6.61,3.84C485.36,362.09,485.37,363.55,486.93,364.45Z"/><path class="cls-11" d="M472.43,356.08l6.37,3.68a6.25,6.25,0,0,0,5.62,0l6.61-3.84c1.54-.9,1.53-2.36,0-3.26L484.64,349a6.21,6.21,0,0,0-5.63,0l-6.6,3.84C470.86,353.72,470.88,355.18,472.43,356.08Z"/><path class="cls-11" d="M490.17,332.63l6.37,3.68a6.22,6.22,0,0,0,5.62,0l7.16-4.16c1.54-.89,1.53-2.36,0-3.25l-6.37-3.68a6.21,6.21,0,0,0-5.63,0l-7.15,4.15C488.6,330.26,488.61,331.73,490.17,332.63Z"/><path class="cls-11" d="M524.1,340.68c1.54-.9,1.53-2.36,0-3.26l-6.63-3.84a6.27,6.27,0,0,0-5.63,0l-7.16,4.16c-1.54.9-1.54,2.36,0,3.26l6.64,3.84a6.29,6.29,0,0,0,5.64,0Z"/><path class="cls-11" d="M487.08,296.3l5.57,3.21a6.23,6.23,0,0,0,5.64,0l1-.6c1.54-.9,1.54-2.37,0-3.27l-5.57-3.21a6.23,6.23,0,0,0-5.64,0l-1,.61C485.52,293.93,485.53,295.4,487.08,296.3Z"/><path class="cls-11" d="M500.79,304.21l7.2,4.16a6.24,6.24,0,0,0,5.63,0l1-.6c1.54-.9,1.53-2.37,0-3.26l-7.21-4.16a6.24,6.24,0,0,0-5.63,0l-1,.61C499.22,301.84,499.24,303.32,500.79,304.21Z"/><path class="cls-11" d="M505.39,309.88l-7.21-4.16a6.25,6.25,0,0,0-5.62,0l-6.39,3.71c-1.53.89-1.52,2.36,0,3.26l7.2,4.16a6.25,6.25,0,0,0,5.62,0l6.38-3.71C506.94,312.24,506.93,310.77,505.39,309.88Z"/><path class="cls-11" d="M461.57,284.58l-6.37-3.67a6.22,6.22,0,0,0-5.62,0l-6.39,3.71c-1.54.9-1.53,2.36,0,3.26l6.37,3.68a6.25,6.25,0,0,0,5.62,0l6.38-3.71C463.13,287,463.12,285.48,461.57,284.58Z"/><path class="cls-11" d="M476.35,293.11l-6.65-3.83a6.24,6.24,0,0,0-5.63,0L457.69,293c-1.54.9-1.52,2.37,0,3.26l6.64,3.84a6.24,6.24,0,0,0,5.63,0l6.38-3.71C477.91,295.48,477.9,294,476.35,293.11Z"/><path class="cls-11" d="M391.7,261l-6.37-3.68a6.22,6.22,0,0,0-5.62,0l-7.16,4.16c-1.54.9-1.54,2.37,0,3.26l6.37,3.68a6.21,6.21,0,0,0,5.63,0l7.15-4.16C393.26,263.35,393.25,261.89,391.7,261Z"/><path class="cls-11" d="M402.28,250.35l-6.36-3.67a6.21,6.21,0,0,0-5.63,0l-6.38,3.7c-1.54.9-1.53,2.37,0,3.26l6.37,3.68a6.24,6.24,0,0,0,5.63,0l6.38-3.7C403.85,252.72,403.83,251.25,402.28,250.35Z"/><path class="cls-11" d="M398.52,245.17l6.37,3.67a6.21,6.21,0,0,0,5.63,0l1-.6c1.55-.9,1.53-2.37,0-3.27l-6.36-3.67a6.23,6.23,0,0,0-5.64,0l-1,.6C397,242.8,397,244.27,398.52,245.17Z"/><path class="cls-11" d="M413,253.54l6.65,3.83a6.23,6.23,0,0,0,5.64,0l1-.6c1.54-.9,1.53-2.37,0-3.26l-6.65-3.84a6.21,6.21,0,0,0-5.63,0l-1,.61C411.46,251.17,411.46,252.64,413,253.54Z"/><path class="cls-11" d="M457.8,279.39l6.37,3.68a6.21,6.21,0,0,0,5.63,0l1-.61c1.55-.89,1.54-2.36,0-3.26l-6.37-3.67a6.21,6.21,0,0,0-5.63,0l-1,.6C456.24,277,456.25,278.5,457.8,279.39Z"/><path class="cls-11" d="M427.8,262.07l6.54,3.78a6.26,6.26,0,0,0,5.64,0l1-.61c1.54-.89,1.53-2.37,0-3.26l-6.55-3.78a6.21,6.21,0,0,0-5.63,0l-1,.61C426.23,259.7,426.24,261.17,427.8,262.07Z"/><path class="cls-11" d="M417.06,258.88l-6.65-3.83a6.19,6.19,0,0,0-5.62,0l-6.38,3.71c-1.54.89-1.53,2.36,0,3.25l6.65,3.84a6.19,6.19,0,0,0,5.62,0l6.39-3.7C418.62,261.25,418.62,259.78,417.06,258.88Z"/><path class="cls-11" d="M431.74,267.36l-6.55-3.78a6.19,6.19,0,0,0-5.62,0l-6.39,3.71c-1.53.89-1.53,2.36,0,3.26l6.55,3.78a6.25,6.25,0,0,0,5.62,0l6.39-3.71C433.3,269.73,433.29,268.26,431.74,267.36Z"/><path class="cls-11" d="M442.48,270.55l7.19,4.15a6.23,6.23,0,0,0,5.64,0l1-.61c1.54-.89,1.53-2.36,0-3.26l-7.2-4.15a6.21,6.21,0,0,0-5.63,0l-1,.6C440.91,268.18,440.92,269.65,442.48,270.55Z"/><path class="cls-11" d="M447.07,276.21l-7.2-4.15a6.22,6.22,0,0,0-5.62,0l-6.39,3.71c-1.53.9-1.52,2.36,0,3.26l7.19,4.16a6.27,6.27,0,0,0,5.63,0l6.38-3.71C448.63,278.58,448.63,277.11,447.07,276.21Z"/><path class="cls-11" d="M348,264c-1.55.89-1.54,2.36,0,3.26l7.19,4.15a6.23,6.23,0,0,0,5.64,0l6.32-3.67c1.54-.9,1.54-2.37,0-3.26l-7.2-4.16a6.21,6.21,0,0,0-5.63,0Z"/><path class="cls-11" d="M381.63,276.08c1.55-.9,1.54-2.37,0-3.27l-6.37-3.68a6.22,6.22,0,0,0-5.62,0l-6.33,3.67c-1.54.9-1.53,2.37,0,3.26l6.38,3.68a6.21,6.21,0,0,0,5.63,0Z"/><path class="cls-11" d="M406.48,269.52l-6.65-3.84a6.25,6.25,0,0,0-5.62,0l-7.16,4.16c-1.54.9-1.53,2.37,0,3.26l6.64,3.84a6.26,6.26,0,0,0,5.64,0l7.15-4.16C408,271.89,408,270.42,406.48,269.52Z"/><path class="cls-11" d="M421.16,278l-6.55-3.78a6.21,6.21,0,0,0-5.63,0l-7.15,4.15c-1.55.9-1.54,2.37,0,3.27l6.54,3.78a6.24,6.24,0,0,0,5.63,0l7.16-4.16C422.72,280.36,422.71,278.89,421.16,278Z"/><path class="cls-11" d="M436.49,286.85l-7.2-4.16a6.25,6.25,0,0,0-5.62,0l-7.16,4.16c-1.55.9-1.54,2.37,0,3.26l7.2,4.16a6.29,6.29,0,0,0,5.64,0l7.15-4.16C438.05,289.22,438,287.74,436.49,286.85Z"/><path class="cls-11" d="M392.58,293l6.55,3.78a6.23,6.23,0,0,0,5.64,0l6.32-3.67c1.54-.9,1.53-2.37,0-3.26L404.52,286a6.27,6.27,0,0,0-5.63,0l-6.33,3.68C391,290.61,391,292.08,392.58,293Z"/><path class="cls-11" d="M451,295.22l-6.37-3.67a6.24,6.24,0,0,0-5.63,0l-7.15,4.16c-1.55.9-1.54,2.36,0,3.26l6.36,3.68a6.21,6.21,0,0,0,5.63,0l7.16-4.16C452.55,297.58,452.54,296.12,451,295.22Z"/><path class="cls-11" d="M407.26,301.45l7.2,4.15a6.21,6.21,0,0,0,5.63,0l6.33-3.67c1.54-.9,1.53-2.37,0-3.26l-7.2-4.16a6.21,6.21,0,0,0-5.63,0l-6.32,3.68C405.7,299.08,405.71,300.55,407.26,301.45Z"/><path class="cls-11" d="M384.11,305.08l6.54,3.78a6.21,6.21,0,0,0,5.63,0l6.61-3.84c1.54-.9,1.53-2.36,0-3.26L396.31,298a6.22,6.22,0,0,0-5.62,0l-6.6,3.84C382.54,302.73,382.56,304.19,384.11,305.08Z"/><path class="cls-11" d="M356.89,306.35l6.55,3.78a6.22,6.22,0,0,0,5.62,0l6.58-3.82c1.54-.89,1.53-2.36,0-3.25l-6.55-3.78a6.24,6.24,0,0,0-5.63,0l-6.57,3.82C355.33,304,355.33,305.45,356.89,306.35Z"/><path class="cls-11" d="M465.76,303.75l-6.64-3.84a6.27,6.27,0,0,0-5.63,0l-7.15,4.16c-1.55.89-1.53,2.37,0,3.26l6.64,3.84a6.23,6.23,0,0,0,5.64,0l7.15-4.16C467.32,306.11,467.31,304.65,465.76,303.75Z"/><path class="cls-11" d="M422.59,310.3,429,314a6.24,6.24,0,0,0,5.63,0l6.32-3.67c1.55-.9,1.55-2.36,0-3.26l-6.37-3.68a6.27,6.27,0,0,0-5.63,0L422.57,307C421,307.93,421,309.4,422.59,310.3Z"/><path class="cls-11" d="M398.79,313.56l7.2,4.16a6.25,6.25,0,0,0,5.62,0l6.6-3.84c1.55-.9,1.53-2.36,0-3.26l-7.2-4.15a6.19,6.19,0,0,0-5.62,0l-6.6,3.84C397.22,311.2,397.23,312.66,398.79,313.56Z"/><path class="cls-11" d="M479.47,311.66l-5.58-3.21a6.19,6.19,0,0,0-5.62,0l-7.15,4.15c-1.55.9-1.54,2.37,0,3.26l5.57,3.22a6.21,6.21,0,0,0,5.63,0l7.16-4.16C481,314,481,312.56,479.47,311.66Z"/><path class="cls-11" d="M437.1,318.67l6.63,3.83a6.17,6.17,0,0,0,5.64,0l6.32-3.67c1.55-.89,1.54-2.36,0-3.26L449,311.74a6.23,6.23,0,0,0-5.64,0l-6.32,3.67C435.53,316.31,435.54,317.77,437.1,318.67Z"/><path class="cls-11" d="M414.12,322.41l6.37,3.68a6.22,6.22,0,0,0,5.62,0l6.61-3.84c1.54-.89,1.53-2.36,0-3.26l-6.36-3.67a6.21,6.21,0,0,0-5.63,0l-6.6,3.83C412.55,320.05,412.57,321.52,414.12,322.41Z"/><path class="cls-11" d="M494.8,320.51l-7.2-4.15a6.21,6.21,0,0,0-5.63,0l-7.15,4.15c-1.55.9-1.54,2.37,0,3.27l7.19,4.15a6.23,6.23,0,0,0,5.64,0l7.15-4.16C496.36,322.88,496.35,321.41,494.8,320.51Z"/><path class="cls-11" d="M451.87,327.2l5.57,3.22a6.21,6.21,0,0,0,5.63,0l6.33-3.67c1.54-.9,1.53-2.37,0-3.27l-5.57-3.22a6.29,6.29,0,0,0-5.64,0l-6.32,3.68C450.31,324.84,450.31,326.31,451.87,327.2Z"/><path class="cls-11" d="M428.62,330.78l6.65,3.84a6.22,6.22,0,0,0,5.62,0l6.6-3.84c1.55-.89,1.53-2.36,0-3.25l-6.64-3.84a6.19,6.19,0,0,0-5.62,0l-6.61,3.84C427.06,328.43,427.07,329.89,428.62,330.78Z"/><path class="cls-11" d="M465.57,335.12l7.21,4.15a6.25,6.25,0,0,0,5.62,0l6.32-3.68c1.55-.9,1.54-2.36,0-3.26l-7.21-4.15a6.21,6.21,0,0,0-5.63,0l-6.32,3.67C464,332.75,464,334.22,465.57,335.12Z"/><path class="cls-11" d="M443.4,339.32l5.57,3.21a6.19,6.19,0,0,0,5.62,0l6.61-3.84c1.54-.89,1.52-2.36,0-3.25l-5.57-3.22a6.21,6.21,0,0,0-5.63,0l-6.6,3.84C441.83,337,441.84,338.41,443.4,339.32Z"/><path class="cls-11" d="M480.9,344l6.37,3.67a6.23,6.23,0,0,0,5.64,0l6.32-3.67c1.54-.9,1.53-2.37,0-3.27L492.84,337a6.21,6.21,0,0,0-5.63,0l-6.32,3.67C479.35,341.6,479.35,343.06,480.9,344Z"/><path class="cls-11" d="M457.1,347.22l7.2,4.16a6.21,6.21,0,0,0,5.63,0l6.6-3.84c1.55-.9,1.53-2.36,0-3.26l-7.2-4.16a6.22,6.22,0,0,0-5.62,0l-6.6,3.84C455.53,344.87,455.55,346.33,457.1,347.22Z"/><path class="cls-11" d="M461.83,352.82l-78.09-45.08a6.19,6.19,0,0,0-5.62,0l-6.57,3.82c-1.54.89-1.54,2.36,0,3.26l78.08,45.08a6.29,6.29,0,0,0,5.64,0l6.57-3.82C463.39,355.18,463.38,353.72,461.83,352.82Z"/><path class="cls-11" d="M476.33,361.19,470,357.52a6.24,6.24,0,0,0-5.63,0l-6.57,3.82c-1.54.89-1.54,2.37,0,3.26l6.37,3.68a6.22,6.22,0,0,0,5.62,0l6.58-3.82C477.89,363.55,477.88,362.09,476.33,361.19Z"/><path class="cls-11" d="M490.17,369.18l-5.71-3.3a6.27,6.27,0,0,0-5.63,0l-6.57,3.82c-1.54.89-1.54,2.37,0,3.26l5.72,3.3a6.21,6.21,0,0,0,5.63,0l6.58-3.82C491.74,371.55,491.73,370.08,490.17,369.18Z"/><path class="cls-11" d="M342.11,297.82l6.64,3.83a6.26,6.26,0,0,0,5.64,0l6.57-3.82c1.54-.89,1.53-2.36,0-3.26l-6.64-3.83a6.24,6.24,0,0,0-5.63,0l-6.57,3.82C340.56,295.45,340.56,296.92,342.11,297.82Z"/><path class="cls-11" d="M327.61,289.44l6.36,3.68a6.26,6.26,0,0,0,5.64,0l6.57-3.82c1.54-.89,1.53-2.36,0-3.26l-6.37-3.67a6.19,6.19,0,0,0-5.62,0l-6.58,3.82C326.05,287.07,326.05,288.54,327.61,289.44Z"/><path class="cls-11" d="M331.66,277.67l-7.2-4.16a6.25,6.25,0,0,0-5.62,0l-6.58,3.82c-1.53.89-1.53,2.36,0,3.26l7.2,4.16a6.27,6.27,0,0,0,5.63,0l6.58-3.82C333.22,280,333.22,278.56,331.66,277.67Z"/><path class="cls-11" d="M565.87,379.19l-7.9-4.56a6.21,6.21,0,0,0-5.63,0L546,378.31c-1.54.9-1.54,2.36,0,3.26l7.9,4.56a6.23,6.23,0,0,0,5.64,0l6.32-3.68C567.43,381.56,567.43,380.09,565.87,379.19Z"/><path class="cls-11" d="M551.46,387.56l-7.9-4.56a6.19,6.19,0,0,0-5.62,0l-6.6,3.84c-1.55.9-1.54,2.36,0,3.26l7.89,4.56a6.21,6.21,0,0,0,5.63,0l6.6-3.84C553,389.92,553,388.46,551.46,387.56Z"/><path class="cls-11" d="M381.6,300.39l6.6-3.84c1.55-.9,1.54-2.36,0-3.26l-6.64-3.83a6.24,6.24,0,0,0-5.63,0l-6.6,3.84c-1.55.9-1.53,2.36,0,3.26l6.64,3.84A6.21,6.21,0,0,0,381.6,300.39Z"/><path class="cls-11" d="M383.19,236.32l7.19,4.15a6.23,6.23,0,0,0,5.64,0l1-.61c1.55-.89,1.54-2.36,0-3.26l-7.19-4.15a6.23,6.23,0,0,0-5.64,0l-1,.6C381.63,234,381.63,235.42,383.19,236.32Z"/><path class="cls-11" d="M367.26,227.12l7.79,4.5a6.23,6.23,0,0,0,5.64,0l1-.61c1.55-.89,1.54-2.36,0-3.26l-7.79-4.5a6.27,6.27,0,0,0-5.63,0l-1,.61C365.7,224.76,365.71,226.23,367.26,227.12Z"/><path class="cls-11" d="M352.67,235.6l7.8,4.5a6.27,6.27,0,0,0,5.63,0l6.38-3.71c1.54-.89,1.53-2.36,0-3.26l-7.79-4.5a6.25,6.25,0,0,0-5.62,0l-6.38,3.71C351.12,233.24,351.13,234.7,352.67,235.6Z"/><path class="cls-11" d="M387.78,242l-7.19-4.15a6.24,6.24,0,0,0-5.63,0l-6.38,3.71c-1.54.9-1.53,2.36,0,3.26l7.2,4.16a6.27,6.27,0,0,0,5.63,0l6.38-3.71C389.35,244.35,389.34,242.88,387.78,242Z"/><path class="cls-11" d="M337.44,244.45l11.67,6.74a6.21,6.21,0,0,0,5.63,0L361.9,247c1.54-.9,1.53-2.36,0-3.26L350.2,237a6.25,6.25,0,0,0-5.62,0l-7.15,4.16C335.88,242.09,335.89,243.56,337.44,244.45Z"/><path class="cls-11" d="M364.38,248.46l-7.16,4.16c-1.54.9-1.53,2.37,0,3.26l7.2,4.16a6.27,6.27,0,0,0,5.63,0l7.16-4.16c1.53-.89,1.53-2.36,0-3.26l-7.2-4.15A6.22,6.22,0,0,0,364.38,248.46Z"/><path class="cls-11" d="M323,252.82l16.8,9.7a6.23,6.23,0,0,0,5.64,0l6.32-3.67c1.54-.9,1.54-2.37,0-3.26L335,245.88a6.22,6.22,0,0,0-5.62,0L323,249.56C321.48,250.46,321.49,251.93,323,252.82Z"/><path class="cls-11" d="M309.78,275.89l6.57-3.82c1.54-.89,1.54-2.35,0-3.25l-10.44-6a6.19,6.19,0,0,0-5.62,0l-6.58,3.82c-1.54.89-1.54,2.36,0,3.26l10.45,6A6.18,6.18,0,0,0,309.78,275.89Z"/><path class="cls-11" d="M308.36,261.35l23,13.29a6.22,6.22,0,0,0,5.62,0l6.61-3.84c1.54-.9,1.53-2.36,0-3.26l-23-13.28a6.19,6.19,0,0,0-5.62,0l-6.6,3.83C306.79,259,306.81,260.45,308.36,261.35Z"/><path class="cls-11" d="M339.48,276.08c-1.54.89-1.53,2.35,0,3.25l7.2,4.16a6.21,6.21,0,0,0,5.63,0l6.6-3.84c1.55-.89,1.53-2.36,0-3.26l-7.2-4.16a6.25,6.25,0,0,0-5.62,0Z"/><path class="cls-11" d="M367,281.09a6.21,6.21,0,0,0-5.63,0l-6.6,3.83c-1.55.9-1.53,2.37,0,3.26l6.37,3.68a6.19,6.19,0,0,0,5.62,0l6.6-3.84c1.55-.9,1.53-2.36,0-3.25Z"/><path class="cls-11" d="M557.94,368.5l7.15-4.16c1.54-.89,1.53-2.36,0-3.26L547.24,350.8a6.22,6.22,0,0,0-5.62,0L534.46,355c-1.54.9-1.54,2.36,0,3.27L552.3,368.5A6.23,6.23,0,0,0,557.94,368.5Z"/><path class="cls-11" d="M519.44,349.53l6.91,4a6.27,6.27,0,0,0,5.63,0l7.16-4.16c1.53-.89,1.53-2.36,0-3.26l-6.9-4a6.27,6.27,0,0,0-5.63,0l-7.15,4.16C517.88,347.17,517.89,348.63,519.44,349.53Z"/><path class="cls-11" d="M543.54,376.87l6.32-3.67c1.54-.9,1.54-2.37,0-3.27l-27.72-16a6.24,6.24,0,0,0-5.63,0l-6.32,3.68c-1.55.9-1.55,2.36,0,3.26l27.72,16A6.23,6.23,0,0,0,543.54,376.87Z"/><path class="cls-11" d="M495.41,352.34l6.64,3.83a6.21,6.21,0,0,0,5.63,0L514,352.5c1.55-.9,1.54-2.37,0-3.26l-6.65-3.84a6.21,6.21,0,0,0-5.63,0l-6.32,3.67C493.84,350,493.85,351.44,495.41,352.34Z"/><path class="cls-11" d="M377.81,284.44l6.64,3.84a6.26,6.26,0,0,0,5.64,0l6.32-3.68c1.54-.9,1.53-2.36,0-3.26l-6.64-3.83a6.23,6.23,0,0,0-5.64,0l-6.32,3.67C376.24,282.08,376.25,283.54,377.81,284.44Z"/><path class="cls-11" d="M595.55,361.94l-7.89-4.56a6.22,6.22,0,0,0-5.62,0l-6.39,3.71c-1.53.89-1.53,2.36,0,3.25l7.9,4.56a6.24,6.24,0,0,0,5.63,0l6.38-3.71C597.12,364.3,597.11,362.83,595.55,361.94Z"/><path class="cls-11" d="M581.1,370.34l-7.9-4.56a6.22,6.22,0,0,0-5.62,0l-7.15,4.16c-1.55.9-1.55,2.36,0,3.26l7.89,4.56a6.23,6.23,0,0,0,5.64,0l7.15-4.16C582.66,372.7,582.65,371.24,581.1,370.34Z"/><path class="cls-11" d="M490.05,301l-5.57-3.21a6.21,6.21,0,0,0-5.63,0l-6.38,3.71c-1.54.89-1.53,2.36,0,3.25l5.57,3.22a6.22,6.22,0,0,0,5.62,0l6.39-3.71C491.61,303.39,491.6,301.92,490.05,301Z"/><path class="cls-11" d="M604.81,356.56,596.92,352a6.18,6.18,0,0,0-5.63,0l-1,.6c-1.55.9-1.54,2.36,0,3.26l7.89,4.56a6.29,6.29,0,0,0,5.64,0l1-.61C606.38,358.92,606.37,357.46,604.81,356.56Z"/><path class="cls-11" d="M560.43,338.64l7.2,4.16a6.21,6.21,0,0,0,5.63,0l1-.61c1.54-.89,1.54-2.36,0-3.26l-7.2-4.16a6.29,6.29,0,0,0-5.64,0l-1,.61C558.86,336.28,558.87,337.74,560.43,338.64Z"/><path class="cls-11" d="M575.76,347.5l6.37,3.67a6.21,6.21,0,0,0,5.63,0l1-.6c1.55-.9,1.54-2.37,0-3.27l-6.36-3.67a6.21,6.21,0,0,0-5.63,0l-1,.61C574.2,345.13,574.21,346.6,575.76,347.5Z"/><path class="cls-11" d="M573.17,359.65l6.38-3.71c1.54-.89,1.53-2.36,0-3.25l-21.69-12.53a6.24,6.24,0,0,0-5.63,0l-6.38,3.71c-1.54.9-1.53,2.36,0,3.26l21.7,12.53A6.21,6.21,0,0,0,573.17,359.65Z"/><path class="cls-11" d="M545.39,330l6.91,4a6.24,6.24,0,0,0,5.63,0l1-.61c1.55-.9,1.54-2.36,0-3.26l-6.91-4a6.27,6.27,0,0,0-5.63,0l-1,.61C543.83,327.6,543.83,329.06,545.39,330Z"/><path class="cls-11" d="M530.62,321.44l6.64,3.83a6.24,6.24,0,0,0,5.63,0l1-.61c1.55-.9,1.54-2.36,0-3.26l-6.64-3.84a6.29,6.29,0,0,0-5.64,0l-1,.61C529.05,319.07,529.06,320.54,530.62,321.44Z"/><path class="cls-11" d="M516.11,313.06l6.37,3.68a6.26,6.26,0,0,0,5.64,0l1-.61c1.55-.89,1.54-2.36,0-3.26l-6.37-3.68a6.25,6.25,0,0,0-5.62,0l-1,.61C514.56,310.7,514.57,312.17,516.11,313.06Z"/><path class="cls-11" d="M519.88,318.25l-6.37-3.68a6.25,6.25,0,0,0-5.62,0l-6.38,3.71c-1.54.9-1.53,2.36,0,3.26l6.37,3.68a6.27,6.27,0,0,0,5.63,0l6.38-3.71C521.45,320.62,521.44,319.15,519.88,318.25Z"/><path class="cls-11" d="M534.66,326.78,528,322.94a6.27,6.27,0,0,0-5.63,0L516,326.65c-1.54.9-1.53,2.36,0,3.26l6.64,3.83a6.24,6.24,0,0,0,5.63,0l6.38-3.71C536.22,329.15,536.21,327.68,534.66,326.78Z"/><path class="cls-11" d="M543.33,342.43l6.39-3.71c1.53-.89,1.53-2.36,0-3.25l-6.91-4a6.24,6.24,0,0,0-5.63,0l-6.38,3.71c-1.54.89-1.53,2.36,0,3.26l6.91,4A6.23,6.23,0,0,0,543.33,342.43Z"/><path class="cls-11" d="M472.3,287.77,479,291.6a6.21,6.21,0,0,0,5.63,0l1.05-.6c1.54-.9,1.53-2.37,0-3.26L479,283.9a6.26,6.26,0,0,0-5.64,0l-1,.61C470.74,285.4,470.75,286.87,472.3,287.77Z"/><path class="cls-11" d="M536.78,396.09l-7.89-4.55a6.22,6.22,0,0,0-5.62,0l-6.58,3.83c-1.54.89-1.54,2.36,0,3.26l7.9,4.55a6.21,6.21,0,0,0,5.63,0l6.58-3.82C538.35,398.46,538.34,397,536.78,396.09Z"/><path class="cls-10" d="M644.09,364a4.58,4.58,0,0,0-1.21-1.55,6.19,6.19,0,0,0-4.39-1.31,11.43,11.43,0,0,0-4.22,1.19c-.37.18-.37.18-7.89,4.55l-14,8.14-19.25,11.19-22.65,13.16-24.24,14.09-24,14-22,12.77c-6.79,3.94-12.93,7.5-18.11,10.52l-12.44,7.23c-5.08,2.95-5.08,2.95-5.61,3.29s-1.55,1.08-2.63,1.94c-4.61,3.64-11.11,9.63-14.6,12.85-1.39,1.36-1.34,2.27-1,2.79a1.21,1.21,0,0,0,.48.46,2.81,2.81,0,0,0,2,.13,8.87,8.87,0,0,0,1-.29l2.49-.8,2.24-.72c4.73-1.54,7.7-2.6,8-2.72a62,62,0,0,0,8.71-3.57l.09,0q17.74-10.31,35.48-20.62l92.89-54,19.25-11.18,14-8.15c7.13-4.14,7.13-4.14,7.7-4.51a12.67,12.67,0,0,0,1.93-1.54,7.59,7.59,0,0,0,2.47-5.24A5,5,0,0,0,644.09,364Z"/><path class="cls-11" d="M465.51,460.33a10.32,10.32,0,0,1,3,2.32,12.25,12.25,0,0,1,3.15,8.09"/><path class="cls-11" d="M625,381.64a13.87,13.87,0,0,0-3.47-8,11.81,11.81,0,0,0-2.8-2.34m-3.54,2.06a6.64,6.64,0,0,1,4,2.4,10,10,0,0,1,2.61,7.75"/><path class="cls-5" d="M375.6,110.31a17.69,17.69,0,0,1-3.49,10.34,32.26,32.26,0,0,1-10.87,9.25c-18.6,10.38-48.16,10.08-66-.66a31.22,31.22,0,0,1-9.45-8.34s0,0,0,0a17.7,17.7,0,0,1-3.55-10.3q0-6.84,0-13.68c0,6.71,4.33,13.43,13,18.65,17.84,10.73,47.4,11,66,.66,9.56-5.33,14.36-12.43,14.36-19.54Q375.59,103.49,375.6,110.31Z"/><path class="cls-5" d="M375.56,96.63v.05c0,7.11-4.8,14.21-14.36,19.54-18.6,10.38-48.16,10.07-66-.66-8.67-5.22-13-11.94-13-18.65,0-5.42,2.78-10.86,8.35-15.5l2.89-2.4c-11.52,9.59-10.19,22.85,4.3,31.56,16.49,9.93,43.81,10.2,61,.62,15.58-8.69,17.52-22.48,5.5-32.38l2.9,2.39C372.74,85.82,375.54,91.23,375.56,96.63Z"/><path class="cls-2" d="M372.11,120.65,362.89,176a13.93,13.93,0,0,1-3.09,6.52,14.12,14.12,0,0,1-1.23,1.36,25.77,25.77,0,0,1-6,4.44c-13.52,7.54-35,7.32-48-.48a25.15,25.15,0,0,1-4.91-3.79h0a15.42,15.42,0,0,1-1.23-1.36h0a14,14,0,0,1-3.13-6.48l-9.53-55.25a31.22,31.22,0,0,0,9.45,8.34c17.84,10.74,47.4,11,66,.66A32.26,32.26,0,0,0,372.11,120.65Z"/><path class="cls-5" d="M364.24,78.81c12,9.9,10.08,23.69-5.5,32.38-17.19,9.58-44.51,9.31-61-.62-14.49-8.71-15.82-22-4.3-31.56A35.08,35.08,0,0,1,299,75.23c17.2-9.6,44.51-9.32,61,.62A36.17,36.17,0,0,1,364.24,78.81Zm-16.47,25.76c9.53-5.31,11-13.66,4.17-19.86l-4.2-3.82a.9.9,0,0,0-.11-.1,16.2,16.2,0,0,0-2.75-2c-8.49-5.11-22.55-5.26-31.4-.32a18.77,18.77,0,0,0-3.42,2.44l-.18.16-4.11,3.8c-6.52,6-5.43,14,3.42,19.34C319.62,110.47,336.89,110.64,347.77,104.57Z"/><path class="cls-5" d="M358.57,183.83a25.77,25.77,0,0,1-6,4.44c-13.52,7.54-35,7.32-48-.48a25.15,25.15,0,0,1-4.91-3.79h0a15.42,15.42,0,0,1-1.23-1.36c1,3.47,3.72,6.78,8.24,9.49,11.88,7.15,31.56,7.35,43.95.44,5.06-2.82,8.11-6.37,9.16-10.1A14.12,14.12,0,0,1,358.57,183.83Z"/><path class="cls-5" d="M351.94,84.71c6.8,6.2,5.36,14.55-4.17,19.86-10.88,6.07-28.15,5.9-38.58-.39-8.85-5.33-9.94-13.33-3.42-19.34l4.11-3.8c-5.11,4.88-4.17,11.3,3,15.59,8.49,5.11,22.55,5.25,31.39.32,7.71-4.3,8.93-11,3.51-16.06Z"/><path class="cls-5" d="M347.74,80.89c5.42,5,4.2,11.76-3.51,16.06-8.84,4.93-22.9,4.79-31.39-.32-7.13-4.29-8.07-10.71-3-15.59l.18-.16a18.77,18.77,0,0,1,3.42-2.44c8.85-4.94,22.91-4.79,31.4.32a16.2,16.2,0,0,1,2.75,2A.9.9,0,0,1,347.74,80.89Zm-14.29,9.57c2.65-1.48,2.73-3.91.2-5.44a10.34,10.34,0,0,0-9.38-.09c-2.65,1.47-2.74,3.91-.2,5.43a8.12,8.12,0,0,0,2.36.92,11.27,11.27,0,0,0,4.87,0A8.48,8.48,0,0,0,333.45,90.46Z"/><path class="cls-5" d="M333.65,85c2.53,1.53,2.45,4-.2,5.44a8.48,8.48,0,0,1-2.15.81,4.3,4.3,0,0,0,.43-.21c1.65-.92,1.7-2.44.12-3.39a6.48,6.48,0,0,0-5.85-.06c-1.65.92-1.71,2.44-.13,3.39a4.87,4.87,0,0,0,.56.28,8.12,8.12,0,0,1-2.36-.92c-2.54-1.52-2.45-4,.2-5.43A10.34,10.34,0,0,1,333.65,85Z"/><path class="cls-5" d="M331.85,87.67c1.58,1,1.53,2.47-.12,3.39a4.3,4.3,0,0,1-.43.21,11.27,11.27,0,0,1-4.87,0,4.87,4.87,0,0,1-.56-.28c-1.58-1-1.52-2.47.13-3.39A6.48,6.48,0,0,1,331.85,87.67Z"/><path class="cls-6" d="M359.8,182.47c-1.05,3.73-4.1,7.28-9.16,10.1-12.39,6.91-32.07,6.71-43.95-.44-4.52-2.71-7.24-6-8.24-9.49"/><path class="cls-6" d="M372.11,120.65,362.89,176a13.93,13.93,0,0,1-3.09,6.52,14.12,14.12,0,0,1-1.23,1.36,25.77,25.77,0,0,1-6,4.44c-13.52,7.54-35,7.32-48-.48a25.15,25.15,0,0,1-4.91-3.79h0a15.42,15.42,0,0,1-1.23-1.36h0a14,14,0,0,1-3.13-6.48l-9.53-55.25"/><path class="cls-6" d="M375.56,96.68c0,7.11-4.8,14.21-14.36,19.54-18.6,10.38-48.16,10.07-66-.66-8.67-5.22-13-11.94-13-18.65,0-5.42,2.78-10.86,8.35-15.5l2.89-2.4"/><path class="cls-6" d="M364.24,78.81l2.9,2.39c5.6,4.62,8.4,10,8.42,15.43"/><path class="cls-6" d="M364.24,78.81a36.17,36.17,0,0,0-4.23-3c-16.5-9.94-43.81-10.22-61-.62A35.08,35.08,0,0,0,293.44,79c-11.52,9.59-10.19,22.85,4.3,31.56,16.49,9.93,43.81,10.2,61,.62C374.32,102.5,376.26,88.71,364.24,78.81Z"/><path class="cls-6" d="M331.3,91.27a4.3,4.3,0,0,0,.43-.21c1.65-.92,1.7-2.44.12-3.39a6.48,6.48,0,0,0-5.85-.06c-1.65.92-1.71,2.44-.13,3.39a4.87,4.87,0,0,0,.56.28"/><path class="cls-6" d="M347.74,80.89l4.2,3.82c6.8,6.2,5.36,14.55-4.17,19.86-10.88,6.07-28.15,5.9-38.58-.39-8.85-5.33-9.94-13.33-3.42-19.34l4.11-3.8"/><path class="cls-6" d="M347.63,80.79a16.2,16.2,0,0,0-2.75-2c-8.49-5.11-22.55-5.26-31.4-.32a18.77,18.77,0,0,0-3.42,2.44l-.18.16c-5.11,4.88-4.17,11.3,3,15.59,8.49,5.11,22.55,5.25,31.39.32,7.71-4.3,8.93-11,3.51-16.06A.9.9,0,0,0,347.63,80.79Z"/><path class="cls-6" d="M326.43,91.28a8.12,8.12,0,0,1-2.36-.92c-2.54-1.52-2.45-4,.2-5.43a10.34,10.34,0,0,1,9.38.09c2.53,1.53,2.45,4-.2,5.44a8.48,8.48,0,0,1-2.15.81A11.27,11.27,0,0,1,326.43,91.28Z"/><path class="cls-6" d="M375.56,96.63v.05q0,6.81,0,13.63a17.69,17.69,0,0,1-3.49,10.34,32.26,32.26,0,0,1-10.87,9.25c-18.6,10.38-48.16,10.08-66-.66a31.22,31.22,0,0,1-9.45-8.34s0,0,0,0a17.7,17.7,0,0,1-3.55-10.3q0-6.84,0-13.68"/><path class="cls-9" d="M259.88,195.89V194h-.14c-.8-6.35-5.39-12.58-13.8-17.43-18.51-10.69-48.41-10.69-66.79,0-8.35,4.85-12.88,11.08-13.61,17.43h-.11v1.91h0v43.38c0,7,4.68,14,13.94,19.35,18.5,10.68,48.4,10.68,66.79,0,9.19-5.34,13.76-12.35,13.72-19.35V195.89Z"/><polygon class="cls-10" points="212.38 151.17 128.32 200.02 212.93 248.87 296.99 200.02 212.38 151.17"/><polygon class="cls-9" points="212.93 254.29 212.93 248.87 128.32 200.02 128.32 205.44 212.93 254.29"/><polygon class="cls-9" points="212.93 254.29 212.93 248.87 296.99 200.02 296.99 205.44 212.93 254.29"/><path class="cls-9" d="M276.58,275c-19-10.52-20.41-50.87-20.41-50.87l-37.75-31.89-10.09,5.5,37.75,31.88s1.4,40.36,20.4,50.89l1.63-4.25Z"/><path class="cls-9" d="M258.83,439.25c-4.35,2.52-11.45,2.52-15.83,0L162.89,393c-2.2-1.28-3.3-2.95-3.3-4.62q0,8.31-.05,16.62c0,1.67,1.1,3.34,3.31,4.61L243,455.86c4.38,2.53,11.48,2.53,15.83,0l134.78-78.32.05-16.62Z"/><path class="cls-10" d="M393.61,360.92,258.83,439.25c-4.35,2.52-11.45,2.52-15.83,0L162.89,393c-4.38-2.54-4.4-6.65,0-9.17L297.62,305.5Z"/><line class="cls-6" x1="390.39" y1="362.79" x2="390.39" y2="379.38"/><path class="cls-9" d="M314.2,313.33a12.8,12.8,0,0,1-.12,1.73l8.46,4.87a13.84,13.84,0,0,0,.12-1.68c0-2.76-1-4.7-2.55-5.61l-8.46-4.91C313.22,308.64,314.19,310.58,314.2,313.33Z"/><path class="cls-10" d="M314.89,302.16c-2.42-1.41-5.77-1.21-9.47.93-4.69,2.7-8.8,7.86-11.16,13.44l8.45,4.91c2.36-5.57,6.47-10.73,11.16-13.44,3.7-2.14,7.06-2.34,9.47-.93Z"/><path class="cls-9" d="M313.89,313.25c4.82-2.79,8.75-.55,8.77,5a13.84,13.84,0,0,1-.12,1.68l3.68,2.13a22.78,22.78,0,0,0,1-6.45c0-8.45-6-11.86-13.36-7.61-4.69,2.71-8.8,7.87-11.16,13.44l6.27-3.62A16.67,16.67,0,0,1,313.89,313.25Z"/><path class="cls-9" d="M330.8,322.9a12.83,12.83,0,0,1-.13,1.73l8.46,4.87a12.08,12.08,0,0,0,.12-1.68c0-2.76-1-4.7-2.55-5.61l-8.45-4.91C329.82,318.21,330.79,320.15,330.8,322.9Z"/><path class="cls-10" d="M331.49,311.73c-2.42-1.41-5.77-1.21-9.47.93-4.69,2.7-8.81,7.86-11.17,13.44l8.46,4.91c2.36-5.57,6.47-10.73,11.16-13.44,3.7-2.14,7-2.34,9.47-.93Z"/><path class="cls-9" d="M330.49,322.82c4.82-2.79,8.74-.55,8.76,5a12.08,12.08,0,0,1-.12,1.68l3.69,2.13a22.41,22.41,0,0,0,1-6.45c0-8.45-6-11.86-13.35-7.61-4.69,2.71-8.8,7.87-11.16,13.44l6.27-3.62A16.43,16.43,0,0,1,330.49,322.82Z"/><path class="cls-9" d="M347.39,332.47a11.35,11.35,0,0,1-.12,1.73l8.46,4.87a13.69,13.69,0,0,0,.12-1.68c0-2.76-1-4.7-2.55-5.61l-8.46-4.91C346.41,327.78,347.39,329.72,347.39,332.47Z"/><path class="cls-10" d="M348.08,321.3c-2.42-1.41-5.77-1.21-9.47.92-4.69,2.71-8.8,7.87-11.16,13.45l8.45,4.91c2.36-5.57,6.48-10.73,11.17-13.44,3.69-2.14,7.05-2.34,9.47-.93Z"/><path class="cls-9" d="M347.08,332.39c4.83-2.78,8.75-.55,8.77,5a13.69,13.69,0,0,1-.12,1.68l3.69,2.13a23.17,23.17,0,0,0,1-6.45c0-8.45-6-11.86-13.35-7.61-4.69,2.71-8.81,7.87-11.17,13.44l6.27-3.62A16.67,16.67,0,0,1,347.08,332.39Z"/><path class="cls-9" d="M364,342.05a14.64,14.64,0,0,1-.12,1.72l8.45,4.87a12.08,12.08,0,0,0,.12-1.68c0-2.76-1-4.69-2.55-5.61l-8.45-4.91C363,337.35,364,339.29,364,342.05Z"/><path class="cls-10" d="M364.68,330.87c-2.42-1.41-5.77-1.21-9.47.93-4.69,2.7-8.81,7.86-11.16,13.44l8.45,4.91c2.36-5.57,6.47-10.73,11.16-13.44,3.7-2.14,7-2.34,9.47-.93Z"/><path class="cls-9" d="M363.68,342c4.82-2.78,8.75-.55,8.76,5a12.08,12.08,0,0,1-.12,1.68l3.69,2.13a22.46,22.46,0,0,0,1-6.45c0-8.45-6-11.86-13.35-7.61-4.69,2.71-8.8,7.87-11.16,13.44l6.27-3.62A16.67,16.67,0,0,1,363.68,342Z"/><path class="cls-9" d="M380.58,351.62a11.31,11.31,0,0,1-.12,1.72l8.46,4.87a13.84,13.84,0,0,0,.12-1.68c0-2.76-1-4.69-2.55-5.61L378,346C379.6,346.92,380.58,348.86,380.58,351.62Z"/><path class="cls-10" d="M381.27,340.44c-2.42-1.41-5.77-1.21-9.47.93-4.69,2.7-8.8,7.86-11.16,13.44l8.45,4.91c2.36-5.57,6.48-10.73,11.17-13.44,3.7-2.14,7.05-2.34,9.47-.93Z"/><path class="cls-9" d="M380.27,351.53c4.83-2.78,8.75-.55,8.77,5a13.84,13.84,0,0,1-.12,1.68l3.69,2.13a22.75,22.75,0,0,0,1-6.45c0-8.45-6-11.85-13.35-7.61-4.69,2.71-8.81,7.87-11.17,13.44l6.27-3.62A16.67,16.67,0,0,1,380.27,351.53Z"/><path class="cls-9" d="M352.73,361.11l-60.59-35a8.45,8.45,0,0,0-7.65,0l-29.31,17c-2.11,1.22-2.11,3.22,0,4.44l60.58,35a8.43,8.43,0,0,0,7.67,0l29.3-17C354.86,364.32,354.85,362.33,352.73,361.11Z"/><path class="cls-3" d="M324.72,365.36c.59-.34,1.14-.36,2.4.37s3.5,2.4,3.62,2.49l2.43-1.37a27.88,27.88,0,0,0-3.67-2.75,7.68,7.68,0,0,0-7.74-.38c-2.39,1.39-1.7,2.43.26,4,1.69,1.34,1.7,1.61,1.23,1.88s-1.21.28-2.61-.53c-1.11-.64-3.34-2.31-3.46-2.4l-2.51,1.36a27.84,27.84,0,0,0,3.65,2.72c2.73,1.57,5.36,2,7.89.49,2.19-1.27,2-2.21,0-3.94C324.53,365.94,324.23,365.64,324.72,365.36Z"/><path class="cls-3" d="M310.57,363.32c-1.57-.9-1.6-1.59-.32-2.36l6.41,3.7,2.23-1c3.27-1.9,3.34-3.74.15-5.59s-6.8-1.63-10.65.6-4.13,4-.84,5.92a37.1,37.1,0,0,0,5.15,2.27l2.1-1.27C314.68,365.49,312.36,364.36,310.57,363.32Zm6.08-3.9c1.37.79,1.32,1.41-.44,2.43l-3.77-2.18C314.1,358.72,315.26,358.61,316.65,359.42Z"/><path class="cls-3" d="M303,357.09l4.43-2.58,2.68,1.55,2.47-1.44-2.68-1.55,3-1.75L310,349.64l-3,1.75-1.29-.75-2.47,1.44,1.29.74-4.5,2.62c-3.12,1.81-3.36,2.83-.72,4.35a22.14,22.14,0,0,0,2.55,1.1l2.19-1.43c-.05,0-1.09-.58-1.7-.93C301.44,358,301.93,357.72,303,357.09Z"/><path class="cls-3" d="M299.68,346.86c-3.8-2.2-7.33-1.55-10.67.39s-4.48,4-.68,6.2S295.7,355,299,353,303.47,349,299.68,346.86Zm-3.61,4.46c-2.11,1.23-3.67,1.63-5.27.7s-.93-1.84,1.17-3.06,3.62-1.6,5.24-.67S298.17,350.1,296.07,351.32Z"/><path class="cls-3" d="M288.79,340.57a12.86,12.86,0,0,0-3.58-1.07l.6-.34-2.9-1.68-10.82,6.29,2.92,1.69,8.1-4.71a10.34,10.34,0,0,1,2.37.92c1.42.81.58,1.56-1.07,2.52l-5.79,3.36,2.93,1.68,5.86-3.4C290.73,343.9,291.85,342.34,288.79,340.57Z"/><path class="cls-5" d="M718,415.18c9.29-5.17,14-12.08,14-19,0,1.81,0,3.61,0,5.42,0,6.92-4.66,13.84-14,19-18.08,10.08-46.79,9.79-64.13-.65-8.41-5.06-12.6-11.59-12.62-18.11,0-1.82,0-3.64,0-5.46,0,6.52,4.22,13.05,12.63,18.11C671.21,425,699.91,425.26,718,415.18Z"/><path class="cls-5" d="M703.2,354.33c8.85,5.32,8.55,13.81-.68,18.95s-23.88,5-32.72-.33-8.55-13.81.68-18.95S694.35,349,703.2,354.33Z"/><path class="cls-2" d="M715.61,359.14c2.69,5.92-.11,12.49-8.27,17-12,6.69-31.05,6.5-42.56-.43-7.62-4.59-10-11-7.29-16.71,0,0,0,0,0-.05,1.4-2.91,4.12-5.64,8.15-7.89,12-6.69,31.05-6.5,42.56.43a18.17,18.17,0,0,1,7.24,7.29Zm-13.09,14.14c9.23-5.14,9.53-13.63.68-18.95s-23.5-5.48-32.72-.33S661,367.62,669.8,373,693.3,378.43,702.52,373.28Z"/><path class="cls-2" d="M731.94,396.15v0c0,6.91-4.67,13.82-14,19-18.07,10.08-46.77,9.79-64.11-.65-8.41-5.06-12.61-11.59-12.63-18.11a16.46,16.46,0,0,1,1.68-7.15q7.29-15.12,14.57-30.23c-2.73,5.73-.33,12.12,7.29,16.71,11.51,6.93,30.56,7.12,42.56.43,8.16-4.55,11-11.12,8.27-17q7.32,15,14.61,29.89A16.21,16.21,0,0,1,731.94,396.15Z"/><path class="cls-6" d="M731.94,396.19c0,1.81,0,3.61,0,5.42,0,6.92-4.66,13.84-14,19-18.08,10.08-46.79,9.79-64.13-.65-8.41-5.06-12.6-11.59-12.62-18.11,0-1.82,0-3.64,0-5.46"/><path class="cls-6" d="M657.49,359c-2.73,5.73-.33,12.12,7.29,16.71,11.51,6.93,30.56,7.12,42.56.43,8.16-4.55,11-11.12,8.27-17"/><path class="cls-6" d="M715.46,358.82a18.17,18.17,0,0,0-7.24-7.29c-11.51-6.93-30.56-7.12-42.56-.43-4,2.25-6.75,5-8.15,7.89"/><path class="cls-6" d="M702.52,373.28c-9.22,5.15-23.88,5-32.72-.33s-8.55-13.81.68-18.95,23.87-5,32.72.33S711.75,368.14,702.52,373.28Z"/><path class="cls-6" d="M715.46,358.82l.15.32q7.32,15,14.61,29.89a16.21,16.21,0,0,1,1.72,7.12v0c0,6.91-4.67,13.82-14,19-18.07,10.08-46.77,9.79-64.11-.65-8.41-5.06-12.61-11.59-12.63-18.11a16.46,16.46,0,0,1,1.68-7.15q7.29-15.12,14.57-30.23s0,0,0-.05"/><path class="cls-3" d="M752,264.61c2.5,3.22,3.95,10.54,2.93,16.09a14.91,14.91,0,0,1-1,2.92,15,15,0,0,0-1.69,6.92,14.09,14.09,0,0,0,1.38,6.86,15.85,15.85,0,0,1,.93,2.87,12.91,12.91,0,0,1,0,4.18,12.77,12.77,0,0,1-3,6.68,17.55,17.55,0,0,0-1.84,2.53,15.94,15.94,0,0,0-1.64,3.83,14.59,14.59,0,0,0-.78,4,19.07,19.07,0,0,0,.11,3c0,.48.08,1,.1,1.46a9.77,9.77,0,0,1-.11,1.58,11.46,11.46,0,0,1-.42,1.85,10.35,10.35,0,0,1-.37,1.06c-.16.37-.35.75-.56,1.15a12.73,12.73,0,0,1-2.56,3.56,19.75,19.75,0,0,1-2.55,2,21.89,21.89,0,0,0-2.66,1.8,16.06,16.06,0,0,0-1.38,1.3,18.73,18.73,0,0,0-1.58,1.74c-.56.68-1,1.34-1.36,1.9a12.78,12.78,0,0,0-1,1.59,14.75,14.75,0,0,0-.63,1.47l-.24.72-.26.67a14.65,14.65,0,0,1-4.34,6.08c-8,7.25-16.31,13.09-25.53,12-6.5-6.63-7-16.8-6.08-27.54A14.75,14.75,0,0,1,698,331.7l.38-.62c.14-.21.27-.42.42-.63a13.77,13.77,0,0,0,.78-1.39,11.78,11.78,0,0,0,.68-1.73c.2-.66.48-1.38.67-2.23a16.66,16.66,0,0,0,.42-2.32,17.26,17.26,0,0,0,.19-1.89,23.14,23.14,0,0,0-.19-3.2,17.28,17.28,0,0,1,0-3.22,12.42,12.42,0,0,1,1.25-4.2q.28-.61.57-1.14a11,11,0,0,1,.61-.94,12,12,0,0,1,1.21-1.46,10.31,10.31,0,0,1,1.19-1.06c.41-.29.81-.55,1.22-.8a19.55,19.55,0,0,0,2.43-1.75,14.33,14.33,0,0,0,2.71-3.07,16.28,16.28,0,0,0,2-3.63,19.35,19.35,0,0,0,.88-3,13.72,13.72,0,0,1,6.75-9,15.81,15.81,0,0,1,2.84-1,14.09,14.09,0,0,0,6.28-3.09,15.13,15.13,0,0,0,4.46-5.56,14.24,14.24,0,0,1,1.67-2.61C741.23,267.91,747.9,264.6,752,264.61Z"/><path class="cls-12" d="M708.23,353.18a14.68,14.68,0,0,0,1.88-7.23v-.72l0-.75a13.27,13.27,0,0,1,.37-3.43c.18-.67.32-1.43.6-2.26a17.37,17.37,0,0,1,.84-2.19,17.15,17.15,0,0,1,.83-1.71,22,22,0,0,1,1.83-2.63,19.07,19.07,0,0,0,1.68-2.75,12.7,12.7,0,0,0,1.12-4.24c0-.45.09-.88.11-1.27a10.21,10.21,0,0,0,0-1.13,10.76,10.76,0,0,0-.27-1.87,9.73,9.73,0,0,0-.46-1.52c-.2-.46-.41-.9-.62-1.32a19.08,19.08,0,0,1-1.17-2.76,14.57,14.57,0,0,1-.71-4,16.32,16.32,0,0,1,.15-4.16,19.05,19.05,0,0,1,.82-3,12.81,12.81,0,0,0,.42-7.32A12.42,12.42,0,0,0,715,295a13.69,13.69,0,0,1-.47,1.41,16.28,16.28,0,0,1-2,3.63,14.33,14.33,0,0,1-2.71,3.07,19.55,19.55,0,0,1-2.43,1.75c-.41.25-.81.51-1.22.8a10.31,10.31,0,0,0-1.19,1.06,12,12,0,0,0-1.21,1.46,11,11,0,0,0-.61.94q-.28.53-.57,1.14a12.42,12.42,0,0,0-1.25,4.2,17.28,17.28,0,0,0,0,3.22,23.14,23.14,0,0,1,.19,3.2,17.26,17.26,0,0,1-.19,1.89,16.66,16.66,0,0,1-.42,2.32c-.19.85-.47,1.57-.67,2.23a11.78,11.78,0,0,1-.68,1.73,13.77,13.77,0,0,1-.78,1.39c-.15.21-.28.42-.42.63l-.38.62a14.75,14.75,0,0,0-2.16,7.15c-.82,10.1-.47,19.69,5,26.31A66.08,66.08,0,0,0,708.23,353.18Z"/><g class="cls-13"><line class="cls-14" x1="703.21" y1="363.75" x2="748.76" y2="271.16"/><polyline class="cls-14" points="691.55 342.42 704.88 360.35 727.21 359.97"/><polyline class="cls-14" points="698.13 329.05 711.46 346.97 733.79 346.6"/><polyline class="cls-14" points="699.94 308.89 718.15 333.38 748.66 332.86"/><polyline class="cls-14" points="709.68 300.71 724.3 320.37 748.8 319.96"/><polyline class="cls-14" points="716.88 287.08 731.36 306.54 755.6 306.13"/><polyline class="cls-14" points="724.45 275.55 737.78 293.47 760.12 293.1"/><polyline class="cls-14" points="731.03 262.18 744.36 280.1 766.7 279.72"/></g><path class="cls-3" d="M629.28,261.7c4.07.31,10.47,4.13,13.91,8.61a14.67,14.67,0,0,1,1.47,2.73,15,15,0,0,0,4,5.89,14.15,14.15,0,0,0,6,3.57,15.55,15.55,0,0,1,2.76,1.23,12.9,12.9,0,0,1,3.09,2.81,12.72,12.72,0,0,1,2.93,6.71,19.71,19.71,0,0,0,.66,3.07,15.8,15.8,0,0,0,1.74,3.78,14.62,14.62,0,0,0,2.47,3.27,18.48,18.48,0,0,0,2.29,1.93c.38.28.76.57,1.15.9a9.25,9.25,0,0,1,1.1,1.14,11.28,11.28,0,0,1,1.09,1.55,11.06,11.06,0,0,1,.54,1c.16.37.32.76.48,1.19a12.46,12.46,0,0,1,.92,4.28,17.77,17.77,0,0,1-.25,3.22,24.48,24.48,0,0,0-.44,3.17,17.72,17.72,0,0,0,0,1.9,19.56,19.56,0,0,0,.24,2.34c.13.87.36,1.61.5,2.28a13,13,0,0,0,.54,1.78,14,14,0,0,0,.68,1.45l.36.65.33.65a14.57,14.57,0,0,1,1.6,7.3c0,10.77-1.2,20.88-8.19,27-9.28.38-17.13-6.09-24.52-13.93a14.64,14.64,0,0,1-3.86-6.4l-.21-.69-.19-.73a11.8,11.8,0,0,0-.51-1.52,12.08,12.08,0,0,0-.82-1.66c-.36-.59-.71-1.28-1.21-2a18.32,18.32,0,0,0-1.44-1.86,16.42,16.42,0,0,0-1.28-1.4,25.31,25.31,0,0,0-2.5-2,17.76,17.76,0,0,1-2.39-2.15A12.61,12.61,0,0,1,630.1,329c-.18-.41-.34-.81-.47-1.19a11,11,0,0,1-.29-1.08,11.81,11.81,0,0,1-.27-1.88,9.2,9.2,0,0,1,0-1.58c.06-.51.13-1,.22-1.45a19,19,0,0,0,.33-3,14.41,14.41,0,0,0-.46-4.07,16.27,16.27,0,0,0-1.34-3.95,18.37,18.37,0,0,0-1.63-2.67A13.68,13.68,0,0,1,624,297.06a14.25,14.25,0,0,1,1.15-2.78,14.16,14.16,0,0,0,1.9-6.74,15.06,15.06,0,0,0-1.14-7,14.62,14.62,0,0,1-.82-3C624.52,271.9,626.54,264.72,629.28,261.7Z"/><path class="cls-12" d="M677.9,332.78l-.33-.65-.36-.65a14,14,0,0,1-.68-1.45,13,13,0,0,1-.54-1.78c-.14-.67-.37-1.41-.5-2.28a19.56,19.56,0,0,1-.24-2.34,17.72,17.72,0,0,1,0-1.9,24.48,24.48,0,0,1,.44-3.17,17.77,17.77,0,0,0,.25-3.22,12.46,12.46,0,0,0-.92-4.28c-.16-.43-.32-.82-.48-1.19a11.06,11.06,0,0,0-.54-1,11.28,11.28,0,0,0-1.09-1.55,9.25,9.25,0,0,0-1.1-1.14c-.39-.33-.77-.62-1.15-.9a18.48,18.48,0,0,1-2.29-1.93,14.62,14.62,0,0,1-2.47-3.27,15.8,15.8,0,0,1-1.74-3.78,19.71,19.71,0,0,1-.66-3.07,13.57,13.57,0,0,0-1.33-4.31,15.43,15.43,0,0,1-2.5,3.17,15.51,15.51,0,0,0-1.89,2.34,13.82,13.82,0,0,0-1,11.22,18.31,18.31,0,0,1,.82,3,16.25,16.25,0,0,1,.17,4.16,14.65,14.65,0,0,1-.71,4,19.09,19.09,0,0,1-1.16,2.76c-.21.42-.42.86-.61,1.32a8.77,8.77,0,0,0-.46,1.52,12,12,0,0,0-.27,1.88c0,.35,0,.72,0,1.12s.06.82.11,1.27A12.69,12.69,0,0,0,655.7,331a18.42,18.42,0,0,0,1.69,2.74,24.21,24.21,0,0,1,1.83,2.63,16.06,16.06,0,0,1,.84,1.71,19,19,0,0,1,.85,2.19c.28.83.42,1.59.6,2.26a12.75,12.75,0,0,1,.38,3.42c0,.26,0,.5,0,.75v.73a14.8,14.8,0,0,0,1.9,7.23,64.46,64.46,0,0,0,7.7,12.24c6.85-6.11,8.08-16.14,8-26.83A14.57,14.57,0,0,0,677.9,332.78Z"/><g class="cls-15"><line class="cls-14" x1="670.22" y1="364.33" x2="631.98" y2="268.48"/><polyline class="cls-14" points="646.58 358.7 668.81 360.81 683.49 343.97"/><polyline class="cls-14" points="641.05 344.85 663.29 346.96 677.97 330.13"/><polyline class="cls-14" points="627.3 330.01 657.68 332.89 677.73 309.89"/><polyline class="cls-14" points="627.75 317.29 652.14 319.61 668.24 301.14"/><polyline class="cls-14" points="622.45 302.82 646.59 305.11 662.53 286.83"/><polyline class="cls-14" points="618.96 289.47 641.2 291.58 655.88 274.75"/><polyline class="cls-14" points="613.44 275.63 635.67 277.74 650.36 260.9"/></g><path class="cls-3" d="M686.48,253.15c3.94,1.92,8.81,8.28,10.45,14.12a15.29,15.29,0,0,1,.38,3.31,16.19,16.19,0,0,0,1.65,7.47,15.23,15.23,0,0,0,4.59,5.95,16.21,16.21,0,0,1,2.25,2.33A14.78,14.78,0,0,1,708,298.22a20.12,20.12,0,0,0-.57,3.32,17.43,17.43,0,0,0,.23,4.46,15.77,15.77,0,0,0,1.16,4.25,20.75,20.75,0,0,0,1.52,2.83c.27.44.54.88.79,1.35a11.55,11.55,0,0,1,.65,1.58,12.84,12.84,0,0,1,.47,2,10.69,10.69,0,0,1,.14,1.2c0,.43,0,.88,0,1.37a13.43,13.43,0,0,1-.79,4.64,18.77,18.77,0,0,1-1.52,3.11,24,24,0,0,0-1.7,3,17.91,17.91,0,0,0-.72,1.91,18.45,18.45,0,0,0-.69,2.43c-.22.91-.29,1.74-.42,2.47a13.17,13.17,0,0,0-.16,2,15.28,15.28,0,0,0,.1,1.71c0,.27.07.54.1.8l.07.78a15.69,15.69,0,0,1-1.3,7.91c-4.25,10.77-9.51,20.34-18.92,23.65-9.4-3.31-14.66-12.88-18.91-23.65a15.69,15.69,0,0,1-1.3-7.91l.07-.78c0-.26.06-.53.1-.8a15.28,15.28,0,0,0,.1-1.71,14.61,14.61,0,0,0-.16-2c-.13-.73-.2-1.56-.42-2.47a18.45,18.45,0,0,0-.69-2.43,17.91,17.91,0,0,0-.72-1.91,24,24,0,0,0-1.7-3,19.59,19.59,0,0,1-1.53-3.11,13.7,13.7,0,0,1-.78-4.64c0-.49,0-.94,0-1.37a10.69,10.69,0,0,1,.14-1.2,12.84,12.84,0,0,1,.47-2,11.55,11.55,0,0,1,.65-1.58c.25-.47.52-.91.79-1.35a19.7,19.7,0,0,0,1.51-2.83,15.38,15.38,0,0,0,1.17-4.25,17.43,17.43,0,0,0,.23-4.46,20.12,20.12,0,0,0-.57-3.32,14.78,14.78,0,0,1,2.23-11.89,16.21,16.21,0,0,1,2.25-2.33,15.14,15.14,0,0,0,4.58-5.95,16.23,16.23,0,0,0,1.66-7.47,15.9,15.9,0,0,1,.37-3.31C677.68,261.43,682.55,255.07,686.48,253.15Z"/><g class="cls-16"><line class="cls-14" x1="686.48" y1="371.8" x2="686.48" y2="260.99"/><polyline class="cls-14" points="665.15 356.77 686.49 367.72 707.82 356.77"/><polyline class="cls-14" points="665.15 340.77 686.49 351.72 707.82 340.77"/><polyline class="cls-14" points="657.33 320.49 686.49 335.45 715.64 320.49"/><polyline class="cls-14" points="662.84 307.99 686.25 320 709.65 307.99"/><polyline class="cls-14" points="663.31 291.44 686.49 303.33 709.65 291.44"/><polyline class="cls-14" points="665.15 276.75 686.49 287.69 707.82 276.75"/><polyline class="cls-14" points="665.15 260.74 686.49 271.69 707.82 260.74"/></g></g></g></svg>