<svg xmlns="http://www.w3.org/2000/svg" viewBox="0 0 449.49 147"><defs><style>.cls-1{fill:#00f0ff;}.cls-2{fill:#fff;}</style></defs><g id="Layer_2" data-name="Layer 2"><g id="Layer_1-2" data-name="Layer 1"><g id="Layer_2-2" data-name="Layer 2"><g id="Layer_1-2-2" data-name="Layer 1-2"><path class="cls-1" d="M36.8,75.1c-11-15-21.7-29.8-36.8-41,14.8-2.2,26.5,3.5,37.2,12.7,18-23.4,42.5-37,69.4-46.8C76.9,18.9,52,42.3,36.8,75.1Z"/><path class="cls-2" d="M40.1,147a92.94,92.94,0,0,1-1.9-18.2A118,118,0,0,1,40.7,101,94.38,94.38,0,0,1,54.8,67.7,93.42,93.42,0,0,1,69.6,50.5L82,60.4c-3.4,3.9-7,7.6-10.2,11.7a75.45,75.45,0,0,0-15.7,55.7,1.39,1.39,0,0,1-.2,1.1c-5.1,6-10.3,12-15.5,18A.37.37,0,0,1,40.1,147Z"/><path class="cls-1" d="M136.74,62.69H122.52v38.66H113V62.69h-14V54.94h37.8Z"/><path class="cls-1" d="M160.16,97.84a11.54,11.54,0,0,1-9.43,4.14q-5.55,0-8.46-3.18t-3-9.34V66.86h9.21V89.17c0,3.59,1.63,5.39,4.91,5.39q4.68,0,6.44-3.26V66.86h9.24v34.49h-8.67Z"/><path class="cls-1" d="M187.06,58.38v8.48H193v6.76h-5.9V90.83a4.1,4.1,0,0,0,.74,2.74,3.68,3.68,0,0,0,2.8.83,15.55,15.55,0,0,0,2.71-.22v7a19,19,0,0,1-5.58.82q-9.69,0-9.88-9.78V73.62h-5V66.86h5V58.38Z"/><path class="cls-1" d="M195.7,83.79a20.44,20.44,0,0,1,2-9.15,14.41,14.41,0,0,1,5.69-6.22A16.61,16.61,0,0,1,212,66.23a15.68,15.68,0,0,1,11.39,4.27q4.41,4.26,4.93,11.6l.06,2.36q0,7.94-4.43,12.73T212.05,102q-7.45,0-11.9-4.78t-4.45-13Zm9.21.65c0,3.28.62,5.78,1.85,7.52a6.64,6.64,0,0,0,10.52,0q1.88-2.56,1.88-8.22,0-4.81-1.88-7.47A6.11,6.11,0,0,0,212,73.65a6,6,0,0,0-5.23,2.63Q204.92,78.92,204.91,84.44Z"/><path class="cls-1" d="M253.42,75.5a25.07,25.07,0,0,0-3.31-.26c-3.49,0-5.77,1.18-6.86,3.54v22.57H234V66.86h8.7L243,71q2.77-4.74,7.68-4.74a9.53,9.53,0,0,1,2.87.41Z"/><path class="cls-2" d="M268,93.67h20.3v7.68H258.46V54.94H268Z"/><path class="cls-2" d="M293.13,57.94a4.52,4.52,0,0,1,1.39-3.41,6,6,0,0,1,7.54,0,4.86,4.86,0,0,1,0,6.85,5.9,5.9,0,0,1-7.49,0A4.5,4.5,0,0,1,293.13,57.94Zm9.79,43.41h-9.25V66.86h9.25Z"/><path class="cls-2" d="M319,66.86l.29,4a12,12,0,0,1,9.91-4.62q5.47,0,8.16,3.21t2.74,9.63v22.28h-9.21V79.29A6,6,0,0,0,329.59,75c-.85-.88-2.26-1.33-4.24-1.33A6.34,6.34,0,0,0,319.52,77v24.32h-9.21V66.86Z"/><path class="cls-2" d="M359.58,87.52l-3.31,3.31v10.52h-9.21v-49h9.21V79.52l1.78-2.3,8.83-10.36h11.06L365.48,81.24,379,101.35H368.44Z"/><path class="cls-2" d="M402.58,97.84a11.57,11.57,0,0,1-9.44,4.14q-5.53,0-8.46-3.18t-3-9.34V66.86h9.21V89.17q0,5.39,4.91,5.39,4.68,0,6.44-3.26V66.86h9.24v34.49h-8.67Z"/><path class="cls-2" d="M449.49,84.42q0,8-3.61,12.77a11.6,11.6,0,0,1-9.77,4.79,10.75,10.75,0,0,1-8.45-3.63v16.26h-9.21V66.86H427l.32,3.38a10.81,10.81,0,0,1,8.73-4A11.7,11.7,0,0,1,446,70.94q3.53,4.73,3.53,13Zm-9.21-.67c0-3.2-.57-5.68-1.7-7.42a5.57,5.57,0,0,0-5-2.62q-4.33,0-6,3.32V91.15c1.13,2.27,3.13,3.41,6,3.41Q440.28,94.56,440.28,83.75Z"/></g></g></g></g></svg>