<?xml version="1.0" encoding="utf-8"?>
<!-- Generator: Adobe Illustrator 24.3.0, SVG Export Plug-In . SVG Version: 6.00 Build 0)  -->
<svg version="1.1" id="Layer_1" xmlns="http://www.w3.org/2000/svg" xmlns:xlink="http://www.w3.org/1999/xlink" x="0px" y="0px"
	 viewBox="0 0 557.1 147.1" style="enable-background:new 0 0 557.1 147.1;" xml:space="preserve">
<style type="text/css">
	.st0{fill:#00F0FF;}
	.st1{fill:#FFFFFF;}
</style>
<g id="Layer_2_1_">
	<g id="Layer_1-2">
		<path class="st0" d="M36.8,75.2c-11-15-21.7-29.8-36.8-41c14.8-2.2,26.5,3.5,37.2,12.7c18-23.4,42.5-37,69.4-46.8
			C76.9,19,52,42.4,36.8,75.2z"/>
		<path class="st1" d="M40.1,147.1c-1.2-6-1.9-12.1-1.9-18.2c-0.3-9.3,0.6-18.7,2.5-27.8c2.5-11.9,7.3-23.2,14.1-33.3
			C59,61.5,64,55.7,69.6,50.6L82,60.5c-3.4,3.9-7,7.6-10.2,11.7C59.4,87.9,53.7,108,56.1,127.9c0.1,0.4,0,0.8-0.2,1.1
			c-5.1,6-10.3,12-15.5,18C40.3,147.1,40.2,147.1,40.1,147.1z"/>
		<path class="st1" d="M145.9,99.5h-11.2V80h-16.6v19.5h-11.3V52.8h11.3v18.6h16.6V52.8h11.2V99.5z"/>
		<path class="st1" d="M152.4,55.8c0-1.5,0.6-2.9,1.7-3.8c2.6-2,6.1-2,8.7,0c2.1,1.9,2.2,5.2,0.3,7.3c-0.1,0.1-0.2,0.2-0.3,0.3
			c-2.6,2-6.1,2-8.7,0C153,58.6,152.4,57.3,152.4,55.8z M163.9,99.5H153V64.8h10.9V99.5z"/>
		<path class="st1" d="M191.6,74.6l-3.6-0.3c-3.4,0-5.6,1.1-6.6,3.2v22h-10.8V64.8h10.1l0.4,4.5c1.8-3.4,4.4-5.1,7.6-5.1
			c1,0,2,0.1,3,0.4L191.6,74.6z"/>
		<path class="st1" d="M211.7,100.2c-5.3,0-9.6-1.6-12.9-4.8c-3.3-3.2-5.1-7.7-4.9-12.4v-0.9c-0.1-3.2,0.6-6.5,2-9.4
			c1.2-2.6,3.2-4.8,5.8-6.3c2.7-1.5,5.9-2.3,9-2.2c4.9,0,8.7,1.5,11.6,4.5s4.2,7.2,4.2,12.7v4.2H205c0.3,1.8,1.2,3.4,2.5,4.6
			c1.4,1.2,3.2,1.8,5.1,1.7c3.1,0.1,6.1-1.2,8-3.6l4.9,5.8c-1.5,2-3.5,3.5-5.7,4.4C217.1,99.6,214.4,100.2,211.7,100.2z M210.5,72.5
			c-3.2,0-5.1,2.1-5.6,6.3h10.9V78c0.1-1.5-0.4-2.9-1.3-4C213.4,72.9,211.9,72.4,210.5,72.5z"/>
		<path class="st0" d="M267.9,61.5h-14v38.1h-11.3V61.5h-13.8v-8.7h39.1V61.5z"/>
		<path class="st0" d="M286.1,100.2c-5.3,0-9.6-1.6-12.9-4.8c-3.3-3.2-5.1-7.7-4.9-12.4v-0.9c-0.1-3.2,0.6-6.5,2-9.4
			c1.2-2.6,3.3-4.9,5.8-6.3c2.7-1.5,5.9-2.3,9-2.2c4.9,0,8.7,1.5,11.6,4.5s4.2,7.2,4.2,12.7v4.2h-21.6c0.3,1.8,1.2,3.4,2.5,4.6
			c1.4,1.2,3.2,1.7,5.1,1.7c3.1,0.1,6.1-1.2,8-3.6l5,5.8c-1.5,2-3.5,3.5-5.7,4.4C291.5,99.6,288.8,100.2,286.1,100.2z M284.9,72.5
			c-3.2,0-5,2.1-5.6,6.3h10.9V78c0.1-1.5-0.4-2.9-1.3-4C287.8,72.9,286.3,72.4,284.9,72.5z"/>
		<path class="st0" d="M323.3,89.8c0-1-0.6-1.8-1.4-2.2c-1.7-0.8-3.6-1.4-5.5-1.7c-2.3-0.5-4.6-1.3-6.7-2.4c-1.6-0.8-3-2.1-4-3.5
			c-0.9-1.4-1.4-3.1-1.4-4.8c0-3.1,1.5-6.1,4-7.9c2.6-2.1,6.1-3.1,10.3-3.1c4.6,0,8.3,1,11,3.1c2.7,1.9,4.2,4.9,4.2,8.2h-10.9
			c0-2.8-1.5-4.2-4.4-4.2c-1,0-2.1,0.3-2.9,0.9c-0.7,0.6-1.2,1.4-1.1,2.4c0,1,0.5,1.9,1.4,2.3c1.4,0.8,2.9,1.3,4.5,1.5
			c1.8,0.3,3.7,0.8,5.4,1.4c5.2,1.8,7.8,5,7.8,9.7c0,3.1-1.6,6.1-4.2,7.7c-2.8,2-6.5,3-10.9,3c-2.8,0.1-5.5-0.5-8-1.6
			c-2.2-0.9-4.1-2.4-5.5-4.4c-1.3-1.7-2-3.7-2-5.8h10.2c-0.1,1.4,0.5,2.7,1.6,3.5c1.2,0.8,2.5,1.2,4,1.1c1.2,0.1,2.3-0.2,3.3-0.9
			C322.9,91.5,323.3,90.7,323.3,89.8z"/>
		<path class="st0" d="M351.4,56.1v8.6h5.7v7.5h-5.7v15.9c-0.1,1,0.1,1.9,0.7,2.7c0.8,0.6,1.8,0.9,2.8,0.8c0.9,0,1.8,0,2.7-0.2v7.7
			c-2,0.6-4,0.9-6.1,0.9c-3.7,0-6.5-0.9-8.2-2.6s-2.7-4.4-2.7-8V72.3h-4.4v-7.5h4.4v-8.6h10.8V56.1z"/>
		<path class="st0" d="M398.6,61.5h-14v38.1h-11.3V61.5h-13.8v-8.7h39.1L398.6,61.5L398.6,61.5z"/>
		<path class="st0" d="M417,99.5c-0.5-1-0.8-2-1-3.1c-2,2.5-5.1,3.9-8.4,3.8c-3.1,0.1-6-1-8.4-3c-2.2-1.8-3.5-4.6-3.4-7.5
			c-0.2-3.4,1.4-6.6,4.1-8.5c2.8-1.9,6.8-2.9,12.1-2.9h3.3v-1.8c0-3.2-1.4-4.8-4.1-4.8c-2.6,0-3.9,1.3-3.9,3.8h-10.8
			c0-3.3,1.6-6.4,4.3-8.2c3.2-2.2,7.1-3.3,10.9-3.1c4.4,0,7.9,1.1,10.5,3.2c2.6,2.2,4,5.5,4,8.9v15.4c-0.1,2.5,0.4,5.1,1.4,7.3v0.6
			L417,99.5z M410.2,92.4c1.2,0,2.3-0.3,3.4-0.9c0.8-0.5,1.5-1.2,1.9-2V84h-3.1c-3.8,0-5.6,1.7-5.6,5.1c0,0.9,0.3,1.8,1,2.4
			C408.4,92.2,409.3,92.5,410.2,92.4L410.2,92.4z"/>
		<path class="st0" d="M446.3,86.6l-3,3.1v9.9h-10.9V50.2h10.8v26.2l1.1-1.4l8.2-10.2h13l-12.2,14.3l13,20.5h-12.4L446.3,86.6z"/>
		<path class="st0" d="M484.5,100.2c-5.3,0-9.6-1.6-12.9-4.8c-3.3-3.2-5.1-7.7-4.9-12.4v-0.9c-0.1-3.2,0.6-6.5,2-9.4
			c1.2-2.6,3.2-4.8,5.8-6.3c2.7-1.5,5.9-2.3,9-2.2c4.9,0,8.7,1.5,11.6,4.5s4.2,7.2,4.2,12.7v4.2h-21.5c0.3,1.8,1.2,3.4,2.5,4.6
			c1.4,1.2,3.2,1.8,5.1,1.7c3.1,0.1,6.1-1.2,8-3.6l4.9,5.8c-1.5,2-3.5,3.5-5.7,4.4C489.9,99.6,487.2,100.2,484.5,100.2z M483.2,72.5
			c-3.2,0-5.1,2.1-5.6,6.3h10.9V78c0.1-1.5-0.4-2.9-1.3-4C486.1,72.9,484.7,72.4,483.2,72.5z"/>
		<path class="st0" d="M524.5,74.6l-3.6-0.3c-3.4,0-5.6,1.1-6.5,3.2v22h-10.8V64.8h10.1l0.4,4.5c1.8-3.4,4.4-5.1,7.6-5.1
			c1,0,2,0.1,3,0.4L524.5,74.6z"/>
		<path class="st0" d="M546.6,89.8c0-1-0.6-1.8-1.5-2.2c-1.7-0.8-3.6-1.4-5.5-1.7c-2.3-0.5-4.5-1.3-6.6-2.4c-1.6-0.8-3-2.1-4-3.5
			c-0.9-1.4-1.4-3.1-1.4-4.8c0-3.1,1.5-6.1,4-7.9c2.6-2.1,6.1-3.1,10.3-3.1c4.6,0,8.2,1,11,3.1c2.7,1.9,4.2,4.9,4.2,8.2h-10.9
			c0-2.8-1.5-4.2-4.4-4.2c-1,0-2,0.3-2.8,0.9c-0.7,0.6-1.2,1.4-1.2,2.4s0.5,1.9,1.4,2.3c1.4,0.8,2.9,1.3,4.5,1.5
			c1.8,0.3,3.7,0.8,5.4,1.4c5.2,1.8,7.8,5,7.8,9.7c0,3.1-1.6,6.1-4.2,7.7c-2.8,2-6.5,3-10.9,3c-2.8,0.1-5.5-0.5-8-1.6
			c-2.2-0.9-4.1-2.4-5.5-4.4c-1.3-1.7-2-3.7-2-5.8h10.1c-0.1,1.4,0.5,2.7,1.6,3.5c1.2,0.8,2.6,1.2,4,1.1c1.2,0.1,2.4-0.2,3.3-0.9
			C546.2,91.5,546.6,90.7,546.6,89.8z"/>
	</g>
</g>
</svg>
